  0
SECTION
  2
HEADER
  9
$ACADVER
  1
AC1009
  9
$DWGCODEPAGE
  3
ansi_1252
  9
$INSBASE
 10
0.0
 20
0.0
 30
0.0
  9
$EXTMIN
 10
83.88910611292104
 20
34.68555212747285
 30
0.0
  9
$EXTMAX
 10
216.3000085949898
 20
265.5000105500221
 30
0.0
  9
$LIMMIN
 10
0.0
 20
0.0
  9
$LIMMAX
 10
12.0
 20
9.0
  9
$ORTHOMODE
 70
     0
  9
$REGENMODE
 70
     1
  9
$FILLMODE
 70
     1
  9
$QTEXTMODE
 70
     0
  9
$MIRRTEXT
 70
     1
  9
$DRAGMODE
 70
     2
  9
$LTSCALE
 40
1.0
  9
$OSMODE
 70
    37
  9
$ATTMODE
 70
     1
  9
$TEXTSIZE
 40
0.2
  9
$TRACEWID
 40
0.05
  9
$TEXTSTYLE
  7
STANDARD
  9
$CLAYER
  8
0
  9
$CELTYPE
  6
BYLAYER
  9
$CECOLOR
 62
   256
  9
$DIMSCALE
 40
1.0
  9
$DIMASZ
 40
0.18
  9
$DIMEXO
 40
0.0625
  9
$DIMDLI
 40
0.38
  9
$DIMRND
 40
0.0
  9
$DIMDLE
 40
0.0
  9
$DIMEXE
 40
0.18
  9
$DIMTP
 40
0.0
  9
$DIMTM
 40
0.0
  9
$DIMTXT
 40
0.18
  9
$DIMCEN
 40
0.09
  9
$DIMTSZ
 40
0.0
  9
$DIMTOL
 70
     0
  9
$DIMLIM
 70
     0
  9
$DIMTIH
 70
     1
  9
$DIMTOH
 70
     1
  9
$DIMSE1
 70
     0
  9
$DIMSE2
 70
     0
  9
$DIMTAD
 70
     0
  9
$DIMZIN
 70
     0
  9
$DIMBLK
  1

  9
$DIMASO
 70
     1
  9
$DIMSHO
 70
     1
  9
$DIMPOST
  1

  9
$DIMAPOST
  1

  9
$DIMALT
 70
     0
  9
$DIMALTD
 70
     2
  9
$DIMALTF
 40
25.4
  9
$DIMLFAC
 40
1.0
  9
$DIMTOFL
 70
     0
  9
$DIMTVP
 40
0.0
  9
$DIMTIX
 70
     0
  9
$DIMSOXD
 70
     0
  9
$DIMSAH
 70
     0
  9
$DIMBLK1
  1

  9
$DIMBLK2
  1

  9
$DIMSTYLE
  2
STANDARD
  9
$DIMCLRD
 70
     0
  9
$DIMCLRE
 70
     0
  9
$DIMCLRT
 70
     0
  9
$DIMTFAC
 40
1.0
  9
$DIMGAP
 40
0.09
  9
$LUNITS
 70
     2
  9
$LUPREC
 70
     4
  9
$SKETCHINC
 40
0.1
  9
$FILLETRAD
 40
0.0
  9
$AUNITS
 70
     0
  9
$AUPREC
 70
     0
  9
$MENU
  1
.
  9
$ELEVATION
 40
0.0
  9
$PELEVATION
 40
0.0
  9
$THICKNESS
 40
0.0
  9
$LIMCHECK
 70
     0
  9
$CHAMFERA
 40
0.0
  9
$CHAMFERB
 40
0.0
  9
$SKPOLY
 70
     0
  9
$TDCREATE
 40
2454910.5
  9
$TDUPDATE
 40
2459874.698566528
  9
$TDINDWG
 40
0.0000000116
  9
$TDUSRTIMER
 40
0.0000000116
  9
$USRTIMER
 70
     1
  9
$ANGBASE
 50
0.0
  9
$ANGDIR
 70
     0
  9
$PDMODE
 70
     0
  9
$PDSIZE
 40
0.0
  9
$PLINEWID
 40
0.0
  9
$COORDS
 70
     1
  9
$SPLFRAME
 70
     0
  9
$SPLINETYPE
 70
     6
  9
$SPLINESEGS
 70
     8
  9
$ATTDIA
 70
     0
  9
$ATTREQ
 70
     1
  9
$HANDLING
 70
     1
  9
$HANDSEED
  5
7DB
  9
$SURFTAB1
 70
     6
  9
$SURFTAB2
 70
     6
  9
$SURFTYPE
 70
     6
  9
$SURFU
 70
     6
  9
$SURFV
 70
     6
  9
$UCSNAME
  2

  9
$UCSORG
 10
0.0
 20
0.0
 30
0.0
  9
$UCSXDIR
 10
1.0
 20
0.0
 30
0.0
  9
$UCSYDIR
 10
0.0
 20
1.0
 30
0.0
  9
$PUCSNAME
  2

  9
$PUCSORG
 10
0.0
 20
0.0
 30
0.0
  9
$PUCSXDIR
 10
1.0
 20
0.0
 30
0.0
  9
$PUCSYDIR
 10
0.0
 20
1.0
 30
0.0
  9
$USERI1
 70
     0
  9
$USERI2
 70
     0
  9
$USERI3
 70
     0
  9
$USERI4
 70
     0
  9
$USERI5
 70
     0
  9
$USERR1
 40
0.0
  9
$USERR2
 40
0.0
  9
$USERR3
 40
0.0
  9
$USERR4
 40
0.0
  9
$USERR5
 40
0.0
  9
$WORLDVIEW
 70
     1
  9
$SHADEDGE
 70
     3
  9
$SHADEDIF
 70
    70
  9
$TILEMODE
 70
     1
  9
$MAXACTVP
 70
    64
  9
$PLIMCHECK
 70
     0
  9
$PEXTMIN
 10
1.000000000000000E+20
 20
1.000000000000000E+20
 30
1.000000000000000E+20
  9
$PEXTMAX
 10
-1.000000000000000E+20
 20
-1.000000000000000E+20
 30
-1.000000000000000E+20
  9
$PLIMMIN
 10
0.0
 20
0.0
  9
$PLIMMAX
 10
12.0
 20
9.0
  9
$UNITMODE
 70
     0
  9
$VISRETAIN
 70
     1
  9
$PLINEGEN
 70
     0
  9
$PSLTSCALE
 70
     1
  0
ENDSEC
  0
SECTION
  2
TABLES
  0
TABLE
  2
VPORT
 70
     1
  0
VPORT
  2
*ACTIVE
 70
     0
 10
0.0
 20
0.0
 11
1.0
 21
1.0
 12
10.42990654205607
 22
4.5
 13
0.0
 23
0.0
 14
0.5
 24
0.5
 15
0.5
 25
0.5
 16
0.0
 26
0.0
 36
1.0
 17
0.0
 27
0.0
 37
0.0
 40
9.0
 41
1.972972972850329
 42
50.0
 43
0.0
 44
0.0
 50
0.0
 51
0.0
 71
     0
 72
   100
 73
     1
 74
     3
 75
     0
 76
     0
 77
     0
 78
     0
  0
ENDTAB
  0
TABLE
  2
LTYPE
 70
     2
  0
LTYPE
  2
CONTINUOUS
 70
     0
  3
Solid line
 72
    65
 73
     0
 40
0.0
  0
LTYPE
  2
CONTINUOUS2
 70
     0
  3
Solid Line
 72
    65
 73
     0
 40
0.0
  0
ENDTAB
  0
TABLE
  2
LAYER
 70
     2
  0
LAYER
  2
0
 70
     0
 62
     7
  6
CONTINUOUS
  0
LAYER
  2
LAYER_1
 70
     0
 62
     7
  6
CONTINUOUS
  0
ENDTAB
  0
TABLE
  2
STYLE
 70
     1
  0
STYLE
  2
STANDARD
 70
     0
 40
0.0
 41
1.0
 50
0.0
 71
     0
 42
0.2
  3
txt
  4

  0
ENDTAB
  0
TABLE
  2
VIEW
 70
     0
  0
ENDTAB
  0
TABLE
  2
UCS
 70
     0
  0
ENDTAB
  0
TABLE
  2
APPID
 70
     1
  0
APPID
  2
ACAD
 70
     0
  0
ENDTAB
  0
TABLE
  2
DIMSTYLE
 70
     1
  0
DIMSTYLE
  2
STANDARD
 70
     0
  3

  4

  5

  6

  7

 40
1.0
 41
0.18
 42
0.0625
 43
0.38
 44
0.18
 45
0.0
 46
0.0
 47
0.0
 48
0.0
140
0.18
141
0.09
142
0.0
143
25.4
144
1.0
145
0.0
146
1.0
147
0.09
 71
     0
 72
     0
 73
     1
 74
     1
 75
     0
 76
     0
 77
     0
 78
     0
170
     0
171
     2
172
     0
173
     0
174
     0
175
     0
176
     0
177
     0
178
     0
  0
ENDTAB
  0
ENDSEC
  0
SECTION
  2
BLOCKS
  0
BLOCK
  8
0
  2
$MODEL_SPACE
 70
     0
 10
0.0
 20
0.0
 30
0.0
  3
$MODEL_SPACE
  1

  0
ENDBLK
  5
21
  8
0
  0
BLOCK
 67
     1
  8
0
  2
$PAPER_SPACE
 70
     0
 10
0.0
 20
0.0
 30
0.0
  3
$PAPER_SPACE
  1

  0
ENDBLK
  5
1D
 67
     1
  8
0
  0
ENDSEC
  0
SECTION
  2
ENTITIES
  0
POLYLINE
  5
60
  8
LAYER_1
 66
     1
 10
0.0
 20
0.0
 30
0.0
 70
     1
  0
VERTEX
  5
79
  8
LAYER_1
 10
145.1250057667494
 20
34.80573870861156
 30
0.0
  0
VERTEX
  5
7A
  8
LAYER_1
 10
146.7750058323145
 20
34.68555212747285
 30
0.0
  0
VERTEX
  5
7B
  8
LAYER_1
 10
155.7750061899424
 20
34.77848949737051
 30
0.0
  0
VERTEX
  5
7C
  8
LAYER_1
 10
157.9500062763691
 20
35.01604355599019
 30
0.0
  0
VERTEX
  5
7D
  8
LAYER_1
 10
158.7405025487121
 20
35.1061795595386
 30
0.0
  0
VERTEX
  5
7E
  8
LAYER_1
 10
159.5268134544595
 20
35.20346824760288
 30
0.0
  0
VERTEX
  5
7F
  8
LAYER_1
 10
160.3090660222533
 20
35.30794480799523
 30
0.0
  0
VERTEX
  5
80
  8
LAYER_1
 10
161.0873872807355
 20
35.41964442852786
 30
0.0
  0
VERTEX
  5
81
  8
LAYER_1
 10
161.861904258548
 20
35.53860229701297
 30
0.0
  0
VERTEX
  5
82
  8
LAYER_1
 10
162.6327439843327
 20
35.66485360126278
 30
0.0
  0
VERTEX
  5
83
  8
LAYER_1
 10
163.4000334867317
 20
35.79843352908949
 30
0.0
  0
VERTEX
  5
84
  8
LAYER_1
 10
164.1638997943869
 20
35.93937726830532
 30
0.0
  0
VERTEX
  5
85
  8
LAYER_1
 10
164.9244699359403
 20
36.08772000672248
 30
0.0
  0
VERTEX
  5
86
  8
LAYER_1
 10
165.6818709400338
 20
36.24349693215316
 30
0.0
  0
VERTEX
  5
87
  8
LAYER_1
 10
166.4362298353095
 20
36.4067432324096
 30
0.0
  0
VERTEX
  5
88
  8
LAYER_1
 10
167.1876736504092
 20
36.57749409530399
 30
0.0
  0
VERTEX
  5
89
  8
LAYER_1
 10
167.9363294139749
 20
36.75578470864856
 30
0.0
  0
VERTEX
  5
8A
  8
LAYER_1
 10
168.6823241546486
 20
36.94165026025548
 30
0.0
  0
VERTEX
  5
8B
  8
LAYER_1
 10
169.4257849010723
 20
37.13512593793699
 30
0.0
  0
VERTEX
  5
8C
  8
LAYER_1
 10
170.166838681888
 20
37.33624692950529
 30
0.0
  0
VERTEX
  5
8D
  8
LAYER_1
 10
170.9056125257375
 20
37.5450484227726
 30
0.0
  0
VERTEX
  5
8E
  8
LAYER_1
 10
171.6422334612629
 20
37.76156560555112
 30
0.0
  0
VERTEX
  5
8F
  8
LAYER_1
 10
172.376828517106
 20
37.98583366565306
 30
0.0
  0
VERTEX
  5
90
  8
LAYER_1
 10
173.109524721909
 20
38.21788779089064
 30
0.0
  0
VERTEX
  5
91
  8
LAYER_1
 10
173.8404491043137
 20
38.45776316907605
 30
0.0
  0
VERTEX
  5
92
  8
LAYER_1
 10
174.5697286929621
 20
38.70549498802151
 30
0.0
  0
VERTEX
  5
93
  8
LAYER_1
 10
175.2974905164963
 20
38.96111843553925
 30
0.0
  0
VERTEX
  5
94
  8
LAYER_1
 10
176.023861603558
 20
39.22466869944144
 30
0.0
  0
VERTEX
  5
95
  8
LAYER_1
 10
176.7489689827894
 20
39.49618096754033
 30
0.0
  0
VERTEX
  5
96
  8
LAYER_1
 10
177.4729396828323
 20
39.77569042764809
 30
0.0
  0
VERTEX
  5
97
  8
LAYER_1
 10
178.1959007323288
 20
40.06323226757696
 30
0.0
  0
VERTEX
  5
98
  8
LAYER_1
 10
178.9179791599208
 20
40.35884167513913
 30
0.0
  0
VERTEX
  5
99
  8
LAYER_1
 10
179.6393019942502
 20
40.66255383814683
 30
0.0
  0
VERTEX
  5
9A
  8
LAYER_1
 10
180.3599962639591
 20
40.97440394441224
 30
0.0
  0
VERTEX
  5
9B
  8
LAYER_1
 10
181.0801889976893
 20
41.29442718174761
 30
0.0
  0
VERTEX
  5
9C
  8
LAYER_1
 10
181.8000072240829
 20
41.62265873796512
 30
0.0
  0
VERTEX
  5
9D
  8
LAYER_1
 10
183.9750073105097
 20
42.62708075246812
 30
0.0
  0
VERTEX
  5
9E
  8
LAYER_1
 10
184.8750073462725
 20
43.15762111133654
 30
0.0
  0
VERTEX
  5
9F
  8
LAYER_1
 10
186.3551431033496
 20
43.94122276316642
 30
0.0
  0
VERTEX
  5
A0
  8
LAYER_1
 10
187.0083530797056
 20
44.29327789272125
 30
0.0
  0
VERTEX
  5
A1
  8
LAYER_1
 10
187.6927303820335
 20
44.67257989567008
 30
0.0
  0
VERTEX
  5
A2
  8
LAYER_1
 10
188.3270640696064
 20
45.03354073757887
 30
0.0
  0
VERTEX
  5
A3
  8
LAYER_1
 10
188.8301432016972
 20
45.33057238401356
 30
0.0
  0
VERTEX
  5
A4
  8
LAYER_1
 10
189.8250075429678
 20
45.93632035303085
 30
0.0
  0
VERTEX
  5
A5
  8
LAYER_1
 10
191.7000076174736
 20
47.21867468165252
 30
0.0
  0
VERTEX
  5
A6
  8
LAYER_1
 10
192.5852980663239
 20
47.83109120281141
 30
0.0
  0
VERTEX
  5
A7
  8
LAYER_1
 10
193.4412072297143
 20
48.43766565811173
 30
0.0
  0
VERTEX
  5
A8
  8
LAYER_1
 10
194.275152119561
 20
49.0440094091699
 30
0.0
  0
VERTEX
  5
A9
  8
LAYER_1
 10
195.0945497477805
 20
49.65573381760235
 30
0.0
  0
VERTEX
  5
AA
  8
LAYER_1
 10
195.9068171262892
 20
50.27845024502551
 30
0.0
  0
VERTEX
  5
AB
  8
LAYER_1
 10
196.7193712670035
 20
50.9177700530558
 30
0.0
  0
VERTEX
  5
AC
  8
LAYER_1
 10
197.5396291818397
 20
51.57930460330965
 30
0.0
  0
VERTEX
  5
AD
  8
LAYER_1
 10
198.3750078827143
 20
52.26866525740348
 30
0.0
  0
VERTEX
  5
AE
  8
LAYER_1
 10
200.1750079542398
 20
53.77001654198473
 30
0.0
  0
VERTEX
  5
AF
  8
LAYER_1
 10
205.4393946306846
 20
59.02500234544277
 30
0.0
  0
VERTEX
  5
B0
  8
LAYER_1
 10
207.038025968362
 20
60.95085430567261
 30
0.0
  0
VERTEX
  5
B1
  8
LAYER_1
 10
207.6161837126331
 20
61.65380004306962
 30
0.0
  0
VERTEX
  5
B2
  8
LAYER_1
 10
208.1797861990822
 20
62.35214887292342
 30
0.0
  0
VERTEX
  5
B3
  8
LAYER_1
 10
208.729142989666
 20
63.04634202231657
 30
0.0
  0
VERTEX
  5
B4
  8
LAYER_1
 10
209.2645636463411
 20
63.7368207183316
 30
0.0
  0
VERTEX
  5
B5
  8
LAYER_1
 10
209.7863577310641
 20
64.4240261880511
 30
0.0
  0
VERTEX
  5
B6
  8
LAYER_1
 10
210.2948348057917
 20
65.10839965855763
 30
0.0
  0
VERTEX
  5
B7
  8
LAYER_1
 10
210.7903044324805
 20
65.79038235693372
 30
0.0
  0
VERTEX
  5
B8
  8
LAYER_1
 10
211.2730761730872
 20
66.47041551026196
 30
0.0
  0
VERTEX
  5
B9
  8
LAYER_1
 10
211.7434595895684
 20
67.14894034562488
 30
0.0
  0
VERTEX
  5
BA
  8
LAYER_1
 10
212.2017642438808
 20
67.82639809010506
 30
0.0
  0
VERTEX
  5
BB
  8
LAYER_1
 10
212.648299697981
 20
68.50322997078503
 30
0.0
  0
VERTEX
  5
BC
  8
LAYER_1
 10
213.0833755138255
 20
69.17987721474739
 30
0.0
  0
VERTEX
  5
BD
  8
LAYER_1
 10
213.5073012533712
 20
69.85678104907467
 30
0.0
  0
VERTEX
  5
BE
  8
LAYER_1
 10
213.9203864785745
 20
70.53438270084945
 30
0.0
  0
VERTEX
  5
BF
  8
LAYER_1
 10
214.3229407513921
 20
71.21312339715426
 30
0.0
  0
VERTEX
  5
C0
  8
LAYER_1
 10
214.7152736337808
 20
71.89344436507167
 30
0.0
  0
VERTEX
  5
C1
  8
LAYER_1
 10
215.8500085771084
 20
73.88930498387327
 30
0.0
  0
VERTEX
  5
C2
  8
LAYER_1
 10
215.8500085771084
 20
74.3090101681672
 30
0.0
  0
VERTEX
  5
C3
  8
LAYER_1
 10
215.8450568025086
 20
74.42063456426263
 30
0.0
  0
VERTEX
  5
C4
  8
LAYER_1
 10
215.8304895781963
 20
74.53306866895812
 30
0.0
  0
VERTEX
  5
C5
  8
LAYER_1
 10
215.8067390534023
 20
74.64565250675543
 30
0.0
  0
VERTEX
  5
C6
  8
LAYER_1
 10
215.7742373773575
 20
74.7577261021562
 30
0.0
  0
VERTEX
  5
C7
  8
LAYER_1
 10
215.7334166992926
 20
74.86862947966218
 30
0.0
  0
VERTEX
  5
C8
  8
LAYER_1
 10
215.6847091684384
 20
74.977702663775
 30
0.0
  0
VERTEX
  5
C9
  8
LAYER_1
 10
215.6285469340256
 20
75.08428567899642
 30
0.0
  0
VERTEX
  5
CA
  8
LAYER_1
 10
215.565362145285
 20
75.18771854982812
 30
0.0
  0
VERTEX
  5
CB
  8
LAYER_1
 10
215.4955869514475
 20
75.28734130077177
 30
0.0
  0
VERTEX
  5
CC
  8
LAYER_1
 10
215.4196535017438
 20
75.38249395632911
 30
0.0
  0
VERTEX
  5
CD
  8
LAYER_1
 10
215.3379939454047
 20
75.4725165410018
 30
0.0
  0
VERTEX
  5
CE
  8
LAYER_1
 10
215.251040431661
 20
75.55674907929154
 30
0.0
  0
VERTEX
  5
CF
  8
LAYER_1
 10
215.1592251097434
 20
75.63453159570004
 30
0.0
  0
VERTEX
  5
D0
  8
LAYER_1
 10
215.0629801288828
 20
75.70520411472899
 30
0.0
  0
VERTEX
  5
D1
  8
LAYER_1
 10
214.9627376383099
 20
75.76810666088006
 30
0.0
  0
VERTEX
  5
D2
  8
LAYER_1
 10
214.8589297872556
 20
75.822579258655
 30
0.0
  0
VERTEX
  5
D3
  8
LAYER_1
 10
214.379669781924
 20
76.05000302195549
 30
0.0
  0
VERTEX
  5
D4
  8
LAYER_1
 10
199.1851099368396
 20
76.05000302195549
 30
0.0
  0
VERTEX
  5
D5
  8
LAYER_1
 10
198.7503129027222
 20
76.27484530662566
 30
0.0
  0
VERTEX
  5
D6
  8
LAYER_1
 10
198.6543939000423
 20
76.3312568328841
 30
0.0
  0
VERTEX
  5
D7
  8
LAYER_1
 10
198.548328698777
 20
76.40562259810609
 30
0.0
  0
VERTEX
  5
D8
  8
LAYER_1
 10
198.3197878816964
 20
76.59548861867967
 30
0.0
  0
VERTEX
  5
D9
  8
LAYER_1
 10
198.0927468138927
 20
76.81898691482415
 30
0.0
  0
VERTEX
  5
DA
  8
LAYER_1
 10
197.9885562992235
 20
76.93539302450979
 30
0.0
  0
VERTEX
  5
DB
  8
LAYER_1
 10
197.8952618577781
 20
77.05066103301733
 30
0.0
  0
VERTEX
  5
DC
  8
LAYER_1
 10
197.4750078469515
 20
77.60163447473882
 30
0.0
  0
VERTEX
  5
DD
  8
LAYER_1
 10
197.3867816788953
 20
147.0750058442354
 30
0.0
  0
VERTEX
  5
DE
  8
LAYER_1
 10
197.6247067463954
 20
147.5303657381231
 30
0.0
  0
VERTEX
  5
DF
  8
LAYER_1
 10
197.743221395086
 20
147.724504426161
 30
0.0
  0
VERTEX
  5
E0
  8
LAYER_1
 10
197.8900278113006
 20
147.9164829522308
 30
0.0
  0
VERTEX
  5
E1
  8
LAYER_1
 10
198.0464519712851
 20
148.0841528779522
 30
0.0
  0
VERTEX
  5
E2
  8
LAYER_1
 10
198.1224350727678
 20
148.1519507286885
 30
0.0
  0
VERTEX
  5
E3
  8
LAYER_1
 10
198.1938198512852
 20
148.2053657649452
 30
0.0
  0
VERTEX
  5
E4
  8
LAYER_1
 10
198.5250078886747
 20
148.4250058978796
 30
0.0
  0
VERTEX
  5
E5
  8
LAYER_1
 10
212.9250084608793
 20
148.5750059038401
 30
0.0
  0
VERTEX
  5
E6
  8
LAYER_1
 10
213.7181598092982
 20
148.9334086549093
 30
0.0
  0
VERTEX
  5
E7
  8
LAYER_1
 10
213.8932438600845
 20
149.0193688164049
 30
0.0
  0
VERTEX
  5
E8
  8
LAYER_1
 10
214.0681938408869
 20
149.1185011193036
 30
0.0
  0
VERTEX
  5
E9
  8
LAYER_1
 10
214.2418861792773
 20
149.229613105328
 30
0.0
  0
VERTEX
  5
EA
  8
LAYER_1
 10
214.4131973028273
 20
149.3515123162005
 30
0.0
  0
VERTEX
  5
EB
  8
LAYER_1
 10
214.5810036391087
 20
149.4830062936438
 30
0.0
  0
VERTEX
  5
EC
  8
LAYER_1
 10
214.7441816156932
 20
149.6229025793802
 30
0.0
  0
VERTEX
  5
ED
  8
LAYER_1
 10
214.9016076601525
 20
149.7700087151323
 30
0.0
  0
VERTEX
  5
EE
  8
LAYER_1
 10
215.0521582000583
 20
149.9231322426227
 30
0.0
  0
VERTEX
  5
EF
  8
LAYER_1
 10
215.1947096629824
 20
150.0810807035738
 30
0.0
  0
VERTEX
  5
F0
  8
LAYER_1
 10
215.3281384764964
 20
150.2426616397082
 30
0.0
  0
VERTEX
  5
F1
  8
LAYER_1
 10
215.4513210681722
 20
150.4066825927484
 30
0.0
  0
VERTEX
  5
F2
  8
LAYER_1
 10
215.5631338655814
 20
150.5719511044168
 30
0.0
  0
VERTEX
  5
F3
  8
LAYER_1
 10
215.6624532962957
 20
150.737274716436
 30
0.0
  0
VERTEX
  5
F4
  8
LAYER_1
 10
215.748155787887
 20
150.9014609705286
 30
0.0
  0
VERTEX
  5
F5
  8
LAYER_1
 10
215.8191177679268
 20
151.063317408417
 30
0.0
  0
VERTEX
  5
F6
  8
LAYER_1
 10
215.8742156639869
 20
151.2216515718237
 30
0.0
  0
VERTEX
  5
F7
  8
LAYER_1
 10
215.9514591879909
 20
151.4462157645602
 30
0.0
  0
VERTEX
  5
F8
  8
LAYER_1
 10
216.0336820593785
 20
151.6301144093162
 30
0.0
  0
VERTEX
  5
F9
  8
LAYER_1
 10
216.1110557508201
 20
151.7543702503676
 30
0.0
  0
VERTEX
  5
FA
  8
LAYER_1
 10
216.1448527392706
 20
151.7882017270902
 30
0.0
  0
VERTEX
  5
FB
  8
LAYER_1
 10
216.1737517349861
 20
151.8000060319901
 30
0.0
  0
VERTEX
  5
FC
  8
LAYER_1
 10
216.1991140749302
 20
151.8153136497858
 30
0.0
  0
VERTEX
  5
FD
  8
LAYER_1
 10
216.2227749064094
 20
151.8591857218416
 30
0.0
  0
VERTEX
  5
FE
  8
LAYER_1
 10
216.2442163790214
 20
151.9285460761603
 30
0.0
  0
VERTEX
  5
FF
  8
LAYER_1
 10
216.2629206423637
 20
152.0203185407445
 30
0.0
  0
VERTEX
  5
100
  8
LAYER_1
 10
216.2900461396301
 20
152.2587951127207
 30
0.0
  0
VERTEX
  5
101
  8
LAYER_1
 10
216.3000085949898
 20
152.5500060617924
 30
0.0
  0
VERTEX
  5
102
  8
LAYER_1
 10
216.2881726570195
 20
152.8412170108641
 30
0.0
  0
VERTEX
  5
103
  8
LAYER_1
 10
216.2559460932389
 20
153.0796935828403
 30
0.0
  0
VERTEX
  5
104
  8
LAYER_1
 10
216.2337244126684
 20
153.1714660474245
 30
0.0
  0
VERTEX
  5
105
  8
LAYER_1
 10
216.2082507788436
 20
153.2408264017431
 30
0.0
  0
VERTEX
  5
106
  8
LAYER_1
 10
216.1801404261641
 20
153.2846984737989
 30
0.0
  0
VERTEX
  5
107
  8
LAYER_1
 10
216.1500085890293
 20
153.3000060915947
 30
0.0
  0
VERTEX
  5
108
  8
LAYER_1
 10
216.1198767518945
 20
153.304720342115
 30
0.0
  0
VERTEX
  5
109
  8
LAYER_1
 10
216.091766399215
 20
153.3182315194435
 30
0.0
  0
VERTEX
  5
10A
  8
LAYER_1
 10
216.0440710848197
 20
153.367855209131
 30
0.0
  0
VERTEX
  5
10B
  8
LAYER_1
 10
216.0118445210392
 20
153.4412982698685
 30
0.0
  0
VERTEX
  5
10C
  8
LAYER_1
 10
216.0000085830688
 20
153.5309818108673
 30
0.0
  0
VERTEX
  5
10D
  8
LAYER_1
 10
215.9956629811757
 20
153.6177488202779
 30
0.0
  0
VERTEX
  5
10E
  8
LAYER_1
 10
215.9828450409405
 20
153.7080610408356
 30
0.0
  0
VERTEX
  5
10F
  8
LAYER_1
 10
215.93310533811
 20
153.8979493524498
 30
0.0
  0
VERTEX
  5
110
  8
LAYER_1
 10
215.8534158599091
 20
154.0979032198238
 30
0.0
  0
VERTEX
  5
111
  8
LAYER_1
 10
215.7464029916696
 20
154.3051791170718
 30
0.0
  0
VERTEX
  5
112
  8
LAYER_1
 10
215.6146931187233
 20
154.5170335183078
 30
0.0
  0
VERTEX
  5
113
  8
LAYER_1
 10
215.4609126264019
 20
154.7307228976459
 30
0.0
  0
VERTEX
  5
114
  8
LAYER_1
 10
215.2876879000372
 20
154.9435037292
 30
0.0
  0
VERTEX
  5
115
  8
LAYER_1
 10
215.0976453249609
 20
155.1526324870842
 30
0.0
  0
VERTEX
  5
116
  8
LAYER_1
 10
214.8934112865048
 20
155.3553656454125
 30
0.0
  0
VERTEX
  5
117
  8
LAYER_1
 10
214.6776121700007
 20
155.5489596782991
 30
0.0
  0
VERTEX
  5
118
  8
LAYER_1
 10
214.4528743607805
 20
155.7306710598578
 30
0.0
  0
VERTEX
  5
119
  8
LAYER_1
 10
214.2218242441757
 20
155.8977562642028
 30
0.0
  0
VERTEX
  5
11A
  8
LAYER_1
 10
213.9870882055183
 20
156.0474717654481
 30
0.0
  0
VERTEX
  5
11B
  8
LAYER_1
 10
213.7512926301399
 20
156.1770740377077
 30
0.0
  0
VERTEX
  5
11C
  8
LAYER_1
 10
213.5170639033724
 20
156.2838195550957
 30
0.0
  0
VERTEX
  5
11D
  8
LAYER_1
 10
213.2870284105475
 20
156.3649647917261
 30
0.0
  0
VERTEX
  5
11E
  8
LAYER_1
 10
212.4955580755954
 20
156.6000062227249
 30
0.0
  0
VERTEX
  5
11F
  8
LAYER_1
 10
198.8851099249186
 20
156.6000062227249
 30
0.0
  0
VERTEX
  5
120
  8
LAYER_1
 10
198.4558033014599
 20
156.8220093057
 30
0.0
  0
VERTEX
  5
121
  8
LAYER_1
 10
198.2643946467899
 20
156.9396314404878
 30
0.0
  0
VERTEX
  5
122
  8
LAYER_1
 10
198.060589951144
 20
157.095777795775
 30
0.0
  0
VERTEX
  5
123
  8
LAYER_1
 10
197.8687541705376
 20
157.2700971131293
 30
0.0
  0
VERTEX
  5
124
  8
LAYER_1
 10
197.7132522609862
 20
157.442238134118
 30
0.0
  0
VERTEX
  5
125
  8
LAYER_1
 10
197.4000078439713
 20
157.8404638795608
 30
0.0
  0
VERTEX
  5
126
  8
LAYER_1
 10
197.4000078439713
 20
228.4500090777874
 30
0.0
  0
VERTEX
  5
127
  8
LAYER_1
 10
214.364906496161
 20
228.4500090777874
 30
0.0
  0
VERTEX
  5
128
  8
LAYER_1
 10
214.7983518802967
 20
228.6741523970872
 30
0.0
  0
VERTEX
  5
129
  8
LAYER_1
 10
214.978443032007
 20
228.7779814775469
 30
0.0
  0
VERTEX
  5
12A
  8
LAYER_1
 10
215.1385876703306
 20
228.8926052419473
 30
0.0
  0
VERTEX
  5
12B
  8
LAYER_1
 10
215.2787069871186
 20
229.017546097751
 30
0.0
  0
VERTEX
  5
12C
  8
LAYER_1
 10
215.3987221742223
 20
229.1523264524205
 30
0.0
  0
VERTEX
  5
12D
  8
LAYER_1
 10
215.4985544234929
 20
229.2964687134185
 30
0.0
  0
VERTEX
  5
12E
  8
LAYER_1
 10
215.5781249267816
 20
229.4494952882075
 30
0.0
  0
VERTEX
  5
12F
  8
LAYER_1
 10
215.6373548759397
 20
229.6109285842501
 30
0.0
  0
VERTEX
  5
130
  8
LAYER_1
 10
215.6761654628184
 20
229.7802910090088
 30
0.0
  0
VERTEX
  5
131
  8
LAYER_1
 10
215.6944778792689
 20
229.9571049699462
 30
0.0
  0
VERTEX
  5
132
  8
LAYER_1
 10
215.6922133171425
 20
230.140892874525
 30
0.0
  0
VERTEX
  5
133
  8
LAYER_1
 10
215.6692929682903
 20
230.3311771302076
 30
0.0
  0
VERTEX
  5
134
  8
LAYER_1
 10
215.6256380245636
 20
230.5274801444566
 30
0.0
  0
VERTEX
  5
135
  8
LAYER_1
 10
215.5611696778136
 20
230.7293243247346
 30
0.0
  0
VERTEX
  5
136
  8
LAYER_1
 10
215.4758091198916
 20
230.9362320785042
 30
0.0
  0
VERTEX
  5
137
  8
LAYER_1
 10
215.3694775426487
 20
231.147725813228
 30
0.0
  0
VERTEX
  5
138
  8
LAYER_1
 10
215.2420961379362
 20
231.3633279363685
 30
0.0
  0
VERTEX
  5
139
  8
LAYER_1
 10
214.9379993674627
 20
231.8199108025976
 30
0.0
  0
VERTEX
  5
13A
  8
LAYER_1
 10
214.5385846329068
 20
232.3838772555223
 30
0.0
  0
VERTEX
  5
13B
  8
LAYER_1
 10
214.0600878988477
 20
233.0340339044839
 30
0.0
  0
VERTEX
  5
13C
  8
LAYER_1
 10
213.5187451298644
 20
233.7491873588236
 30
0.0
  0
VERTEX
  5
13D
  8
LAYER_1
 10
212.9307922905357
 20
234.5081442278826
 30
0.0
  0
VERTEX
  5
13E
  8
LAYER_1
 10
212.3124653454409
 20
235.2897111210018
 30
0.0
  0
VERTEX
  5
13F
  8
LAYER_1
 10
211.6800002591589
 20
236.0726946475226
 30
0.0
  0
VERTEX
  5
140
  8
LAYER_1
 10
211.0496329962687
 20
236.8359014167861
 30
0.0
  0
VERTEX
  5
141
  8
LAYER_1
 10
210.5042234441519
 20
237.4815621596914
 30
0.0
  0
VERTEX
  5
142
  8
LAYER_1
 10
209.9532945537373
 20
238.1204154692179
 30
0.0
  0
VERTEX
  5
143
  8
LAYER_1
 10
209.3968344443896
 20
238.7524715160249
 30
0.0
  0
VERTEX
  5
144
  8
LAYER_1
 10
208.8348312354734
 20
239.3777404707715
 30
0.0
  0
VERTEX
  5
145
  8
LAYER_1
 10
208.2672730463535
 20
239.996232504117
 30
0.0
  0
VERTEX
  5
146
  8
LAYER_1
 10
207.6941479963946
 20
240.6079577867207
 30
0.0
  0
VERTEX
  5
147
  8
LAYER_1
 10
207.1154442049613
 20
241.2129264892419
 30
0.0
  0
VERTEX
  5
148
  8
LAYER_1
 10
206.5311497914184
 20
241.8111487823397
 30
0.0
  0
VERTEX
  5
149
  8
LAYER_1
 10
205.9412528751305
 20
242.4026348366735
 30
0.0
  0
VERTEX
  5
14A
  8
LAYER_1
 10
205.3457415754624
 20
242.9873948229025
 30
0.0
  0
VERTEX
  5
14B
  8
LAYER_1
 10
204.7446040117787
 20
243.5654389116859
 30
0.0
  0
VERTEX
  5
14C
  8
LAYER_1
 10
204.1378283034442
 20
244.136777273683
 30
0.0
  0
VERTEX
  5
14D
  8
LAYER_1
 10
203.5254025698235
 20
244.7014200795531
 30
0.0
  0
VERTEX
  5
14E
  8
LAYER_1
 10
202.9073149302814
 20
245.2593774999553
 30
0.0
  0
VERTEX
  5
14F
  8
LAYER_1
 10
202.2835535041825
 20
245.8106597055491
 30
0.0
  0
VERTEX
  5
150
  8
LAYER_1
 10
201.6541064108916
 20
246.3552768669935
 30
0.0
  0
VERTEX
  5
151
  8
LAYER_1
 10
201.0189617697733
 20
246.8932391549478
 30
0.0
  0
VERTEX
  5
152
  8
LAYER_1
 10
200.3781077001923
 20
247.4245567400714
 30
0.0
  0
VERTEX
  5
153
  8
LAYER_1
 10
199.7315323215134
 20
247.9492397930234
 30
0.0
  0
VERTEX
  5
154
  8
LAYER_1
 10
199.0792237531012
 20
248.4672984844632
 30
0.0
  0
VERTEX
  5
155
  8
LAYER_1
 10
198.4211701143205
 20
248.9787429850498
 30
0.0
  0
VERTEX
  5
156
  8
LAYER_1
 10
197.7573595245359
 20
249.4835834654428
 30
0.0
  0
VERTEX
  5
157
  8
LAYER_1
 10
197.0877801031121
 20
249.9818300963011
 30
0.0
  0
VERTEX
  5
158
  8
LAYER_1
 10
196.4124199694139
 20
250.4734930482842
 30
0.0
  0
VERTEX
  5
159
  8
LAYER_1
 10
195.7312672428058
 20
250.9585824920512
 30
0.0
  0
VERTEX
  5
15A
  8
LAYER_1
 10
195.0443100426527
 20
251.4371085982615
 30
0.0
  0
VERTEX
  5
15B
  8
LAYER_1
 10
194.3515364883193
 20
251.9090815375742
 30
0.0
  0
VERTEX
  5
15C
  8
LAYER_1
 10
193.6529346991702
 20
252.3745114806486
 30
0.0
  0
VERTEX
  5
15D
  8
LAYER_1
 10
192.9484927945701
 20
252.833408598144
 30
0.0
  0
VERTEX
  5
15E
  8
LAYER_1
 10
192.2381988938837
 20
253.2857830607197
 30
0.0
  0
VERTEX
  5
15F
  8
LAYER_1
 10
191.5220411164757
 20
253.7316450390348
 30
0.0
  0
VERTEX
  5
160
  8
LAYER_1
 10
190.8000075817108
 20
254.1710047037487
 30
0.0
  0
VERTEX
  5
161
  8
LAYER_1
 10
188.6250074952841
 20
255.4793848923732
 30
0.0
  0
VERTEX
  5
162
  8
LAYER_1
 10
185.3979698664404
 20
257.0881554694592
 30
0.0
  0
VERTEX
  5
163
  8
LAYER_1
 10
184.6018377829488
 20
257.4797704591824
 30
0.0
  0
VERTEX
  5
164
  8
LAYER_1
 10
183.8034212152468
 20
257.8619626493869
 30
0.0
  0
VERTEX
  5
165
  8
LAYER_1
 10
183.0027022938343
 20
258.2347373170943
 30
0.0
  0
VERTEX
  5
166
  8
LAYER_1
 10
182.1996631492112
 20
258.5980997393262
 30
0.0
  0
VERTEX
  5
167
  8
LAYER_1
 10
181.3942859118776
 20
258.9520551931044
 30
0.0
  0
VERTEX
  5
168
  8
LAYER_1
 10
180.5865527123333
 20
259.2966089554504
 30
0.0
  0
VERTEX
  5
169
  8
LAYER_1
 10
179.7764456810785
 20
259.631766303386
 30
0.0
  0
VERTEX
  5
16A
  8
LAYER_1
 10
178.9639469486129
 20
259.9575325139328
 30
0.0
  0
VERTEX
  5
16B
  8
LAYER_1
 10
178.1490386454367
 20
260.2739128641124
 30
0.0
  0
VERTEX
  5
16C
  8
LAYER_1
 10
177.3317029020498
 20
260.5809126309464
 30
0.0
  0
VERTEX
  5
16D
  8
LAYER_1
 10
176.5119218489521
 20
260.8785370914566
 30
0.0
  0
VERTEX
  5
16E
  8
LAYER_1
 10
175.6896776166436
 20
261.1667915226645
 30
0.0
  0
VERTEX
  5
16F
  8
LAYER_1
 10
174.8649523356244
 20
261.4456812015918
 30
0.0
  0
VERTEX
  5
170
  8
LAYER_1
 10
174.0377281363943
 20
261.7152114052603
 30
0.0
  0
VERTEX
  5
171
  8
LAYER_1
 10
173.2079871494534
 20
261.9753874106915
 30
0.0
  0
VERTEX
  5
172
  8
LAYER_1
 10
172.3757115053017
 20
262.226214494907
 30
0.0
  0
VERTEX
  5
173
  8
LAYER_1
 10
171.540883334439
 20
262.4676979349285
 30
0.0
  0
VERTEX
  5
174
  8
LAYER_1
 10
170.7034847673654
 20
262.6998430077779
 30
0.0
  0
VERTEX
  5
175
  8
LAYER_1
 10
169.8634979345808
 20
262.9226549904765
 30
0.0
  0
VERTEX
  5
176
  8
LAYER_1
 10
169.0209049665852
 20
263.136139160046
 30
0.0
  0
VERTEX
  5
177
  8
LAYER_1
 10
168.1756879938787
 20
263.3403007935082
 30
0.0
  0
VERTEX
  5
178
  8
LAYER_1
 10
167.327829146961
 20
263.5351451678847
 30
0.0
  0
VERTEX
  5
179
  8
LAYER_1
 10
166.4773105563323
 20
263.7206775601971
 30
0.0
  0
VERTEX
  5
17A
  8
LAYER_1
 10
165.6241143524925
 20
263.8969032474672
 30
0.0
  0
VERTEX
  5
17B
  8
LAYER_1
 10
164.7682226659416
 20
264.0638275067165
 30
0.0
  0
VERTEX
  5
17C
  8
LAYER_1
 10
163.9096176271796
 20
264.2214556149667
 30
0.0
  0
VERTEX
  5
17D
  8
LAYER_1
 10
163.0482813667063
 20
264.3697928492394
 30
0.0
  0
VERTEX
  5
17E
  8
LAYER_1
 10
162.1841960150219
 20
264.5088444865563
 30
0.0
  0
VERTEX
  5
17F
  8
LAYER_1
 10
161.3173437026262
 20
264.638615803939
 30
0.0
  0
VERTEX
  5
180
  8
LAYER_1
 10
160.4477065600192
 20
264.7591120784093
 30
0.0
  0
VERTEX
  5
181
  8
LAYER_1
 10
159.575266717701
 20
264.8703385869886
 30
0.0
  0
VERTEX
  5
182
  8
LAYER_1
 10
158.7000063061714
 20
264.9723006066989
 30
0.0
  0
VERTEX
  5
183
  8
LAYER_1
 10
156.6750062257051
 20
265.1971227964562
 30
0.0
  0
VERTEX
  5
184
  8
LAYER_1
 10
155.8875061944127
 20
265.1985666672787
 30
0.0
  0
VERTEX
  5
185
  8
LAYER_1
 10
155.5817346978874
 20
265.2109632332168
 30
0.0
  0
VERTEX
  5
186
  8
LAYER_1
 10
155.3313342973124
 20
265.243648902798
 30
0.0
  0
VERTEX
  5
187
  8
LAYER_1
 10
155.234973209499
 20
265.2660472601401
 30
0.0
  0
VERTEX
  5
188
  8
LAYER_1
 10
155.1621448374644
 20
265.2916544238153
 30
0.0
  0
VERTEX
  5
189
  8
LAYER_1
 10
155.1160791618058
 20
265.3198492372977
 30
0.0
  0
VERTEX
  5
18A
  8
LAYER_1
 10
155.1000061631203
 20
265.3500105440617
 30
0.0
  0
VERTEX
  5
18B
  8
LAYER_1
 10
155.1000061631203
 20
265.5000105500221
 30
0.0
  0
VERTEX
  5
18C
  8
LAYER_1
 10
145.650005787611
 20
265.5000105500221
 30
0.0
  0
VERTEX
  5
18D
  8
LAYER_1
 10
145.650005787611
 20
265.2640696726012
 30
0.0
  0
VERTEX
  5
18E
  8
LAYER_1
 10
143.4375056996942
 20
265.0839068753579
 30
0.0
  0
VERTEX
  5
18F
  8
LAYER_1
 10
142.5215384123618
 20
265.0028836398156
 30
0.0
  0
VERTEX
  5
190
  8
LAYER_1
 10
141.6023737418672
 20
264.9087732096991
 30
0.0
  0
VERTEX
  5
191
  8
LAYER_1
 10
140.6803370027813
 20
264.8016712308257
 30
0.0
  0
VERTEX
  5
192
  8
LAYER_1
 10
139.7557535096755
 20
264.681673349013
 30
0.0
  0
VERTEX
  5
193
  8
LAYER_1
 10
138.8289485771209
 20
264.5488752100783
 30
0.0
  0
VERTEX
  5
194
  8
LAYER_1
 10
137.9002475196886
 20
264.4033724598393
 30
0.0
  0
VERTEX
  5
195
  8
LAYER_1
 10
136.9699756519499
 20
264.2452607441134
 30
0.0
  0
VERTEX
  5
196
  8
LAYER_1
 10
136.0384582884758
 20
264.0746357087181
 30
0.0
  0
VERTEX
  5
197
  8
LAYER_1
 10
135.1060207438376
 20
263.8915929994707
 30
0.0
  0
VERTEX
  5
198
  8
LAYER_1
 10
134.1729883326065
 20
263.6962282621889
 30
0.0
  0
VERTEX
  5
199
  8
LAYER_1
 10
133.2396863693536
 20
263.4886371426899
 30
0.0
  0
VERTEX
  5
19A
  8
LAYER_1
 10
132.3064401686502
 20
263.2689152867914
 30
0.0
  0
VERTEX
  5
19B
  8
LAYER_1
 10
131.3735750450674
 20
263.0371583403109
 30
0.0
  0
VERTEX
  5
19C
  8
LAYER_1
 10
130.4414163131763
 20
262.7934619490657
 30
0.0
  0
VERTEX
  5
19D
  8
LAYER_1
 10
129.5102892875481
 20
262.5379217588733
 30
0.0
  0
VERTEX
  5
19E
  8
LAYER_1
 10
128.580519282754
 20
262.2706334155513
 30
0.0
  0
VERTEX
  5
19F
  8
LAYER_1
 10
127.6524316133653
 20
261.9916925649171
 30
0.0
  0
VERTEX
  5
1A0
  8
LAYER_1
 10
126.726351593953
 20
261.7011948527881
 30
0.0
  0
VERTEX
  5
1A1
  8
LAYER_1
 10
125.8026045390883
 20
261.3992359249819
 30
0.0
  0
VERTEX
  5
1A2
  8
LAYER_1
 10
124.8815157633424
 20
261.0859114273159
 30
0.0
  0
VERTEX
  5
1A3
  8
LAYER_1
 10
123.9634105812866
 20
260.7613170056076
 30
0.0
  0
VERTEX
  5
1A4
  8
LAYER_1
 10
123.0486143074919
 20
260.4255483056744
 30
0.0
  0
VERTEX
  5
1A5
  8
LAYER_1
 10
122.1374522565295
 20
260.0787009733339
 30
0.0
  0
VERTEX
  5
1A6
  8
LAYER_1
 10
121.2302497429707
 20
259.7208706544034
 30
0.0
  0
VERTEX
  5
1A7
  8
LAYER_1
 10
120.3273320813865
 20
259.3521529947005
 30
0.0
  0
VERTEX
  5
1A8
  8
LAYER_1
 10
119.4290245863482
 20
258.9726436400427
 30
0.0
  0
VERTEX
  5
1A9
  8
LAYER_1
 10
118.535652572427
 20
258.5824382362475
 30
0.0
  0
VERTEX
  5
1AA
  8
LAYER_1
 10
117.6475413541939
 20
258.1816324291322
 30
0.0
  0
VERTEX
  5
1AB
  8
LAYER_1
 10
116.7650162462203
 20
257.7703218645144
 30
0.0
  0
VERTEX
  5
1AC
  8
LAYER_1
 10
115.8884025630772
 20
257.3486021882115
 30
0.0
  0
VERTEX
  5
1AD
  8
LAYER_1
 10
115.0180256193359
 20
256.916569046041
 30
0.0
  0
VERTEX
  5
1AE
  8
LAYER_1
 10
114.1542107295675
 20
256.4743180838205
 30
0.0
  0
VERTEX
  5
1AF
  8
LAYER_1
 10
113.1813964123194
 20
255.9604055167408
 30
0.0
  0
VERTEX
  5
1B0
  8
LAYER_1
 10
112.2208266153612
 20
255.4364670130886
 30
0.0
  0
VERTEX
  5
1B1
  8
LAYER_1
 10
111.2716676910769
 20
254.9019451169728
 30
0.0
  0
VERTEX
  5
1B2
  8
LAYER_1
 10
110.3330859918503
 20
254.3562823725023
 30
0.0
  0
VERTEX
  5
1B3
  8
LAYER_1
 10
109.4042478700653
 20
253.798921323786
 30
0.0
  0
VERTEX
  5
1B4
  8
LAYER_1
 10
108.4843196781059
 20
253.2293045149327
 30
0.0
  0
VERTEX
  5
1B5
  8
LAYER_1
 10
107.572467768356
 20
252.6468744900514
 30
0.0
  0
VERTEX
  5
1B6
  8
LAYER_1
 10
106.6678584931995
 20
252.0510737932509
 30
0.0
  0
VERTEX
  5
1B7
  8
LAYER_1
 10
105.7696582050203
 20
251.4413449686401
 30
0.0
  0
VERTEX
  5
1B8
  8
LAYER_1
 10
104.8770332562023
 20
250.8171305603278
 30
0.0
  0
VERTEX
  5
1B9
  8
LAYER_1
 10
103.9891499991295
 20
250.177873112423
 30
0.0
  0
VERTEX
  5
1BA
  8
LAYER_1
 10
103.1051747861857
 20
249.5230151690346
 30
0.0
  0
VERTEX
  5
1BB
  8
LAYER_1
 10
102.2242739697549
 20
248.8519992742715
 30
0.0
  0
VERTEX
  5
1BC
  8
LAYER_1
 10
101.345613902221
 20
248.1642679722424
 30
0.0
  0
VERTEX
  5
1BD
  8
LAYER_1
 10
100.4683609359679
 20
247.4592638070563
 30
0.0
  0
VERTEX
  5
1BE
  8
LAYER_1
 10
99.59168142337954
 20
246.7364293228221
 30
0.0
  0
VERTEX
  5
1BF
  8
LAYER_1
 10
97.72500388324261
 20
245.1779335981638
 30
0.0
  0
VERTEX
  5
1C0
  8
LAYER_1
 10
91.84949141935105
 20
239.3250095099211
 30
0.0
  0
VERTEX
  5
1C1
  8
LAYER_1
 10
90.38072321170323
 20
237.6000094413757
 30
0.0
  0
VERTEX
  5
1C2
  8
LAYER_1
 10
89.66409009949737
 20
236.7356184895016
 30
0.0
  0
VERTEX
  5
1C3
  8
LAYER_1
 10
88.79862277718938
 20
235.6572551811094
 30
0.0
  0
VERTEX
  5
1C4
  8
LAYER_1
 10
87.89336860927949
 20
234.5024462522194
 30
0.0
  0
VERTEX
  5
1C5
  8
LAYER_1
 10
87.05737496026792
 20
233.4087184388519
 30
0.0
  0
VERTEX
  5
1C6
  8
LAYER_1
 10
85.20279491648043
 20
230.9424275048735
 30
0.0
  0
VERTEX
  5
1C7
  8
LAYER_1
 10
85.10923654706752
 20
230.4437185205787
 30
0.0
  0
VERTEX
  5
1C8
  8
LAYER_1
 10
85.09087191470388
 20
230.3187597684685
 30
0.0
  0
VERTEX
  5
1C9
  8
LAYER_1
 10
85.08238902814429
 20
230.1935916142941
 30
0.0
  0
VERTEX
  5
1CA
  8
LAYER_1
 10
85.08354116930454
 20
230.0687740207494
 30
0.0
  0
VERTEX
  5
1CB
  8
LAYER_1
 10
85.09408162010041
 20
229.9448669505284
 30
0.0
  0
VERTEX
  5
1CC
  8
LAYER_1
 10
85.11376366244764
 20
229.8224303663251
 30
0.0
  0
VERTEX
  5
1CD
  8
LAYER_1
 10
85.14234057826198
 20
229.7020242308335
 30
0.0
  0
VERTEX
  5
1CE
  8
LAYER_1
 10
85.1795656494592
 20
229.5842085067475
 30
0.0
  0
VERTEX
  5
1CF
  8
LAYER_1
 10
85.22519215795509
 20
229.4695431567611
 30
0.0
  0
VERTEX
  5
1D0
  8
LAYER_1
 10
85.2789733856654
 20
229.3585881435683
 30
0.0
  0
VERTEX
  5
1D1
  8
LAYER_1
 10
85.34066261450587
 20
229.2519034298631
 30
0.0
  0
VERTEX
  5
1D2
  8
LAYER_1
 10
85.41001312639229
 20
229.1500489783394
 30
0.0
  0
VERTEX
  5
1D3
  8
LAYER_1
 10
85.4867782032404
 20
229.0535847516913
 30
0.0
  0
VERTEX
  5
1D4
  8
LAYER_1
 10
85.57071112696599
 20
228.9630707126127
 30
0.0
  0
VERTEX
  5
1D5
  8
LAYER_1
 10
85.66156517948481
 20
228.8790668237976
 30
0.0
  0
VERTEX
  5
1D6
  8
LAYER_1
 10
85.75909364271263
 20
228.8021330479399
 30
0.0
  0
VERTEX
  5
1D7
  8
LAYER_1
 10
85.8630497985652
 20
228.7328293477337
 30
0.0
  0
VERTEX
  5
1D8
  8
LAYER_1
 10
86.3250034302473
 20
228.4511304959613
 30
0.0
  0
VERTEX
  5
1D9
  8
LAYER_1
 10
103.5000041127205
 20
228.4500090777874
 30
0.0
  0
VERTEX
  5
1DA
  8
LAYER_1
 10
103.4980273509311
 20
157.1250062435865
 30
0.0
  0
VERTEX
  5
1DB
  8
LAYER_1
 10
103.2205990772493
 20
156.7042463822981
 30
0.0
  0
VERTEX
  5
1DC
  8
LAYER_1
 10
103.0845449581351
 20
156.5208120793455
 30
0.0
  0
VERTEX
  5
1DD
  8
LAYER_1
 10
102.9191846188021
 20
156.3324016816376
 30
0.0
  0
VERTEX
  5
1DE
  8
LAYER_1
 10
102.7454035975833
 20
156.1611636275544
 30
0.0
  0
VERTEX
  5
1DF
  8
LAYER_1
 10
102.584087432812
 20
156.029246355476
 30
0.0
  0
VERTEX
  5
1E0
  8
LAYER_1
 10
102.2250040620565
 20
155.7750061899424
 30
0.0
  0
VERTEX
  5
1E1
  8
LAYER_1
 10
86.7750034481287
 20
155.6250061839819
 30
0.0
  0
VERTEX
  5
1E2
  8
LAYER_1
 10
86.15483544052172
 20
155.2932997262988
 30
0.0
  0
VERTEX
  5
1E3
  8
LAYER_1
 10
85.8893225464078
 20
155.1403666917328
 30
0.0
  0
VERTEX
  5
1E4
  8
LAYER_1
 10
85.64020524379904
 20
154.9748998173137
 30
0.0
  0
VERTEX
  5
1E5
  8
LAYER_1
 10
85.40751032911975
 20
154.7977165827283
 30
0.0
  0
VERTEX
  5
1E6
  8
LAYER_1
 10
85.1912645987942
 20
154.6096344676631
 30
0.0
  0
VERTEX
  5
1E7
  8
LAYER_1
 10
84.99149484924669
 20
154.4114709518047
 30
0.0
  0
VERTEX
  5
1E8
  8
LAYER_1
 10
84.8082278769015
 20
154.20404351484
 30
0.0
  0
VERTEX
  5
1E9
  8
LAYER_1
 10
84.64149047818293
 20
153.9881696364554
 30
0.0
  0
VERTEX
  5
1EA
  8
LAYER_1
 10
84.49130944951526
 20
153.7646667963376
 30
0.0
  0
VERTEX
  5
1EB
  8
LAYER_1
 10
84.35771158732277
 20
153.5343524741733
 30
0.0
  0
VERTEX
  5
1EC
  8
LAYER_1
 10
84.24072368802979
 20
153.2980441496492
 30
0.0
  0
VERTEX
  5
1ED
  8
LAYER_1
 10
84.14037254806055
 20
153.0565593024519
 30
0.0
  0
VERTEX
  5
1EE
  8
LAYER_1
 10
84.05668496383937
 20
152.810715412268
 30
0.0
  0
VERTEX
  5
1EF
  8
LAYER_1
 10
83.98968773179053
 20
152.5613299587842
 30
0.0
  0
VERTEX
  5
1F0
  8
LAYER_1
 10
83.93940764833835
 20
152.3092204216871
 30
0.0
  0
VERTEX
  5
1F1
  8
LAYER_1
 10
83.90587150990709
 20
152.0552042806634
 30
0.0
  0
VERTEX
  5
1F2
  8
LAYER_1
 10
83.88910611292104
 20
151.8000990153997
 30
0.0
  0
VERTEX
  5
1F3
  8
LAYER_1
 10
83.8891382538045
 20
151.5447221055827
 30
0.0
  0
VERTEX
  5
1F4
  8
LAYER_1
 10
83.90599472898174
 20
151.289891030899
 30
0.0
  0
VERTEX
  5
1F5
  8
LAYER_1
 10
83.93970233487705
 20
151.0364232710352
 30
0.0
  0
VERTEX
  5
1F6
  8
LAYER_1
 10
83.99028786791473
 20
150.7851363056781
 30
0.0
  0
VERTEX
  5
1F7
  8
LAYER_1
 10
84.05777812451907
 20
150.5368476145142
 30
0.0
  0
VERTEX
  5
1F8
  8
LAYER_1
 10
84.14219990111437
 20
150.2923746772303
 30
0.0
  0
VERTEX
  5
1F9
  8
LAYER_1
 10
84.24357999412489
 20
150.0525349735129
 30
0.0
  0
VERTEX
  5
1FA
  8
LAYER_1
 10
84.36194519997494
 20
149.8181459830487
 30
0.0
  0
VERTEX
  5
1FB
  8
LAYER_1
 10
84.49732231508881
 20
149.5900251855243
 30
0.0
  0
VERTEX
  5
1FC
  8
LAYER_1
 10
84.64973813589077
 20
149.3689900606265
 30
0.0
  0
VERTEX
  5
1FD
  8
LAYER_1
 10
84.81921945880514
 20
149.1558580880418
 30
0.0
  0
VERTEX
  5
1FE
  8
LAYER_1
 10
85.00579308025617
 20
148.9514467474569
 30
0.0
  0
VERTEX
  5
1FF
  8
LAYER_1
 10
85.20948579666818
 20
148.7565735185584
 30
0.0
  0
VERTEX
  5
200
  8
LAYER_1
 10
85.43032440446544
 20
148.572055881033
 30
0.0
  0
VERTEX
  5
201
  8
LAYER_1
 10
85.66833570007225
 20
148.3987113145674
 30
0.0
  0
VERTEX
  5
202
  8
LAYER_1
 10
85.92354647991289
 20
148.2373572988481
 30
0.0
  0
VERTEX
  5
203
  8
LAYER_1
 10
86.62500344216824
 20
147.8250058740377
 30
0.0
  0
VERTEX
  5
204
  8
LAYER_1
 10
102.0887461641512
 20
147.6750058680773
 30
0.0
  0
VERTEX
  5
205
  8
LAYER_1
 10
102.5015362676946
 20
147.4043557506186
 30
0.0
  0
VERTEX
  5
206
  8
LAYER_1
 10
102.590422535153
 20
147.3402042444377
 30
0.0
  0
VERTEX
  5
207
  8
LAYER_1
 10
102.6848774987789
 20
147.2614436806782
 30
0.0
  0
VERTEX
  5
208
  8
LAYER_1
 10
102.8789259883077
 20
147.0724000684124
 30
0.0
  0
VERTEX
  5
209
  8
LAYER_1
 10
103.060546683829
 20
146.8618342897991
 30
0.0
  0
VERTEX
  5
20A
  8
LAYER_1
 10
103.1394669049456
 20
146.7561710181053
 30
0.0
  0
VERTEX
  5
20B
  8
LAYER_1
 10
103.206604532891
 20
146.6543557208163
 30
0.0
  0
VERTEX
  5
20C
  8
LAYER_1
 10
103.4988826945442
 20
146.1750058084726
 30
0.0
  0
VERTEX
  5
20D
  8
LAYER_1
 10
103.5000041127205
 20
77.6703418231022
 30
0.0
  0
VERTEX
  5
20E
  8
LAYER_1
 10
103.249509408939
 20
77.14246341968446
 30
0.0
  0
VERTEX
  5
20F
  8
LAYER_1
 10
103.1897607059599
 20
77.03067362417308
 30
0.0
  0
VERTEX
  5
210
  8
LAYER_1
 10
103.1157919045976
 20
76.91526785281457
 30
0.0
  0
VERTEX
  5
211
  8
LAYER_1
 10
103.0305253682493
 20
76.79956676625757
 30
0.0
  0
VERTEX
  5
212
  8
LAYER_1
 10
102.9368834603124
 20
76.68689102515079
 30
0.0
  0
VERTEX
  5
213
  8
LAYER_1
 10
102.8377885441843
 20
76.58056129014287
 30
0.0
  0
VERTEX
  5
214
  8
LAYER_1
 10
102.7361629832625
 20
76.48389822188247
 30
0.0
  0
VERTEX
  5
215
  8
LAYER_1
 10
102.6349291409442
 20
76.40022248101829
 30
0.0
  0
VERTEX
  5
216
  8
LAYER_1
 10
102.5370093806268
 20
76.33285472819898
 30
0.0
  0
VERTEX
  5
217
  8
LAYER_1
 10
102.0750040560961
 20
76.05112444013123
 30
0.0
  0
VERTEX
  5
218
  8
LAYER_1
 10
86.54036784953654
 20
76.05000302195549
 30
0.0
  0
VERTEX
  5
219
  8
LAYER_1
 10
86.03978950431505
 20
75.84084803467488
 30
0.0
  0
VERTEX
  5
21A
  8
LAYER_1
 10
85.92030358906605
 20
75.78670534272914
 30
0.0
  0
VERTEX
  5
21B
  8
LAYER_1
 10
85.80845474280106
 20
75.72732419438185
 30
0.0
  0
VERTEX
  5
21C
  8
LAYER_1
 10
85.70425285880788
 20
75.66271944853261
 30
0.0
  0
VERTEX
  5
21D
  8
LAYER_1
 10
85.60770783037432
 20
75.59290596408107
 30
0.0
  0
VERTEX
  5
21E
  8
LAYER_1
 10
85.5188295507882
 20
75.51789859992684
 30
0.0
  0
VERTEX
  5
21F
  8
LAYER_1
 10
85.43762791333728
 20
75.43771221496951
 30
0.0
  0
VERTEX
  5
220
  8
LAYER_1
 10
85.36411281130943
 20
75.35236166810877
 30
0.0
  0
VERTEX
  5
221
  8
LAYER_1
 10
85.2982941379924
 20
75.2618618182442
 30
0.0
  0
VERTEX
  5
222
  8
LAYER_1
 10
85.24018178667403
 20
75.16622752427544
 30
0.0
  0
VERTEX
  5
223
  8
LAYER_1
 10
85.18978565064212
 20
75.06547364510212
 30
0.0
  0
VERTEX
  5
224
  8
LAYER_1
 10
85.14711562318448
 20
74.95961503962386
 30
0.0
  0
VERTEX
  5
225
  8
LAYER_1
 10
85.11218159758889
 20
74.84866656674028
 30
0.0
  0
VERTEX
  5
226
  8
LAYER_1
 10
85.08499346714316
 20
74.73264308535101
 30
0.0
  0
VERTEX
  5
227
  8
LAYER_1
 10
85.06556112513515
 20
74.61155945435567
 30
0.0
  0
VERTEX
  5
228
  8
LAYER_1
 10
85.05389446485262
 20
74.4854305326539
 30
0.0
  0
VERTEX
  5
229
  8
LAYER_1
 10
85.05000337958336
 20
74.3542711791453
 30
0.0
  0
VERTEX
  5
22A
  8
LAYER_1
 10
85.05000337958336
 20
73.77529125373248
 30
0.0
  0
VERTEX
  5
22B
  8
LAYER_1
 10
85.97093589370284
 20
72.17514702906551
 30
0.0
  0
VERTEX
  5
22C
  8
LAYER_1
 10
86.5233217103795
 20
71.23079574286032
 30
0.0
  0
VERTEX
  5
22D
  8
LAYER_1
 10
87.0881515694364
 20
70.29563443314811
 30
0.0
  0
VERTEX
  5
22E
  8
LAYER_1
 10
87.66530056710161
 20
69.36979749601429
 30
0.0
  0
VERTEX
  5
22F
  8
LAYER_1
 10
88.25464379960322
 20
68.45341932754418
 30
0.0
  0
VERTEX
  5
230
  8
LAYER_1
 10
88.8560563631693
 20
67.54663432382316
 30
0.0
  0
VERTEX
  5
231
  8
LAYER_1
 10
89.46941335402792
 20
66.64957688093654
 30
0.0
  0
VERTEX
  5
232
  8
LAYER_1
 10
90.09458986840717
 20
65.76238139496971
 30
0.0
  0
VERTEX
  5
233
  8
LAYER_1
 10
90.73146100253513
 20
64.88518226200802
 30
0.0
  0
VERTEX
  5
234
  8
LAYER_1
 10
91.37990185263988
 20
64.0181138781368
 30
0.0
  0
VERTEX
  5
235
  8
LAYER_1
 10
92.03978751494945
 20
63.16131063944144
 30
0.0
  0
VERTEX
  5
236
  8
LAYER_1
 10
92.71099308569197
 20
62.31490694200727
 30
0.0
  0
VERTEX
  5
237
  8
LAYER_1
 10
93.39339366109553
 20
61.47903718191965
 30
0.0
  0
VERTEX
  5
238
  8
LAYER_1
 10
94.08686433738815
 20
60.65383575526393
 30
0.0
  0
VERTEX
  5
239
  8
LAYER_1
 10
94.79128021079795
 20
59.83943705812545
 30
0.0
  0
VERTEX
  5
23A
  8
LAYER_1
 10
95.50651637755298
 20
59.03597548658959
 30
0.0
  0
VERTEX
  5
23B
  8
LAYER_1
 10
96.23244793388136
 20
58.24358543674169
 30
0.0
  0
VERTEX
  5
23C
  8
LAYER_1
 10
96.96894997601113
 20
57.4624013046671
 30
0.0
  0
VERTEX
  5
23D
  8
LAYER_1
 10
97.71589760017036
 20
56.69255748645118
 30
0.0
  0
VERTEX
  5
23E
  8
LAYER_1
 10
98.47316590258714
 20
55.93418837817929
 30
0.0
  0
VERTEX
  5
23F
  8
LAYER_1
 10
99.24062997948958
 20
55.18742837593676
 30
0.0
  0
VERTEX
  5
240
  8
LAYER_1
 10
100.0181649271057
 20
54.45241187580896
 30
0.0
  0
VERTEX
  5
241
  8
LAYER_1
 10
100.8056458416636
 20
53.72927327388125
 30
0.0
  0
VERTEX
  5
242
  8
LAYER_1
 10
101.6029478193914
 20
53.01814696623898
 30
0.0
  0
VERTEX
  5
243
  8
LAYER_1
 10
102.4099459565172
 20
52.31916734896749
 30
0.0
  0
VERTEX
  5
244
  8
LAYER_1
 10
103.2265153492689
 20
51.63246881815214
 30
0.0
  0
VERTEX
  5
245
  8
LAYER_1
 10
104.0525310938747
 20
50.95818576987829
 30
0.0
  0
VERTEX
  5
246
  8
LAYER_1
 10
104.8878682865628
 20
50.29645260023129
 30
0.0
  0
VERTEX
  5
247
  8
LAYER_1
 10
105.732402023561
 20
49.6474037052965
 30
0.0
  0
VERTEX
  5
248
  8
LAYER_1
 10
106.5860074010976
 20
49.01117348115926
 30
0.0
  0
VERTEX
  5
249
  8
LAYER_1
 10
107.4485595154006
 20
48.38789632390493
 30
0.0
  0
VERTEX
  5
24A
  8
LAYER_1
 10
108.3199334626981
 20
47.77770662961886
 30
0.0
  0
VERTEX
  5
24B
  8
LAYER_1
 10
109.2000043392181
 20
47.18073879438639
 30
0.0
  0
VERTEX
  5
24C
  8
LAYER_1
 10
110.1451102897538
 20
46.56047942781041
 30
0.0
  0
VERTEX
  5
24D
  8
LAYER_1
 10
111.100238880955
 20
45.95464403933501
 30
0.0
  0
VERTEX
  5
24E
  8
LAYER_1
 10
112.0650855609143
 20
45.36334241245077
 30
0.0
  0
VERTEX
  5
24F
  8
LAYER_1
 10
113.039345777724
 20
44.78668433064824
 30
0.0
  0
VERTEX
  5
250
  8
LAYER_1
 10
114.0227149794765
 20
44.224779577418
 30
0.0
  0
VERTEX
  5
251
  8
LAYER_1
 10
115.0148886142641
 20
43.67773793625061
 30
0.0
  0
VERTEX
  5
252
  8
LAYER_1
 10
116.0155621301793
 20
43.14566919063662
 30
0.0
  0
VERTEX
  5
253
  8
LAYER_1
 10
117.0244309753145
 20
42.62868312406662
 30
0.0
  0
VERTEX
  5
254
  8
LAYER_1
 10
118.041190597762
 20
42.12688952003115
 30
0.0
  0
VERTEX
  5
255
  8
LAYER_1
 10
119.0655364456142
 20
41.64039816202077
 30
0.0
  0
VERTEX
  5
256
  8
LAYER_1
 10
120.0971639669635
 20
41.16931883352606
 30
0.0
  0
VERTEX
  5
257
  8
LAYER_1
 10
121.1357686099022
 20
40.71376131803758
 30
0.0
  0
VERTEX
  5
258
  8
LAYER_1
 10
122.1810458225229
 20
40.27383539904589
 30
0.0
  0
VERTEX
  5
259
  8
LAYER_1
 10
123.2326910529178
 20
39.84965086004156
 30
0.0
  0
VERTEX
  5
25A
  8
LAYER_1
 10
124.2903997491794
 20
39.44131748451515
 30
0.0
  0
VERTEX
  5
25B
  8
LAYER_1
 10
125.3538673593999
 20
39.04894505595722
 30
0.0
  0
VERTEX
  5
25C
  8
LAYER_1
 10
126.4227893316719
 20
38.67264335785833
 30
0.0
  0
VERTEX
  5
25D
  8
LAYER_1
 10
127.4968611140877
 20
38.31252217370906
 30
0.0
  0
VERTEX
  5
25E
  8
LAYER_1
 10
128.5757781547396
 20
37.96869128699996
 30
0.0
  0
VERTEX
  5
25F
  8
LAYER_1
 10
129.6592359017201
 20
37.64126048122159
 30
0.0
  0
VERTEX
  5
260
  8
LAYER_1
 10
130.7469298031216
 20
37.33033953986454
 30
0.0
  0
VERTEX
  5
261
  8
LAYER_1
 10
131.8385553070364
 20
37.03603824641934
 30
0.0
  0
VERTEX
  5
262
  8
LAYER_1
 10
132.9338078615569
 20
36.75846638437658
 30
0.0
  0
VERTEX
  5
263
  8
LAYER_1
 10
134.0323829147756
 20
36.4977337372268
 30
0.0
  0
VERTEX
  5
264
  8
LAYER_1
 10
135.1339759147847
 20
36.25395008846057
 30
0.0
  0
VERTEX
  5
265
  8
LAYER_1
 10
136.2382823096767
 20
36.02722522156847
 30
0.0
  0
VERTEX
  5
266
  8
LAYER_1
 10
137.3449975475439
 20
35.81766892004106
 30
0.0
  0
VERTEX
  5
267
  8
LAYER_1
 10
138.4538170764788
 20
35.62539096736888
 30
0.0
  0
VERTEX
  5
268
  8
LAYER_1
 10
139.5644363445737
 20
35.45050114704252
 30
0.0
  0
VERTEX
  5
269
  8
LAYER_1
 10
140.6765507999211
 20
35.29310924255253
 30
0.0
  0
VERTEX
  5
26A
  8
LAYER_1
 10
141.7898558906132
 20
35.15332503738949
 30
0.0
  0
VERTEX
  5
26B
  8
LAYER_1
 10
142.9040470647425
 20
35.03125831504394
 30
0.0
  0
SEQEND
  5
7C9
  8
LAYER_1
  0
POLYLINE
  5
61
  8
LAYER_1
 66
     1
 10
0.0
 20
0.0
 30
0.0
 70
     1
  0
VERTEX
  5
26C
  8
LAYER_1
 10
133.7008117418541
 20
46.79888117615672
 30
0.0
  0
VERTEX
  5
26D
  8
LAYER_1
 10
133.8052801171652
 20
46.89790144104538
 30
0.0
  0
VERTEX
  5
26E
  8
LAYER_1
 10
133.9061614872202
 20
47.00738647664423
 30
0.0
  0
VERTEX
  5
26F
  8
LAYER_1
 10
134.0010032586325
 20
47.12371673249601
 30
0.0
  0
VERTEX
  5
270
  8
LAYER_1
 10
134.0873528380156
 20
47.24327265814348
 30
0.0
  0
VERTEX
  5
271
  8
LAYER_1
 10
134.1627576319831
 20
47.36243470312937
 30
0.0
  0
VERTEX
  5
272
  8
LAYER_1
 10
134.2247650471481
 20
47.47758331699643
 30
0.0
  0
VERTEX
  5
273
  8
LAYER_1
 10
134.2709224901244
 20
47.5850989492874
 30
0.0
  0
VERTEX
  5
274
  8
LAYER_1
 10
134.2987773675253
 20
47.68136204954502
 30
0.0
  0
VERTEX
  5
275
  8
LAYER_1
 10
134.3279816926109
 20
47.8793256239511
 30
0.0
  0
VERTEX
  5
276
  8
LAYER_1
 10
134.3367387884023
 20
48.07526335939836
 30
0.0
  0
VERTEX
  5
277
  8
LAYER_1
 10
134.3259000517951
 20
48.26792185470022
 30
0.0
  0
VERTEX
  5
278
  8
LAYER_1
 10
134.2963168796855
 20
48.45604770867011
 30
0.0
  0
VERTEX
  5
279
  8
LAYER_1
 10
134.2488406689691
 20
48.63838752012147
 30
0.0
  0
VERTEX
  5
27A
  8
LAYER_1
 10
134.1843228165417
 20
48.81368788786772
 30
0.0
  0
VERTEX
  5
27B
  8
LAYER_1
 10
134.1036147192994
 20
48.98069541072229
 30
0.0
  0
VERTEX
  5
27C
  8
LAYER_1
 10
134.0075677741378
 20
49.13815668749862
 30
0.0
  0
VERTEX
  5
27D
  8
LAYER_1
 10
133.8970333779528
 20
49.28481831701014
 30
0.0
  0
VERTEX
  5
27E
  8
LAYER_1
 10
133.7728629276403
 20
49.41942689807026
 30
0.0
  0
VERTEX
  5
27F
  8
LAYER_1
 10
133.6359078200961
 20
49.54072902949241
 30
0.0
  0
VERTEX
  5
280
  8
LAYER_1
 10
133.4870194522159
 20
49.64747131009004
 30
0.0
  0
VERTEX
  5
281
  8
LAYER_1
 10
133.3270492208958
 20
49.73840033867658
 30
0.0
  0
VERTEX
  5
282
  8
LAYER_1
 10
133.1568485230315
 20
49.81226271406544
 30
0.0
  0
VERTEX
  5
283
  8
LAYER_1
 10
132.9772687555188
 20
49.86780503507006
 30
0.0
  0
VERTEX
  5
284
  8
LAYER_1
 10
132.7891613152537
 20
49.90377390050388
 30
0.0
  0
VERTEX
  5
285
  8
LAYER_1
 10
132.5750100369672
 20
49.92256277454469
 30
0.0
  0
VERTEX
  5
286
  8
LAYER_1
 10
132.3695104207171
 20
49.92081567208063
 30
0.0
  0
VERTEX
  5
287
  8
LAYER_1
 10
132.1733750823794
 20
49.89917821323724
 30
0.0
  0
VERTEX
  5
288
  8
LAYER_1
 10
131.9873166378298
 20
49.85829601814008
 30
0.0
  0
VERTEX
  5
289
  8
LAYER_1
 10
131.8120477029443
 20
49.79881470691467
 30
0.0
  0
VERTEX
  5
28A
  8
LAYER_1
 10
131.6482808935987
 20
49.72137989968657
 30
0.0
  0
VERTEX
  5
28B
  8
LAYER_1
 10
131.4967288256688
 20
49.6266372165813
 30
0.0
  0
VERTEX
  5
28C
  8
LAYER_1
 10
131.3581041150305
 20
49.51523227772441
 30
0.0
  0
VERTEX
  5
28D
  8
LAYER_1
 10
131.2331193775597
 20
49.38781070324145
 30
0.0
  0
VERTEX
  5
28E
  8
LAYER_1
 10
131.1224872291322
 20
49.24501811325795
 30
0.0
  0
VERTEX
  5
28F
  8
LAYER_1
 10
131.0269202856238
 20
49.08750012789945
 30
0.0
  0
VERTEX
  5
290
  8
LAYER_1
 10
130.9471311629106
 20
48.91590236729151
 30
0.0
  0
VERTEX
  5
291
  8
LAYER_1
 10
130.8838324768682
 20
48.73087045155964
 30
0.0
  0
VERTEX
  5
292
  8
LAYER_1
 10
130.8377368433726
 20
48.53305000082941
 30
0.0
  0
VERTEX
  5
293
  8
LAYER_1
 10
130.8095568782995
 20
48.32308663522635
 30
0.0
  0
VERTEX
  5
294
  8
LAYER_1
 10
130.800005197525
 20
48.10162597487599
 30
0.0
  0
VERTEX
  5
295
  8
LAYER_1
 10
130.8038484264222
 20
47.88488028023696
 30
0.0
  0
VERTEX
  5
296
  8
LAYER_1
 10
130.8177355539249
 20
47.70293618060418
 30
0.0
  0
VERTEX
  5
297
  8
LAYER_1
 10
130.8452027412499
 20
47.54718468997963
 30
0.0
  0
VERTEX
  5
298
  8
LAYER_1
 10
130.8897861496136
 20
47.40901682236527
 30
0.0
  0
VERTEX
  5
299
  8
LAYER_1
 10
130.9550219402329
 20
47.27982359176306
 30
0.0
  0
VERTEX
  5
29A
  8
LAYER_1
 10
131.0444462743244
 20
47.15099601217499
 30
0.0
  0
VERTEX
  5
29B
  8
LAYER_1
 10
131.1615953131047
 20
47.01392509760301
 30
0.0
  0
VERTEX
  5
29C
  8
LAYER_1
 10
131.3100052177906
 20
46.8600018620491
 30
0.0
  0
VERTEX
  5
29D
  8
LAYER_1
 10
131.4613625206107
 20
46.71433010884554
 30
0.0
  0
VERTEX
  5
29E
  8
LAYER_1
 10
131.5971481804053
 20
46.59846632484262
 30
0.0
  0
VERTEX
  5
29F
  8
LAYER_1
 10
131.724860914949
 20
46.50920963267863
 30
0.0
  0
VERTEX
  5
2A0
  8
LAYER_1
 10
131.8519994420166
 20
46.44335915499188
 30
0.0
  0
VERTEX
  5
2A1
  8
LAYER_1
 10
131.986062479383
 20
46.39771401442069
 30
0.0
  0
VERTEX
  5
2A2
  8
LAYER_1
 10
132.1345487448226
 20
46.36907333360335
 30
0.0
  0
VERTEX
  5
2A3
  8
LAYER_1
 10
132.3049569561104
 20
46.35423623517821
 30
0.0
  0
VERTEX
  5
2A4
  8
LAYER_1
 10
132.504785831021
 20
46.35000184178352
 30
0.0
  0
VERTEX
  5
2A5
  8
LAYER_1
 10
132.6963721933743
 20
46.35459386351831
 30
0.0
  0
VERTEX
  5
2A6
  8
LAYER_1
 10
132.8648732118007
 20
46.36975376750255
 30
0.0
  0
VERTEX
  5
2A7
  8
LAYER_1
 10
133.0158196834782
 20
46.39755731190607
 30
0.0
  0
VERTEX
  5
2A8
  8
LAYER_1
 10
133.1547424055844
 20
46.4400802548987
 30
0.0
  0
VERTEX
  5
2A9
  8
LAYER_1
 10
133.2871721752973
 20
46.49939835465025
 30
0.0
  0
VERTEX
  5
2AA
  8
LAYER_1
 10
133.4186397897947
 20
46.57758736933054
 30
0.0
  0
VERTEX
  5
2AB
  8
LAYER_1
 10
133.5546760462543
 20
46.67672305710943
 30
0.0
  0
SEQEND
  5
7CA
  8
LAYER_1
  0
POLYLINE
  5
62
  8
LAYER_1
 66
     1
 10
0.0
 20
0.0
 30
0.0
 70
     1
  0
VERTEX
  5
2AC
  8
LAYER_1
 10
152.6092523504725
 20
47.08825387627262
 30
0.0
  0
VERTEX
  5
2AD
  8
LAYER_1
 10
152.7027405553023
 20
47.15564323618563
 30
0.0
  0
VERTEX
  5
2AE
  8
LAYER_1
 10
152.8020528811317
 20
47.23761599134767
 30
0.0
  0
VERTEX
  5
2AF
  8
LAYER_1
 10
153.0059957651922
 20
47.43267099563246
 30
0.0
  0
VERTEX
  5
2B0
  8
LAYER_1
 10
153.1967727414609
 20
47.64813750555417
 30
0.0
  0
VERTEX
  5
2B1
  8
LAYER_1
 10
153.2796276825504
 20
47.75562464276235
 30
0.0
  0
VERTEX
  5
2B2
  8
LAYER_1
 10
153.3500755487444
 20
47.85873413753995
 30
0.0
  0
VERTEX
  5
2B3
  8
LAYER_1
 10
153.4473739953117
 20
48.03890943515903
 30
0.0
  0
VERTEX
  5
2B4
  8
LAYER_1
 10
153.5235589089234
 20
48.23590699974896
 30
0.0
  0
VERTEX
  5
2B5
  8
LAYER_1
 10
153.5792753680361
 20
48.44649005909186
 30
0.0
  0
VERTEX
  5
2B6
  8
LAYER_1
 10
153.6151684511064
 20
48.66742184096982
 30
0.0
  0
VERTEX
  5
2B7
  8
LAYER_1
 10
153.6318832365909
 20
48.89546557316497
 30
0.0
  0
VERTEX
  5
2B8
  8
LAYER_1
 10
153.6300648029459
 20
49.12738448345942
 30
0.0
  0
VERTEX
  5
2B9
  8
LAYER_1
 10
153.6103582286282
 20
49.35994179963528
 30
0.0
  0
VERTEX
  5
2BA
  8
LAYER_1
 10
153.5734085920942
 20
49.58990074947467
 30
0.0
  0
VERTEX
  5
2BB
  8
LAYER_1
 10
153.5198609718007
 20
49.81402456075971
 30
0.0
  0
VERTEX
  5
2BC
  8
LAYER_1
 10
153.4503604462039
 20
50.0290764612725
 30
0.0
  0
VERTEX
  5
2BD
  8
LAYER_1
 10
153.3655520937607
 20
50.23181967879517
 30
0.0
  0
VERTEX
  5
2BE
  8
LAYER_1
 10
153.2660809929274
 20
50.41901744110982
 30
0.0
  0
VERTEX
  5
2BF
  8
LAYER_1
 10
153.1525922221607
 20
50.58743297599857
 30
0.0
  0
VERTEX
  5
2C0
  8
LAYER_1
 10
153.0257308599171
 20
50.73382951124352
 30
0.0
  0
VERTEX
  5
2C1
  8
LAYER_1
 10
152.8861419846531
 20
50.85497027462681
 30
0.0
  0
VERTEX
  5
2C2
  8
LAYER_1
 10
152.8117763166562
 20
50.90505825055224
 30
0.0
  0
VERTEX
  5
2C3
  8
LAYER_1
 10
152.7344706748254
 20
50.94761849393054
 30
0.0
  0
VERTEX
  5
2C4
  8
LAYER_1
 10
152.4750060588121
 20
51.07500202953815
 30
0.0
  0
VERTEX
  5
2C5
  8
LAYER_1
 10
157.5750062614679
 20
51.22500203549862
 30
0.0
  0
VERTEX
  5
2C6
  8
LAYER_1
 10
157.6517911844286
 20
75.30000299215317
 30
0.0
  0
VERTEX
  5
2C7
  8
LAYER_1
 10
152.1750060468912
 20
75.30798580469705
 30
0.0
  0
VERTEX
  5
2C8
  8
LAYER_1
 10
152.5500060617924
 20
75.54288122625465
 30
0.0
  0
VERTEX
  5
2C9
  8
LAYER_1
 10
152.6636437714201
 20
75.61837282578448
 30
0.0
  0
VERTEX
  5
2CA
  8
LAYER_1
 10
152.7703427124216
 20
75.69818344458962
 30
0.0
  0
VERTEX
  5
2CB
  8
LAYER_1
 10
152.8701625107443
 20
75.7824175148024
 30
0.0
  0
VERTEX
  5
2CC
  8
LAYER_1
 10
152.9631627923362
 20
75.87117946855514
 30
0.0
  0
VERTEX
  5
2CD
  8
LAYER_1
 10
153.0494031831451
 20
75.96457373798017
 30
0.0
  0
VERTEX
  5
2CE
  8
LAYER_1
 10
153.1289433091187
 20
76.06270475520986
 30
0.0
  0
VERTEX
  5
2CF
  8
LAYER_1
 10
153.2018427962047
 20
76.16567695237651
 30
0.0
  0
VERTEX
  5
2D0
  8
LAYER_1
 10
153.268161270351
 20
76.27359476161247
 30
0.0
  0
VERTEX
  5
2D1
  8
LAYER_1
 10
153.3279583575054
 20
76.38656261505007
 30
0.0
  0
VERTEX
  5
2D2
  8
LAYER_1
 10
153.3812936836156
 20
76.50468494482163
 30
0.0
  0
VERTEX
  5
2D3
  8
LAYER_1
 10
153.4282268746293
 20
76.6280661830595
 30
0.0
  0
VERTEX
  5
2D4
  8
LAYER_1
 10
153.4688175564945
 20
76.75681076189603
 30
0.0
  0
VERTEX
  5
2D5
  8
LAYER_1
 10
153.53120989657
 20
77.03080766989432
 30
0.0
  0
VERTEX
  5
2D6
  8
LAYER_1
 10
153.5689477114243
 20
77.32751112587515
 30
0.0
  0
VERTEX
  5
2D7
  8
LAYER_1
 10
153.5819237806765
 20
77.63632364440537
 30
0.0
  0
VERTEX
  5
2D8
  8
LAYER_1
 10
153.577819986529
 20
77.78139974085454
 30
0.0
  0
VERTEX
  5
2D9
  8
LAYER_1
 10
153.5664036324308
 20
77.92090465040778
 30
0.0
  0
VERTEX
  5
2DA
  8
LAYER_1
 10
153.5474862128058
 20
78.05532506430107
 30
0.0
  0
VERTEX
  5
2DB
  8
LAYER_1
 10
153.5208792220779
 20
78.18514767377042
 30
0.0
  0
VERTEX
  5
2DC
  8
LAYER_1
 10
153.4863941546709
 20
78.31085917005183
 30
0.0
  0
VERTEX
  5
2DD
  8
LAYER_1
 10
153.4438425050088
 20
78.43294624438131
 30
0.0
  0
VERTEX
  5
2DE
  8
LAYER_1
 10
153.3930357675153
 20
78.55189558799486
 30
0.0
  0
VERTEX
  5
2DF
  8
LAYER_1
 10
153.3337854366143
 20
78.6681938921285
 30
0.0
  0
VERTEX
  5
2E0
  8
LAYER_1
 10
153.2659030067296
 20
78.78232784801821
 30
0.0
  0
VERTEX
  5
2E1
  8
LAYER_1
 10
153.1891999722852
 20
78.8947841469
 30
0.0
  0
VERTEX
  5
2E2
  8
LAYER_1
 10
153.1034878277048
 20
79.00604948000986
 30
0.0
  0
VERTEX
  5
2E3
  8
LAYER_1
 10
153.0085780674124
 20
79.11661053858384
 30
0.0
  0
VERTEX
  5
2E4
  8
LAYER_1
 10
152.7904116773867
 20
79.33756659706809
 30
0.0
  0
VERTEX
  5
2E5
  8
LAYER_1
 10
152.68125707099
 20
79.4265394301458
 30
0.0
  0
VERTEX
  5
2E6
  8
LAYER_1
 10
152.5552214330525
 20
79.50646745664163
 30
0.0
  0
VERTEX
  5
2E7
  8
LAYER_1
 10
152.4144087790509
 20
79.5771620454133
 30
0.0
  0
VERTEX
  5
2E8
  8
LAYER_1
 10
152.2609231244621
 20
79.63843456531848
 30
0.0
  0
VERTEX
  5
2E9
  8
LAYER_1
 10
152.0968684847626
 20
79.69009638521489
 30
0.0
  0
VERTEX
  5
2EA
  8
LAYER_1
 10
151.9243488754295
 20
79.73195887396021
 30
0.0
  0
VERTEX
  5
2EB
  8
LAYER_1
 10
151.7454683119392
 20
79.76383340041218
 30
0.0
  0
VERTEX
  5
2EC
  8
LAYER_1
 10
151.5623308097688
 20
79.78553133342845
 30
0.0
  0
VERTEX
  5
2ED
  8
LAYER_1
 10
151.3770403843948
 20
79.79686404186677
 30
0.0
  0
VERTEX
  5
2EE
  8
LAYER_1
 10
151.191701051294
 20
79.79764289458483
 30
0.0
  0
VERTEX
  5
2EF
  8
LAYER_1
 10
151.0084168259432
 20
79.78767926044031
 30
0.0
  0
VERTEX
  5
2F0
  8
LAYER_1
 10
150.8292917238192
 20
79.76678450829093
 30
0.0
  0
VERTEX
  5
2F1
  8
LAYER_1
 10
150.6564297603986
 20
79.73477000699438
 30
0.0
  0
VERTEX
  5
2F2
  8
LAYER_1
 10
150.4919349511584
 20
79.69144712540836
 30
0.0
  0
VERTEX
  5
2F3
  8
LAYER_1
 10
150.3379113115751
 20
79.63662723239057
 30
0.0
  0
VERTEX
  5
2F4
  8
LAYER_1
 10
150.1964628571256
 20
79.57012169679872
 30
0.0
  0
VERTEX
  5
2F5
  8
LAYER_1
 10
150.0634427919054
 20
79.49187372465718
 30
0.0
  0
VERTEX
  5
2F6
  8
LAYER_1
 10
149.9384871536399
 20
79.40510727159258
 30
0.0
  0
VERTEX
  5
2F7
  8
LAYER_1
 10
149.8216171140429
 20
79.31037735983884
 30
0.0
  0
VERTEX
  5
2F8
  8
LAYER_1
 10
149.7128538448281
 20
79.20823901162987
 30
0.0
  0
VERTEX
  5
2F9
  8
LAYER_1
 10
149.612218517709
 20
79.09924724919956
 30
0.0
  0
VERTEX
  5
2FA
  8
LAYER_1
 10
149.5197323043994
 20
78.98395709478184
 30
0.0
  0
VERTEX
  5
2FB
  8
LAYER_1
 10
149.4354163766129
 20
78.8629235706106
 30
0.0
  0
VERTEX
  5
2FC
  8
LAYER_1
 10
149.3592919060633
 20
78.73670169891975
 30
0.0
  0
VERTEX
  5
2FD
  8
LAYER_1
 10
149.2913800644641
 20
78.6058465019432
 30
0.0
  0
VERTEX
  5
2FE
  8
LAYER_1
 10
149.2317020235291
 20
78.47091300191485
 30
0.0
  0
VERTEX
  5
2FF
  8
LAYER_1
 10
149.180278954972
 20
78.33245622106863
 30
0.0
  0
VERTEX
  5
300
  8
LAYER_1
 10
149.1371320305064
 20
78.19103118163844
 30
0.0
  0
VERTEX
  5
301
  8
LAYER_1
 10
149.1022824218459
 20
78.04719290585817
 30
0.0
  0
VERTEX
  5
302
  8
LAYER_1
 10
149.0757513007044
 20
77.90149641596173
 30
0.0
  0
VERTEX
  5
303
  8
LAYER_1
 10
149.0575598387953
 20
77.75449673418306
 30
0.0
  0
VERTEX
  5
304
  8
LAYER_1
 10
149.0477292078325
 20
77.60674888275605
 30
0.0
  0
VERTEX
  5
305
  8
LAYER_1
 10
149.0462805795296
 20
77.4588078839146
 30
0.0
  0
VERTEX
  5
306
  8
LAYER_1
 10
149.0532351256002
 20
77.31122875989263
 30
0.0
  0
VERTEX
  5
307
  8
LAYER_1
 10
149.0686140177581
 20
77.16456653292403
 30
0.0
  0
VERTEX
  5
308
  8
LAYER_1
 10
149.0924384277168
 20
77.01937622524271
 30
0.0
  0
VERTEX
  5
309
  8
LAYER_1
 10
149.1247295271902
 20
76.87621285908259
 30
0.0
  0
VERTEX
  5
30A
  8
LAYER_1
 10
149.1655084878918
 20
76.73563145667758
 30
0.0
  0
VERTEX
  5
30B
  8
LAYER_1
 10
149.2147964815353
 20
76.59818704026158
 30
0.0
  0
VERTEX
  5
30C
  8
LAYER_1
 10
149.2726146798345
 20
76.4644346320685
 30
0.0
  0
VERTEX
  5
30D
  8
LAYER_1
 10
149.3389842545029
 20
76.33492925433225
 30
0.0
  0
VERTEX
  5
30E
  8
LAYER_1
 10
149.4139263772543
 20
76.21022592928674
 30
0.0
  0
VERTEX
  5
30F
  8
LAYER_1
 10
149.4974622198023
 20
76.09087967916588
 30
0.0
  0
VERTEX
  5
310
  8
LAYER_1
 10
149.5896129538606
 20
75.97744552620355
 30
0.0
  0
VERTEX
  5
311
  8
LAYER_1
 10
149.6903997511428
 20
75.87047849263368
 30
0.0
  0
VERTEX
  5
312
  8
LAYER_1
 10
149.7998437833627
 20
75.77053360069019
 30
0.0
  0
VERTEX
  5
313
  8
LAYER_1
 10
149.917966222234
 20
75.67816587260697
 30
0.0
  0
VERTEX
  5
314
  8
LAYER_1
 10
150.0447882394703
 20
75.59393033061794
 30
0.0
  0
VERTEX
  5
315
  8
LAYER_1
 10
150.5250059813261
 20
75.30112441032894
 30
0.0
  0
VERTEX
  5
316
  8
LAYER_1
 10
145.0500057637691
 20
75.30000299215317
 30
0.0
  0
VERTEX
  5
317
  8
LAYER_1
 10
145.0500057637691
 20
51.15000203251839
 30
0.0
  0
VERTEX
  5
318
  8
LAYER_1
 10
150.2088560038653
 20
51.15000203251839
 30
0.0
  0
VERTEX
  5
319
  8
LAYER_1
 10
149.6989720092105
 20
50.62393525698953
 30
0.0
  0
VERTEX
  5
31A
  8
LAYER_1
 10
149.5467659976177
 20
50.46090048165889
 30
0.0
  0
VERTEX
  5
31B
  8
LAYER_1
 10
149.4264901213696
 20
50.31409834470111
 30
0.0
  0
VERTEX
  5
31C
  8
LAYER_1
 10
149.3337081209926
 20
50.17187951075439
 30
0.0
  0
VERTEX
  5
31D
  8
LAYER_1
 10
149.2639837370131
 20
50.02259464445693
 30
0.0
  0
VERTEX
  5
31E
  8
LAYER_1
 10
149.2128807099577
 20
49.85459441044691
 30
0.0
  0
VERTEX
  5
31F
  8
LAYER_1
 10
149.1759627803528
 20
49.65622947336253
 30
0.0
  0
VERTEX
  5
320
  8
LAYER_1
 10
149.148793688725
 20
49.41585049784196
 30
0.0
  0
VERTEX
  5
321
  8
LAYER_1
 10
149.1269371756006
 20
49.12180814852341
 30
0.0
  0
VERTEX
  5
322
  8
LAYER_1
 10
149.0647863366456
 20
48.14574781558614
 30
0.0
  0
VERTEX
  5
323
  8
LAYER_1
 10
149.7376593146062
 20
47.47287483762553
 30
0.0
  0
VERTEX
  5
324
  8
LAYER_1
 10
149.9549842237939
 20
47.25877449366686
 30
0.0
  0
VERTEX
  5
325
  8
LAYER_1
 10
150.1338341494091
 20
47.0956415948405
 30
0.0
  0
VERTEX
  5
326
  8
LAYER_1
 10
150.2901699864813
 20
46.97658024276963
 30
0.0
  0
VERTEX
  5
327
  8
LAYER_1
 10
150.3648829015104
 20
46.93142142852475
 30
0.0
  0
VERTEX
  5
328
  8
LAYER_1
 10
150.43995263004
 20
46.89469453907745
 30
0.0
  0
VERTEX
  5
329
  8
LAYER_1
 10
150.5173742839484
 20
46.86553758713062
 30
0.0
  0
VERTEX
  5
32A
  8
LAYER_1
 10
150.5991429751146
 20
46.84308858538716
 30
0.0
  0
VERTEX
  5
32B
  8
LAYER_1
 10
150.7837019167347
 20
46.81486648332195
 30
0.0
  0
VERTEX
  5
32C
  8
LAYER_1
 10
151.0095903499297
 20
46.80313233450503
 30
0.0
  0
VERTEX
  5
32D
  8
LAYER_1
 10
151.292769169729
 20
46.80099024055959
 30
0.0
  0
VERTEX
  5
32E
  8
LAYER_1
 10
151.5135334801537
 20
46.80534437636069
 30
0.0
  0
VERTEX
  5
32F
  8
LAYER_1
 10
151.7154074177896
 20
46.81809590701755
 30
0.0
  0
VERTEX
  5
330
  8
LAYER_1
 10
151.8998070386264
 20
46.83955382348273
 30
0.0
  0
VERTEX
  5
331
  8
LAYER_1
 10
152.0681483986542
 20
46.87002711670877
 30
0.0
  0
VERTEX
  5
332
  8
LAYER_1
 10
152.2218475538627
 20
46.90982477764823
 30
0.0
  0
VERTEX
  5
333
  8
LAYER_1
 10
152.3623205602421
 20
46.95925579725366
 30
0.0
  0
VERTEX
  5
334
  8
LAYER_1
 10
152.490983473782
 20
47.0186291664776
 30
0.0
  0
SEQEND
  5
7CB
  8
LAYER_1
  0
POLYLINE
  5
63
  8
LAYER_1
 66
     1
 10
0.0
 20
0.0
 30
0.0
 70
     1
  0
VERTEX
  5
335
  8
LAYER_1
 10
133.5729534798721
 20
61.82518749041756
 30
0.0
  0
VERTEX
  5
336
  8
LAYER_1
 10
133.6603071341305
 20
61.90082355476733
 30
0.0
  0
VERTEX
  5
337
  8
LAYER_1
 10
133.7501304971243
 20
61.99132205908271
 30
0.0
  0
VERTEX
  5
338
  8
LAYER_1
 10
133.9269400960451
 20
62.20328124560864
 30
0.0
  0
VERTEX
  5
339
  8
LAYER_1
 10
134.0828897700882
 20
62.43381476599212
 30
0.0
  0
VERTEX
  5
33A
  8
LAYER_1
 10
134.146638226985
 20
62.54753118762945
 30
0.0
  0
VERTEX
  5
33B
  8
LAYER_1
 10
134.1974870127075
 20
62.65567233622996
 30
0.0
  0
VERTEX
  5
33C
  8
LAYER_1
 10
134.2655287999077
 20
62.85187898052831
 30
0.0
  0
VERTEX
  5
33D
  8
LAYER_1
 10
134.3078288646716
 20
63.05030959769686
 30
0.0
  0
VERTEX
  5
33E
  8
LAYER_1
 10
134.3254443719989
 20
63.24916404329469
 30
0.0
  0
VERTEX
  5
33F
  8
LAYER_1
 10
134.3194324868887
 20
63.44664217288087
 30
0.0
  0
VERTEX
  5
340
  8
LAYER_1
 10
134.2908503743407
 20
63.64094384201448
 30
0.0
  0
VERTEX
  5
341
  8
LAYER_1
 10
134.2407551993543
 20
63.8302689062546
 30
0.0
  0
VERTEX
  5
342
  8
LAYER_1
 10
134.1702041269289
 20
64.0128172211603
 30
0.0
  0
VERTEX
  5
343
  8
LAYER_1
 10
134.0802543220639
 20
64.18678864229067
 30
0.0
  0
VERTEX
  5
344
  8
LAYER_1
 10
133.9719629497588
 20
64.35038302520478
 30
0.0
  0
VERTEX
  5
345
  8
LAYER_1
 10
133.8463871750131
 20
64.5018002254617
 30
0.0
  0
VERTEX
  5
346
  8
LAYER_1
 10
133.7045841628262
 20
64.63924009862052
 30
0.0
  0
VERTEX
  5
347
  8
LAYER_1
 10
133.5476110781975
 20
64.76090250024032
 30
0.0
  0
VERTEX
  5
348
  8
LAYER_1
 10
133.3765250861264
 20
64.86498728588018
 30
0.0
  0
VERTEX
  5
349
  8
LAYER_1
 10
133.1923833516124
 20
64.94969431109917
 30
0.0
  0
VERTEX
  5
34A
  8
LAYER_1
 10
132.9962430396551
 20
65.01322343145634
 30
0.0
  0
VERTEX
  5
34B
  8
LAYER_1
 10
132.7891613152537
 20
65.05377450251079
 30
0.0
  0
VERTEX
  5
34C
  8
LAYER_1
 10
132.5750100369671
 20
65.07256337655163
 30
0.0
  0
VERTEX
  5
34D
  8
LAYER_1
 10
132.3695104207169
 20
65.0708162740876
 30
0.0
  0
VERTEX
  5
34E
  8
LAYER_1
 10
132.1733750823792
 20
65.04917881524426
 30
0.0
  0
VERTEX
  5
34F
  8
LAYER_1
 10
131.9873166378295
 20
65.00829662014714
 30
0.0
  0
VERTEX
  5
350
  8
LAYER_1
 10
131.812047702944
 20
64.94881530892177
 30
0.0
  0
VERTEX
  5
351
  8
LAYER_1
 10
131.6482808935984
 20
64.87138050169371
 30
0.0
  0
VERTEX
  5
352
  8
LAYER_1
 10
131.4967288256685
 20
64.77663781858848
 30
0.0
  0
VERTEX
  5
353
  8
LAYER_1
 10
131.3581041150302
 20
64.66523287973165
 30
0.0
  0
VERTEX
  5
354
  8
LAYER_1
 10
131.2331193775594
 20
64.53781130524872
 30
0.0
  0
VERTEX
  5
355
  8
LAYER_1
 10
131.122487229132
 20
64.39501871526524
 30
0.0
  0
VERTEX
  5
356
  8
LAYER_1
 10
131.0269202856237
 20
64.23750072990674
 30
0.0
  0
VERTEX
  5
357
  8
LAYER_1
 10
130.9471311629105
 20
64.06590296929876
 30
0.0
  0
VERTEX
  5
358
  8
LAYER_1
 10
130.8838324768681
 20
63.88087105356686
 30
0.0
  0
VERTEX
  5
359
  8
LAYER_1
 10
130.8377368433725
 20
63.68305060283655
 30
0.0
  0
VERTEX
  5
35A
  8
LAYER_1
 10
130.8095568782995
 20
63.47308723723339
 30
0.0
  0
VERTEX
  5
35B
  8
LAYER_1
 10
130.800005197525
 20
63.25162657688291
 30
0.0
  0
VERTEX
  5
35C
  8
LAYER_1
 10
130.8038484264222
 20
63.03488088224388
 30
0.0
  0
VERTEX
  5
35D
  8
LAYER_1
 10
130.8177355539249
 20
62.8529367826111
 30
0.0
  0
VERTEX
  5
35E
  8
LAYER_1
 10
130.8452027412499
 20
62.69718529198654
 30
0.0
  0
VERTEX
  5
35F
  8
LAYER_1
 10
130.8897861496136
 20
62.55901742437218
 30
0.0
  0
VERTEX
  5
360
  8
LAYER_1
 10
130.9550219402329
 20
62.42982419376997
 30
0.0
  0
VERTEX
  5
361
  8
LAYER_1
 10
131.0444462743244
 20
62.3009966141819
 30
0.0
  0
VERTEX
  5
362
  8
LAYER_1
 10
131.1615953131047
 20
62.16392569960992
 30
0.0
  0
VERTEX
  5
363
  8
LAYER_1
 10
131.3100052177906
 20
62.01000246405602
 30
0.0
  0
VERTEX
  5
364
  8
LAYER_1
 10
131.4604593345257
 20
61.86528907844523
 30
0.0
  0
VERTEX
  5
365
  8
LAYER_1
 10
131.5957951483073
 20
61.74987514045523
 30
0.0
  0
VERTEX
  5
366
  8
LAYER_1
 10
131.7231457089913
 20
61.66067712385815
 30
0.0
  0
VERTEX
  5
367
  8
LAYER_1
 10
131.8496440664334
 20
61.59461150242608
 30
0.0
  0
VERTEX
  5
368
  8
LAYER_1
 10
131.9824232704896
 20
61.54859474993116
 30
0.0
  0
VERTEX
  5
369
  8
LAYER_1
 10
132.1286163710155
 20
61.5195433401455
 30
0.0
  0
VERTEX
  5
36A
  8
LAYER_1
 10
132.2953564178671
 20
61.50437374684122
 30
0.0
  0
VERTEX
  5
36B
  8
LAYER_1
 10
132.4897764609003
 20
61.50000244379044
 30
0.0
  0
VERTEX
  5
36C
  8
LAYER_1
 10
132.656726441135
 20
61.50481624625305
 30
0.0
  0
VERTEX
  5
36D
  8
LAYER_1
 10
132.8131354731321
 20
61.51941034729285
 30
0.0
  0
VERTEX
  5
36E
  8
LAYER_1
 10
132.9597664806015
 20
61.54401378738778
 30
0.0
  0
VERTEX
  5
36F
  8
LAYER_1
 10
133.0973823872528
 20
61.5788556070158
 30
0.0
  0
VERTEX
  5
370
  8
LAYER_1
 10
133.2267461167958
 20
61.62416484665484
 30
0.0
  0
VERTEX
  5
371
  8
LAYER_1
 10
133.3486205929401
 20
61.68017054678285
 30
0.0
  0
VERTEX
  5
372
  8
LAYER_1
 10
133.4637687393956
 20
61.74710174787777
 30
0.0
  0
SEQEND
  5
7CC
  8
LAYER_1
  0
POLYLINE
  5
64
  8
LAYER_1
 66
     1
 10
0.0
 20
0.0
 30
0.0
 70
     1
  0
VERTEX
  5
373
  8
LAYER_1
 10
203.2448139004264
 20
65.89958014858762
 30
0.0
  0
VERTEX
  5
374
  8
LAYER_1
 10
203.3599763318213
 20
65.94603873985426
 30
0.0
  0
VERTEX
  5
375
  8
LAYER_1
 10
203.4784317365049
 20
66.00797523762715
 30
0.0
  0
VERTEX
  5
376
  8
LAYER_1
 10
203.5974836382456
 20
66.08324776454756
 30
0.0
  0
VERTEX
  5
377
  8
LAYER_1
 10
203.7144355608118
 20
66.16971444325675
 30
0.0
  0
VERTEX
  5
378
  8
LAYER_1
 10
203.8265910279719
 20
66.26523339639597
 30
0.0
  0
VERTEX
  5
379
  8
LAYER_1
 10
203.9312535634942
 20
66.36766274660647
 30
0.0
  0
VERTEX
  5
37A
  8
LAYER_1
 10
204.0257266911471
 20
66.4748606165295
 30
0.0
  0
VERTEX
  5
37B
  8
LAYER_1
 10
204.1073139346991
 20
66.58468512880633
 30
0.0
  0
VERTEX
  5
37C
  8
LAYER_1
 10
204.2400416035689
 20
66.80226525978227
 30
0.0
  0
VERTEX
  5
37D
  8
LAYER_1
 10
204.3384439462419
 20
67.01148228704513
 30
0.0
  0
VERTEX
  5
37E
  8
LAYER_1
 10
204.3748543602584
 20
67.11416984153433
 30
0.0
  0
VERTEX
  5
37F
  8
LAYER_1
 10
204.40278093073
 20
67.21622486579548
 30
0.0
  0
VERTEX
  5
380
  8
LAYER_1
 10
204.4222561536585
 20
67.31813344172865
 30
0.0
  0
VERTEX
  5
381
  8
LAYER_1
 10
204.4333125250452
 20
67.42038165123391
 30
0.0
  0
VERTEX
  5
382
  8
LAYER_1
 10
204.4359825408915
 20
67.52345557621135
 30
0.0
  0
VERTEX
  5
383
  8
LAYER_1
 10
204.4302986971991
 20
67.62784129856104
 30
0.0
  0
VERTEX
  5
384
  8
LAYER_1
 10
204.4162934899694
 20
67.73402490018307
 30
0.0
  0
VERTEX
  5
385
  8
LAYER_1
 10
204.3939994152038
 20
67.84249246297749
 30
0.0
  0
VERTEX
  5
386
  8
LAYER_1
 10
204.3246746470712
 20
68.0682237996838
 30
0.0
  0
VERTEX
  5
387
  8
LAYER_1
 10
204.2225843608132
 20
68.30892396388062
 30
0.0
  0
VERTEX
  5
388
  8
LAYER_1
 10
204.1613438033853
 20
68.42643833250267
 30
0.0
  0
VERTEX
  5
389
  8
LAYER_1
 10
204.0930001297153
 20
68.5365037388844
 30
0.0
  0
VERTEX
  5
38A
  8
LAYER_1
 10
204.0180282377604
 20
68.63911448594774
 30
0.0
  0
VERTEX
  5
38B
  8
LAYER_1
 10
203.9369030254778
 20
68.73426487661462
 30
0.0
  0
VERTEX
  5
38C
  8
LAYER_1
 10
203.8500993908248
 20
68.82194921380696
 30
0.0
  0
VERTEX
  5
38D
  8
LAYER_1
 10
203.7580922317585
 20
68.90216180044672
 30
0.0
  0
VERTEX
  5
38E
  8
LAYER_1
 10
203.6613564462362
 20
68.97489693945582
 30
0.0
  0
VERTEX
  5
38F
  8
LAYER_1
 10
203.5603669322151
 20
69.04014893375617
 30
0.0
  0
VERTEX
  5
390
  8
LAYER_1
 10
203.4555985876523
 20
69.09791208626973
 30
0.0
  0
VERTEX
  5
391
  8
LAYER_1
 10
203.3475263105052
 20
69.14818069991841
 30
0.0
  0
VERTEX
  5
392
  8
LAYER_1
 10
203.236624998731
 20
69.19094907762417
 30
0.0
  0
VERTEX
  5
393
  8
LAYER_1
 10
203.1233695502868
 20
69.22621152230892
 30
0.0
  0
VERTEX
  5
394
  8
LAYER_1
 10
203.0082348631298
 20
69.2539623368946
 30
0.0
  0
VERTEX
  5
395
  8
LAYER_1
 10
202.8916958352173
 20
69.27419582430313
 30
0.0
  0
VERTEX
  5
396
  8
LAYER_1
 10
202.7742273645066
 20
69.28690628745646
 30
0.0
  0
VERTEX
  5
397
  8
LAYER_1
 10
202.6563043489547
 20
69.29208802927651
 30
0.0
  0
VERTEX
  5
398
  8
LAYER_1
 10
202.538401686519
 20
69.28973535268521
 30
0.0
  0
VERTEX
  5
399
  8
LAYER_1
 10
202.4209942751567
 20
69.27984256060451
 30
0.0
  0
VERTEX
  5
39A
  8
LAYER_1
 10
202.3045570128249
 20
69.2624039559563
 30
0.0
  0
VERTEX
  5
39B
  8
LAYER_1
 10
202.1895647974808
 20
69.23741384166257
 30
0.0
  0
VERTEX
  5
39C
  8
LAYER_1
 10
202.0764925270818
 20
69.20486652064523
 30
0.0
  0
VERTEX
  5
39D
  8
LAYER_1
 10
201.965815099585
 20
69.16475629582618
 30
0.0
  0
VERTEX
  5
39E
  8
LAYER_1
 10
201.8580074129476
 20
69.11707747012738
 30
0.0
  0
VERTEX
  5
39F
  8
LAYER_1
 10
201.7535443651269
 20
69.06182434647076
 30
0.0
  0
VERTEX
  5
3A0
  8
LAYER_1
 10
201.65290085408
 20
68.99899122777825
 30
0.0
  0
VERTEX
  5
3A1
  8
LAYER_1
 10
201.5565517777642
 20
68.92857241697178
 30
0.0
  0
VERTEX
  5
3A2
  8
LAYER_1
 10
201.4649720341367
 20
68.85056221697329
 30
0.0
  0
VERTEX
  5
3A3
  8
LAYER_1
 10
201.3786365211546
 20
68.7649549307047
 30
0.0
  0
VERTEX
  5
3A4
  8
LAYER_1
 10
201.2980201367754
 20
68.67174486108794
 30
0.0
  0
VERTEX
  5
3A5
  8
LAYER_1
 10
201.223597778956
 20
68.57092631104497
 30
0.0
  0
VERTEX
  5
3A6
  8
LAYER_1
 10
201.1558443456538
 20
68.46249358349769
 30
0.0
  0
VERTEX
  5
3A7
  8
LAYER_1
 10
201.0952347348261
 20
68.34644098136805
 30
0.0
  0
VERTEX
  5
3A8
  8
LAYER_1
 10
200.9904901781188
 20
68.10314128770142
 30
0.0
  0
VERTEX
  5
3A9
  8
LAYER_1
 10
200.9171123010537
 20
67.87764048293143
 30
0.0
  0
VERTEX
  5
3AA
  8
LAYER_1
 10
200.8752260458434
 20
67.66545041725786
 30
0.0
  0
VERTEX
  5
3AB
  8
LAYER_1
 10
200.8661313208754
 20
67.56294436476966
 30
0.0
  0
VERTEX
  5
3AC
  8
LAYER_1
 10
200.8649563547009
 20
67.46208294088049
 30
0.0
  0
VERTEX
  5
3AD
  8
LAYER_1
 10
200.8717167650965
 20
67.36230512686532
 30
0.0
  0
VERTEX
  5
3AE
  8
LAYER_1
 10
200.8864281698389
 20
67.26304990399909
 30
0.0
  0
VERTEX
  5
3AF
  8
LAYER_1
 10
200.9091061867046
 20
67.16375625355681
 30
0.0
  0
VERTEX
  5
3B0
  8
LAYER_1
 10
200.9397664334703
 20
67.06386315681343
 30
0.0
  0
VERTEX
  5
3B1
  8
LAYER_1
 10
201.0250960878079
 20
66.86003454952328
 30
0.0
  0
VERTEX
  5
3B2
  8
LAYER_1
 10
201.1425420750646
 20
66.64707593232842
 30
0.0
  0
VERTEX
  5
3B3
  8
LAYER_1
 10
201.2330103287177
 20
66.51039139878378
 30
0.0
  0
VERTEX
  5
3B4
  8
LAYER_1
 10
201.3305895248505
 20
66.38511407446748
 30
0.0
  0
VERTEX
  5
3B5
  8
LAYER_1
 10
201.4349251396583
 20
66.27137001588943
 30
0.0
  0
VERTEX
  5
3B6
  8
LAYER_1
 10
201.5456626493364
 20
66.16928527955962
 30
0.0
  0
VERTEX
  5
3B7
  8
LAYER_1
 10
201.66244753008
 20
66.078985921988
 30
0.0
  0
VERTEX
  5
3B8
  8
LAYER_1
 10
201.7849252580844
 20
66.00059799968452
 30
0.0
  0
VERTEX
  5
3B9
  8
LAYER_1
 10
201.9127413095448
 20
65.93424756915913
 30
0.0
  0
VERTEX
  5
3BA
  8
LAYER_1
 10
202.0455411606565
 20
65.88006068692178
 30
0.0
  0
VERTEX
  5
3BB
  8
LAYER_1
 10
202.1829702876147
 20
65.83816340948246
 30
0.0
  0
VERTEX
  5
3BC
  8
LAYER_1
 10
202.3246741666146
 20
65.8086817933511
 30
0.0
  0
VERTEX
  5
3BD
  8
LAYER_1
 10
202.4702982738517
 20
65.79174189503766
 30
0.0
  0
VERTEX
  5
3BE
  8
LAYER_1
 10
202.619488085521
 20
65.78746977105207
 30
0.0
  0
VERTEX
  5
3BF
  8
LAYER_1
 10
202.7718890778179
 20
65.79599147790432
 30
0.0
  0
VERTEX
  5
3C0
  8
LAYER_1
 10
202.9271467269376
 20
65.81743307210436
 30
0.0
  0
VERTEX
  5
3C1
  8
LAYER_1
 10
203.0849065090753
 20
65.85192061016213
 30
0.0
  0
SEQEND
  5
7CD
  8
LAYER_1
  0
POLYLINE
  5
65
  8
LAYER_1
 66
     1
 10
0.0
 20
0.0
 30
0.0
 70
     1
  0
VERTEX
  5
3C2
  8
LAYER_1
 10
98.94000393152237
 20
66.36000263690948
 30
0.0
  0
VERTEX
  5
3C3
  8
LAYER_1
 10
99.07494758296083
 20
66.50113673348719
 30
0.0
  0
VERTEX
  5
3C4
  8
LAYER_1
 10
99.18577572735973
 20
66.63188675367772
 30
0.0
  0
VERTEX
  5
3C5
  8
LAYER_1
 10
99.27437559696668
 20
66.75616574028948
 30
0.0
  0
VERTEX
  5
3C6
  8
LAYER_1
 10
99.34263442402926
 20
66.8778867361309
 30
0.0
  0
VERTEX
  5
3C7
  8
LAYER_1
 10
99.39243944079509
 20
67.0009627840104
 30
0.0
  0
VERTEX
  5
3C8
  8
LAYER_1
 10
99.42567787951174
 20
67.12930692673635
 30
0.0
  0
VERTEX
  5
3C9
  8
LAYER_1
 10
99.44423697242684
 20
67.2668322071172
 30
0.0
  0
VERTEX
  5
3CA
  8
LAYER_1
 10
99.45000395178795
 20
67.41745166796137
 30
0.0
  0
VERTEX
  5
3CB
  8
LAYER_1
 10
99.44001196281064
 20
67.63733786840699
 30
0.0
  0
VERTEX
  5
3CC
  8
LAYER_1
 10
99.4106047844077
 20
67.84681134297901
 30
0.0
  0
VERTEX
  5
3CD
  8
LAYER_1
 10
99.36263559937248
 20
68.04509465697798
 30
0.0
  0
VERTEX
  5
3CE
  8
LAYER_1
 10
99.29695759049844
 20
68.23141037570444
 30
0.0
  0
VERTEX
  5
3CF
  8
LAYER_1
 10
99.21442394057894
 20
68.40498106445894
 30
0.0
  0
VERTEX
  5
3D0
  8
LAYER_1
 10
99.11588783240741
 20
68.56502928854196
 30
0.0
  0
VERTEX
  5
3D1
  8
LAYER_1
 10
99.00220244877723
 20
68.7107776132541
 30
0.0
  0
VERTEX
  5
3D2
  8
LAYER_1
 10
98.87422097248181
 20
68.84144860389587
 30
0.0
  0
VERTEX
  5
3D3
  8
LAYER_1
 10
98.73279658631458
 20
68.95626482576779
 30
0.0
  0
VERTEX
  5
3D4
  8
LAYER_1
 10
98.57878247306891
 20
69.05444884417044
 30
0.0
  0
VERTEX
  5
3D5
  8
LAYER_1
 10
98.41303181553823
 20
69.13522322440433
 30
0.0
  0
VERTEX
  5
3D6
  8
LAYER_1
 10
98.23639779651594
 20
69.19781053176999
 30
0.0
  0
VERTEX
  5
3D7
  8
LAYER_1
 10
98.04973359879544
 20
69.24143333156796
 30
0.0
  0
VERTEX
  5
3D8
  8
LAYER_1
 10
97.85389240517014
 20
69.26531418909876
 30
0.0
  0
VERTEX
  5
3D9
  8
LAYER_1
 10
97.64972739843344
 20
69.26867566966294
 30
0.0
  0
VERTEX
  5
3DA
  8
LAYER_1
 10
97.43809176137876
 20
69.25074033856106
 30
0.0
  0
VERTEX
  5
3DB
  8
LAYER_1
 10
97.2720740171976
 20
69.2217456217218
 30
0.0
  0
VERTEX
  5
3DC
  8
LAYER_1
 10
97.11519670554205
 20
69.18067069271956
 30
0.0
  0
VERTEX
  5
3DD
  8
LAYER_1
 10
96.96767651222845
 20
69.12778144142783
 30
0.0
  0
VERTEX
  5
3DE
  8
LAYER_1
 10
96.8297301230731
 20
69.06334375772015
 30
0.0
  0
VERTEX
  5
3DF
  8
LAYER_1
 10
96.70157422389235
 20
68.98762353147006
 30
0.0
  0
VERTEX
  5
3E0
  8
LAYER_1
 10
96.58342550050253
 20
68.90088665255108
 30
0.0
  0
VERTEX
  5
3E1
  8
LAYER_1
 10
96.47550063871995
 20
68.80339901083676
 30
0.0
  0
VERTEX
  5
3E2
  8
LAYER_1
 10
96.37801632436097
 20
68.69542649620058
 30
0.0
  0
VERTEX
  5
3E3
  8
LAYER_1
 10
96.29118924324189
 20
68.57723499851613
 30
0.0
  0
VERTEX
  5
3E4
  8
LAYER_1
 10
96.21523608117904
 20
68.4490904076569
 30
0.0
  0
VERTEX
  5
3E5
  8
LAYER_1
 10
96.15037352398875
 20
68.31125861349645
 30
0.0
  0
VERTEX
  5
3E6
  8
LAYER_1
 10
96.09681825748736
 20
68.16400550590828
 30
0.0
  0
VERTEX
  5
3E7
  8
LAYER_1
 10
96.05478696749118
 20
68.00759697476593
 30
0.0
  0
VERTEX
  5
3E8
  8
LAYER_1
 10
96.02449633981657
 20
67.84229890994295
 30
0.0
  0
VERTEX
  5
3E9
  8
LAYER_1
 10
96.00616306027982
 20
67.66837720131284
 30
0.0
  0
VERTEX
  5
3EA
  8
LAYER_1
 10
96.00000381469727
 20
67.48609773874914
 30
0.0
  0
VERTEX
  5
3EB
  8
LAYER_1
 10
96.00370489006588
 20
67.26628874047425
 30
0.0
  0
VERTEX
  5
3EC
  8
LAYER_1
 10
96.01660805128145
 20
67.08125895631981
 30
0.0
  0
VERTEX
  5
3ED
  8
LAYER_1
 10
96.04141320100865
 20
66.92363375101093
 30
0.0
  0
VERTEX
  5
3EE
  8
LAYER_1
 10
96.08082024191214
 20
66.78603848927268
 30
0.0
  0
VERTEX
  5
3EF
  8
LAYER_1
 10
96.13752907665653
 20
66.6610985358302
 30
0.0
  0
VERTEX
  5
3F0
  8
LAYER_1
 10
96.2142396079065
 20
66.54143925540856
 30
0.0
  0
VERTEX
  5
3F1
  8
LAYER_1
 10
96.31365173832668
 20
66.41968601273291
 30
0.0
  0
VERTEX
  5
3F2
  8
LAYER_1
 10
96.4384653705817
 20
66.28846417252834
 30
0.0
  0
VERTEX
  5
3F3
  8
LAYER_1
 10
96.5703878327865
 20
66.16290885853961
 30
0.0
  0
VERTEX
  5
3F4
  8
LAYER_1
 10
96.69254455316604
 20
66.06314859179545
 30
0.0
  0
VERTEX
  5
3F5
  8
LAYER_1
 10
96.81266876603728
 20
65.98639265145977
 30
0.0
  0
VERTEX
  5
3F6
  8
LAYER_1
 10
96.93849370571715
 20
65.9298503166964
 30
0.0
  0
VERTEX
  5
3F7
  8
LAYER_1
 10
97.07775260652255
 20
65.89073086666926
 30
0.0
  0
VERTEX
  5
3F8
  8
LAYER_1
 10
97.23817870277047
 20
65.8662435805422
 30
0.0
  0
VERTEX
  5
3F9
  8
LAYER_1
 10
97.42750522877779
 20
65.85359773747913
 30
0.0
  0
VERTEX
  5
3FA
  8
LAYER_1
 10
97.65346541886146
 20
65.8500026166439
 30
0.0
  0
VERTEX
  5
3FB
  8
LAYER_1
 10
97.88647558568888
 20
65.8535151074967
 30
0.0
  0
VERTEX
  5
3FC
  8
LAYER_1
 10
98.0795881334301
 20
65.86659901403445
 30
0.0
  0
VERTEX
  5
3FD
  8
LAYER_1
 10
98.24243860695037
 20
65.89307398722615
 30
0.0
  0
VERTEX
  5
3FE
  8
LAYER_1
 10
98.38466255111499
 20
65.9367596780408
 30
0.0
  0
VERTEX
  5
3FF
  8
LAYER_1
 10
98.51589551078922
 20
66.00147573744746
 30
0.0
  0
VERTEX
  5
400
  8
LAYER_1
 10
98.64577303083834
 20
66.0910418164151
 30
0.0
  0
VERTEX
  5
401
  8
LAYER_1
 10
98.78393065612764
 20
66.20927756591277
 30
0.0
  0
SEQEND
  5
7CE
  8
LAYER_1
  0
POLYLINE
  5
66
  8
LAYER_1
 66
     1
 10
0.0
 20
0.0
 30
0.0
 70
     1
  0
VERTEX
  5
402
  8
LAYER_1
 10
133.6284837837356
 20
77.02991194708393
 30
0.0
  0
VERTEX
  5
403
  8
LAYER_1
 10
133.7226831342864
 20
77.11684277296791
 30
0.0
  0
VERTEX
  5
404
  8
LAYER_1
 10
133.8173351515551
 20
77.21846189124138
 30
0.0
  0
VERTEX
  5
405
  8
LAYER_1
 10
133.9098839812019
 20
77.33107789550762
 30
0.0
  0
VERTEX
  5
406
  8
LAYER_1
 10
133.9977737688871
 20
77.45099937936996
 30
0.0
  0
VERTEX
  5
407
  8
LAYER_1
 10
134.0784486602712
 20
77.57453493643173
 30
0.0
  0
VERTEX
  5
408
  8
LAYER_1
 10
134.1493528010144
 20
77.69799316029624
 30
0.0
  0
VERTEX
  5
409
  8
LAYER_1
 10
134.207930336777
 20
77.81768264456679
 30
0.0
  0
VERTEX
  5
40A
  8
LAYER_1
 10
134.2516254132194
 20
77.92991198284672
 30
0.0
  0
VERTEX
  5
40B
  8
LAYER_1
 10
134.2868102382405
 20
78.0522288923747
 30
0.0
  0
VERTEX
  5
40C
  8
LAYER_1
 10
134.3122291270589
 20
78.17585632585786
 30
0.0
  0
VERTEX
  5
40D
  8
LAYER_1
 10
134.3279997533537
 20
78.30038571232754
 30
0.0
  0
VERTEX
  5
40E
  8
LAYER_1
 10
134.3342397908038
 20
78.42540848081508
 30
0.0
  0
VERTEX
  5
40F
  8
LAYER_1
 10
134.3310669130884
 20
78.55051606035185
 30
0.0
  0
VERTEX
  5
410
  8
LAYER_1
 10
134.3185987938863
 20
78.67529987996922
 30
0.0
  0
VERTEX
  5
411
  8
LAYER_1
 10
134.2969531068766
 20
78.79935136869852
 30
0.0
  0
VERTEX
  5
412
  8
LAYER_1
 10
134.2662475257384
 20
78.92226195557114
 30
0.0
  0
VERTEX
  5
413
  8
LAYER_1
 10
134.2265997241506
 20
79.04362306961843
 30
0.0
  0
VERTEX
  5
414
  8
LAYER_1
 10
134.1781273757923
 20
79.16302613987173
 30
0.0
  0
VERTEX
  5
415
  8
LAYER_1
 10
134.1209481543424
 20
79.28006259536241
 30
0.0
  0
VERTEX
  5
416
  8
LAYER_1
 10
134.0551797334801
 20
79.3943238651218
 30
0.0
  0
VERTEX
  5
417
  8
LAYER_1
 10
133.9809397868844
 20
79.50540137818129
 30
0.0
  0
VERTEX
  5
418
  8
LAYER_1
 10
133.8983459882342
 20
79.61288656357223
 30
0.0
  0
VERTEX
  5
419
  8
LAYER_1
 10
133.8075160112085
 20
79.71637085032597
 30
0.0
  0
VERTEX
  5
41A
  8
LAYER_1
 10
133.7085675294865
 20
79.8154456674739
 30
0.0
  0
VERTEX
  5
41B
  8
LAYER_1
 10
133.5954487448943
 20
79.91400195829314
 30
0.0
  0
VERTEX
  5
41C
  8
LAYER_1
 10
133.4832614334938
 20
79.99374228209962
 30
0.0
  0
VERTEX
  5
41D
  8
LAYER_1
 10
133.3661291274746
 20
80.056415822254
 30
0.0
  0
VERTEX
  5
41E
  8
LAYER_1
 10
133.2381753590262
 20
80.10377176211693
 30
0.0
  0
VERTEX
  5
41F
  8
LAYER_1
 10
133.0935236603382
 20
80.13755928504915
 30
0.0
  0
VERTEX
  5
420
  8
LAYER_1
 10
132.9262975636
 20
80.15952757441133
 30
0.0
  0
VERTEX
  5
421
  8
LAYER_1
 10
132.7306206010011
 20
80.17142581356414
 30
0.0
  0
VERTEX
  5
422
  8
LAYER_1
 10
132.5006163047312
 20
80.17500318586826
 30
0.0
  0
VERTEX
  5
423
  8
LAYER_1
 10
132.2493285117751
 20
80.17203201466162
 30
0.0
  0
VERTEX
  5
424
  8
LAYER_1
 10
132.0454299095835
 20
80.16044250511663
 30
0.0
  0
VERTEX
  5
425
  8
LAYER_1
 10
131.8785720973718
 20
80.13622066334564
 30
0.0
  0
VERTEX
  5
426
  8
LAYER_1
 10
131.7384066743555
 20
80.09535249546103
 30
0.0
  0
VERTEX
  5
427
  8
LAYER_1
 10
131.6145852397501
 20
80.03382400757516
 30
0.0
  0
VERTEX
  5
428
  8
LAYER_1
 10
131.496759392771
 20
79.94762120580043
 30
0.0
  0
VERTEX
  5
429
  8
LAYER_1
 10
131.3745807326338
 20
79.83273009624921
 30
0.0
  0
VERTEX
  5
42A
  8
LAYER_1
 10
131.2377008585539
 20
79.68513668503384
 30
0.0
  0
VERTEX
  5
42B
  8
LAYER_1
 10
131.1149692135329
 20
79.5408747340272
 30
0.0
  0
VERTEX
  5
42C
  8
LAYER_1
 10
131.016605656616
 20
79.40721705210368
 30
0.0
  0
VERTEX
  5
42D
  8
LAYER_1
 10
130.9401432419501
 20
79.27710428254818
 30
0.0
  0
VERTEX
  5
42E
  8
LAYER_1
 10
130.8831150236821
 20
79.14347706864567
 30
0.0
  0
VERTEX
  5
42F
  8
LAYER_1
 10
130.8430540559586
 20
78.99927605368106
 30
0.0
  0
VERTEX
  5
430
  8
LAYER_1
 10
130.8174933929268
 20
78.83744188093928
 30
0.0
  0
VERTEX
  5
431
  8
LAYER_1
 10
130.8039660887333
 20
78.65091519370527
 30
0.0
  0
VERTEX
  5
432
  8
LAYER_1
 10
130.800005197525
 20
78.43263663526396
 30
0.0
  0
VERTEX
  5
433
  8
LAYER_1
 10
130.8036159174117
 20
78.2046659115266
 30
0.0
  0
VERTEX
  5
434
  8
LAYER_1
 10
130.8169383801747
 20
78.01502108844565
 30
0.0
  0
VERTEX
  5
435
  8
LAYER_1
 10
130.8437080404681
 20
77.85438086249107
 30
0.0
  0
VERTEX
  5
436
  8
LAYER_1
 10
130.8876603529462
 20
77.71342393013285
 30
0.0
  0
VERTEX
  5
437
  8
LAYER_1
 10
130.9525307722632
 20
77.58282898784094
 30
0.0
  0
VERTEX
  5
438
  8
LAYER_1
 10
131.0420547530735
 20
77.45327473208533
 30
0.0
  0
VERTEX
  5
439
  8
LAYER_1
 10
131.1599677500312
 20
77.31543985933601
 30
0.0
  0
VERTEX
  5
43A
  8
LAYER_1
 10
131.3100052177906
 20
77.16000306606293
 30
0.0
  0
VERTEX
  5
43B
  8
LAYER_1
 10
131.4609892208104
 20
77.01472773530041
 30
0.0
  0
VERTEX
  5
43C
  8
LAYER_1
 10
131.5965888047653
 20
76.89905002713715
 30
0.0
  0
VERTEX
  5
43D
  8
LAYER_1
 10
131.724150094023
 20
76.80981760573485
 30
0.0
  0
VERTEX
  5
43E
  8
LAYER_1
 10
131.8510192129513
 20
76.74387813525523
 30
0.0
  0
VERTEX
  5
43F
  8
LAYER_1
 10
131.9845422859179
 20
76.69807927985997
 30
0.0
  0
VERTEX
  5
440
  8
LAYER_1
 10
132.1320654372906
 20
76.66926870371076
 30
0.0
  0
VERTEX
  5
441
  8
LAYER_1
 10
132.3009347914372
 20
76.65429407096931
 30
0.0
  0
VERTEX
  5
442
  8
LAYER_1
 10
132.4984964727255
 20
76.65000304579735
 30
0.0
  0
VERTEX
  5
443
  8
LAYER_1
 10
132.6788340583083
 20
76.65467849600219
 30
0.0
  0
VERTEX
  5
444
  8
LAYER_1
 10
132.8415754893088
 20
76.66942520454685
 30
0.0
  0
VERTEX
  5
445
  8
LAYER_1
 10
132.9899346756313
 20
76.69532370832658
 30
0.0
  0
VERTEX
  5
446
  8
LAYER_1
 10
133.1271255271805
 20
76.7334545442366
 30
0.0
  0
VERTEX
  5
447
  8
LAYER_1
 10
133.2563619538609
 20
76.7848982491721
 30
0.0
  0
VERTEX
  5
448
  8
LAYER_1
 10
133.3808578655772
 20
76.85073536002835
 30
0.0
  0
VERTEX
  5
449
  8
LAYER_1
 10
133.5038271722339
 20
76.93204641370055
 30
0.0
  0
SEQEND
  5
7CF
  8
LAYER_1
  0
POLYLINE
  5
67
  8
LAYER_1
 66
     1
 10
0.0
 20
0.0
 30
0.0
 70
     1
  0
VERTEX
  5
44A
  8
LAYER_1
 10
152.8214160946027
 20
87.6037503380555
 30
0.0
  0
VERTEX
  5
44B
  8
LAYER_1
 10
153.3041940948362
 20
87.74633305924596
 30
0.0
  0
VERTEX
  5
44C
  8
LAYER_1
 10
153.8081865061419
 20
87.92222472498237
 30
0.0
  0
VERTEX
  5
44D
  8
LAYER_1
 10
154.2736884005991
 20
88.10908572809238
 30
0.0
  0
VERTEX
  5
44E
  8
LAYER_1
 10
154.4733476140342
 20
88.19964860392113
 30
0.0
  0
VERTEX
  5
44F
  8
LAYER_1
 10
154.6409948502868
 20
88.28457646140365
 30
0.0
  0
VERTEX
  5
450
  8
LAYER_1
 10
155.0764300305956
 20
88.53701777182337
 30
0.0
  0
VERTEX
  5
451
  8
LAYER_1
 10
155.4926128478156
 20
88.80931996938426
 30
0.0
  0
VERTEX
  5
452
  8
LAYER_1
 10
155.8893079225116
 20
89.1005205948675
 30
0.0
  0
VERTEX
  5
453
  8
LAYER_1
 10
156.2662798752482
 20
89.40965718905424
 30
0.0
  0
VERTEX
  5
454
  8
LAYER_1
 10
156.6232933265904
 20
89.73576729272565
 30
0.0
  0
VERTEX
  5
455
  8
LAYER_1
 10
156.9601128971028
 20
90.07788844666288
 30
0.0
  0
VERTEX
  5
456
  8
LAYER_1
 10
157.2765032073505
 20
90.43505819164713
 30
0.0
  0
VERTEX
  5
457
  8
LAYER_1
 10
157.572228877898
 20
90.80631406845951
 30
0.0
  0
VERTEX
  5
458
  8
LAYER_1
 10
157.8470545293102
 20
91.19069361788122
 30
0.0
  0
VERTEX
  5
459
  8
LAYER_1
 10
158.100744782152
 20
91.58723438069343
 30
0.0
  0
VERTEX
  5
45A
  8
LAYER_1
 10
158.3330642569881
 20
91.99497389767728
 30
0.0
  0
VERTEX
  5
45B
  8
LAYER_1
 10
158.5437775743833
 20
92.41294970961394
 30
0.0
  0
VERTEX
  5
45C
  8
LAYER_1
 10
158.7326493549024
 20
92.84019935728458
 30
0.0
  0
VERTEX
  5
45D
  8
LAYER_1
 10
158.8994442191102
 20
93.27576038147038
 30
0.0
  0
VERTEX
  5
45E
  8
LAYER_1
 10
159.0439267875715
 20
93.71867032295246
 30
0.0
  0
VERTEX
  5
45F
  8
LAYER_1
 10
159.1658616808512
 20
94.16796672251203
 30
0.0
  0
VERTEX
  5
460
  8
LAYER_1
 10
159.2650135195139
 20
94.62268712093022
 30
0.0
  0
VERTEX
  5
461
  8
LAYER_1
 10
159.3411469241246
 20
95.08186905898822
 30
0.0
  0
VERTEX
  5
462
  8
LAYER_1
 10
159.3940265152479
 20
95.54455007746716
 30
0.0
  0
VERTEX
  5
463
  8
LAYER_1
 10
159.4234169134488
 20
96.00976771714826
 30
0.0
  0
VERTEX
  5
464
  8
LAYER_1
 10
159.4290827392919
 20
96.47655951881265
 30
0.0
  0
VERTEX
  5
465
  8
LAYER_1
 10
159.4107886133422
 20
96.94396302324148
 30
0.0
  0
VERTEX
  5
466
  8
LAYER_1
 10
159.3682991561644
 20
97.41101577121593
 30
0.0
  0
VERTEX
  5
467
  8
LAYER_1
 10
159.3013789883232
 20
97.87675530351717
 30
0.0
  0
VERTEX
  5
468
  8
LAYER_1
 10
159.2097927303836
 20
98.34021916092637
 30
0.0
  0
VERTEX
  5
469
  8
LAYER_1
 10
159.0933050029103
 20
98.80044488422466
 30
0.0
  0
VERTEX
  5
46A
  8
LAYER_1
 10
158.951680426468
 20
99.25647001419323
 30
0.0
  0
VERTEX
  5
46B
  8
LAYER_1
 10
158.7846836216217
 20
99.70733209161324
 30
0.0
  0
VERTEX
  5
46C
  8
LAYER_1
 10
158.5920792089361
 20
100.1520686572659
 30
0.0
  0
VERTEX
  5
46D
  8
LAYER_1
 10
158.3736318089759
 20
100.5897172519322
 30
0.0
  0
VERTEX
  5
46E
  8
LAYER_1
 10
158.1291060423061
 20
101.0193154163935
 30
0.0
  0
VERTEX
  5
46F
  8
LAYER_1
 10
157.8582665294913
 20
101.4399006914309
 30
0.0
  0
VERTEX
  5
470
  8
LAYER_1
 10
157.6191829191667
 20
101.7733858311851
 30
0.0
  0
VERTEX
  5
471
  8
LAYER_1
 10
157.366637659027
 20
102.093916279401
 30
0.0
  0
VERTEX
  5
472
  8
LAYER_1
 10
157.1010119284729
 20
102.4012271242482
 30
0.0
  0
VERTEX
  5
473
  8
LAYER_1
 10
156.8226869069053
 20
102.6950534538962
 30
0.0
  0
VERTEX
  5
474
  8
LAYER_1
 10
156.5320437737248
 20
102.9751303565146
 30
0.0
  0
VERTEX
  5
475
  8
LAYER_1
 10
156.2294637083322
 20
103.2411929202729
 30
0.0
  0
VERTEX
  5
476
  8
LAYER_1
 10
155.9153278901282
 20
103.4929762333406
 30
0.0
  0
VERTEX
  5
477
  8
LAYER_1
 10
155.5900174985135
 20
103.7302153838874
 30
0.0
  0
VERTEX
  5
478
  8
LAYER_1
 10
155.2539137128888
 20
103.9526454600827
 30
0.0
  0
VERTEX
  5
479
  8
LAYER_1
 10
154.9073977126549
 20
104.1600015500962
 30
0.0
  0
VERTEX
  5
47A
  8
LAYER_1
 10
154.5508506772125
 20
104.3520187420972
 30
0.0
  0
VERTEX
  5
47B
  8
LAYER_1
 10
154.1846537859623
 20
104.5284321242555
 30
0.0
  0
VERTEX
  5
47C
  8
LAYER_1
 10
153.8091882183051
 20
104.6889767847405
 30
0.0
  0
VERTEX
  5
47D
  8
LAYER_1
 10
153.4248351536415
 20
104.8333878117217
 30
0.0
  0
VERTEX
  5
47E
  8
LAYER_1
 10
153.0319757713723
 20
104.9614002933688
 30
0.0
  0
VERTEX
  5
47F
  8
LAYER_1
 10
152.6309912508983
 20
105.0727493178512
 30
0.0
  0
VERTEX
  5
480
  8
LAYER_1
 10
152.4027750756156
 20
105.1242583993877
 30
0.0
  0
VERTEX
  5
481
  8
LAYER_1
 10
152.1527191978567
 20
105.1688502254085
 30
0.0
  0
VERTEX
  5
482
  8
LAYER_1
 10
151.8839761733063
 20
105.2065277741273
 30
0.0
  0
VERTEX
  5
483
  8
LAYER_1
 10
151.5996985576493
 20
105.2372940237572
 30
0.0
  0
VERTEX
  5
484
  8
LAYER_1
 10
150.9971497757545
 20
105.2781045386045
 30
0.0
  0
VERTEX
  5
485
  8
LAYER_1
 10
150.3702932976508
 20
105.2913055956572
 30
0.0
  0
VERTEX
  5
486
  8
LAYER_1
 10
149.7443495688164
 20
105.2769210206225
 30
0.0
  0
VERTEX
  5
487
  8
LAYER_1
 10
149.4396013745872
 20
105.2593915666059
 30
0.0
  0
VERTEX
  5
488
  8
LAYER_1
 10
149.1445390347297
 20
105.2349746392075
 30
0.0
  0
VERTEX
  5
489
  8
LAYER_1
 10
148.8623151049288
 20
105.2036732166409
 30
0.0
  0
VERTEX
  5
48A
  8
LAYER_1
 10
148.5960821408692
 20
105.1654902771193
 30
0.0
  0
VERTEX
  5
48B
  8
LAYER_1
 10
148.3489926982357
 20
105.1204287988561
 30
0.0
  0
VERTEX
  5
48C
  8
LAYER_1
 10
148.1241993327131
 20
105.0684917600648
 30
0.0
  0
VERTEX
  5
48D
  8
LAYER_1
 10
147.8331261705672
 20
104.9868731421475
 30
0.0
  0
VERTEX
  5
48E
  8
LAYER_1
 10
147.5452848277081
 20
104.8946174338936
 30
0.0
  0
VERTEX
  5
48F
  8
LAYER_1
 10
147.2609281364519
 20
104.7919832523529
 30
0.0
  0
VERTEX
  5
490
  8
LAYER_1
 10
146.980308929115
 20
104.6792292145751
 30
0.0
  0
VERTEX
  5
491
  8
LAYER_1
 10
146.7036800380135
 20
104.5566139376098
 30
0.0
  0
VERTEX
  5
492
  8
LAYER_1
 10
146.4312942954637
 20
104.4243960385069
 30
0.0
  0
VERTEX
  5
493
  8
LAYER_1
 10
146.1634045337818
 20
104.2828341343161
 30
0.0
  0
VERTEX
  5
494
  8
LAYER_1
 10
145.900263585284
 20
104.132186842087
 30
0.0
  0
VERTEX
  5
495
  8
LAYER_1
 10
145.6421242822866
 20
103.9727127788694
 30
0.0
  0
VERTEX
  5
496
  8
LAYER_1
 10
145.3892394571058
 20
103.8046705617129
 30
0.0
  0
VERTEX
  5
497
  8
LAYER_1
 10
145.1418619420577
 20
103.6283188076674
 30
0.0
  0
VERTEX
  5
498
  8
LAYER_1
 10
144.9002445694587
 20
103.4439161337826
 30
0.0
  0
VERTEX
  5
499
  8
LAYER_1
 10
144.664640171625
 20
103.251721157108
 30
0.0
  0
VERTEX
  5
49A
  8
LAYER_1
 10
144.4353015808728
 20
103.0519924946936
 30
0.0
  0
VERTEX
  5
49B
  8
LAYER_1
 10
144.2124816295183
 20
102.844988763589
 30
0.0
  0
VERTEX
  5
49C
  8
LAYER_1
 10
143.9964331498777
 20
102.6309685808438
 30
0.0
  0
VERTEX
  5
49D
  8
LAYER_1
 10
143.7874089742673
 20
102.4101905635079
 30
0.0
  0
VERTEX
  5
49E
  8
LAYER_1
 10
143.5856619350033
 20
102.182913328631
 30
0.0
  0
VERTEX
  5
49F
  8
LAYER_1
 10
143.3914448644018
 20
101.9493954932627
 30
0.0
  0
VERTEX
  5
4A0
  8
LAYER_1
 10
143.2050105947793
 20
101.7098956744528
 30
0.0
  0
VERTEX
  5
4A1
  8
LAYER_1
 10
143.0266119584517
 20
101.464672489251
 30
0.0
  0
VERTEX
  5
4A2
  8
LAYER_1
 10
142.8565017877355
 20
101.2139845547071
 30
0.0
  0
VERTEX
  5
4A3
  8
LAYER_1
 10
142.6949329149468
 20
100.9580904878707
 30
0.0
  0
VERTEX
  5
4A4
  8
LAYER_1
 10
142.5421581724019
 20
100.6972489057916
 30
0.0
  0
VERTEX
  5
4A5
  8
LAYER_1
 10
142.3984303924169
 20
100.4317184255194
 30
0.0
  0
VERTEX
  5
4A6
  8
LAYER_1
 10
142.2640024073081
 20
100.161757664104
 30
0.0
  0
VERTEX
  5
4A7
  8
LAYER_1
 10
142.1391270493917
 20
99.88762523859494
 30
0.0
  0
VERTEX
  5
4A8
  8
LAYER_1
 10
142.024057150984
 20
99.60957976604206
 30
0.0
  0
VERTEX
  5
4A9
  8
LAYER_1
 10
141.9190455444012
 20
99.32787986349504
 30
0.0
  0
VERTEX
  5
4AA
  8
LAYER_1
 10
141.8243450619594
 20
99.04278414800362
 30
0.0
  0
VERTEX
  5
4AB
  8
LAYER_1
 10
141.740208535975
 20
98.7545512366175
 30
0.0
  0
VERTEX
  5
4AC
  8
LAYER_1
 10
141.6668887987641
 20
98.4634397463864
 30
0.0
  0
VERTEX
  5
4AD
  8
LAYER_1
 10
141.6138981930029
 20
98.2114542464008
 30
0.0
  0
VERTEX
  5
4AE
  8
LAYER_1
 10
141.5680386753577
 20
97.94480522277418
 30
0.0
  0
VERTEX
  5
4AF
  8
LAYER_1
 10
141.5293070460583
 20
97.66584407724815
 30
0.0
  0
VERTEX
  5
4B0
  8
LAYER_1
 10
141.4977001053348
 20
97.37692221156436
 30
0.0
  0
VERTEX
  5
4B1
  8
LAYER_1
 10
141.4558474905349
 20
96.77860192669011
 30
0.0
  0
VERTEX
  5
4B2
  8
LAYER_1
 10
141.4424552327975
 20
96.1686555820846
 30
0.0
  0
VERTEX
  5
4B3
  8
LAYER_1
 10
141.4574977339621
 20
95.56589439168096
 30
0.0
  0
VERTEX
  5
4B4
  8
LAYER_1
 10
141.4756740197074
 20
95.27308673365894
 30
0.0
  0
VERTEX
  5
4B5
  8
LAYER_1
 10
141.5009493958681
 20
94.98912956941236
 30
0.0
  0
VERTEX
  5
4B6
  8
LAYER_1
 10
141.533320662674
 20
94.71637430068282
 30
0.0
  0
VERTEX
  5
4B7
  8
LAYER_1
 10
141.5727846203551
 20
94.45717232921194
 30
0.0
  0
VERTEX
  5
4B8
  8
LAYER_1
 10
141.6193380691412
 20
94.2138750567414
 30
0.0
  0
VERTEX
  5
4B9
  8
LAYER_1
 10
141.6729778092624
 20
93.98883388501287
 30
0.0
  0
VERTEX
  5
4BA
  8
LAYER_1
 10
141.7554584575372
 20
93.69969202043654
 30
0.0
  0
VERTEX
  5
4BB
  8
LAYER_1
 10
141.8481718353757
 20
93.41396749407724
 30
0.0
  0
VERTEX
  5
4BC
  8
LAYER_1
 10
141.9508923839652
 20
93.13188126649169
 30
0.0
  0
VERTEX
  5
4BD
  8
LAYER_1
 10
142.0633945444927
 20
92.85365429823656
 30
0.0
  0
VERTEX
  5
4BE
  8
LAYER_1
 10
142.1854527581453
 20
92.57950754986852
 30
0.0
  0
VERTEX
  5
4BF
  8
LAYER_1
 10
142.3168414661102
 20
92.30966198194429
 30
0.0
  0
VERTEX
  5
4C0
  8
LAYER_1
 10
142.4573351095746
 20
92.04433855502052
 30
0.0
  0
VERTEX
  5
4C1
  8
LAYER_1
 10
142.6067081297253
 20
91.7837582296539
 30
0.0
  0
VERTEX
  5
4C2
  8
LAYER_1
 10
142.7647349677497
 20
91.52814196640112
 30
0.0
  0
VERTEX
  5
4C3
  8
LAYER_1
 10
142.9311900648349
 20
91.27771072581889
 30
0.0
  0
VERTEX
  5
4C4
  8
LAYER_1
 10
143.1058478621679
 20
91.03268546846388
 30
0.0
  0
VERTEX
  5
4C5
  8
LAYER_1
 10
143.2884828009358
 20
90.79328715489275
 30
0.0
  0
VERTEX
  5
4C6
  8
LAYER_1
 10
143.4788693223258
 20
90.5597367456622
 30
0.0
  0
VERTEX
  5
4C7
  8
LAYER_1
 10
143.676781867525
 20
90.33225520132895
 30
0.0
  0
VERTEX
  5
4C8
  8
LAYER_1
 10
143.8819948777205
 20
90.11106348244965
 30
0.0
  0
VERTEX
  5
4C9
  8
LAYER_1
 10
144.0942827940995
 20
89.89638254958098
 30
0.0
  0
VERTEX
  5
4CA
  8
LAYER_1
 10
144.3134200578489
 20
89.68843336327964
 30
0.0
  0
VERTEX
  5
4CB
  8
LAYER_1
 10
144.539181110156
 20
89.48743688410232
 30
0.0
  0
VERTEX
  5
4CC
  8
LAYER_1
 10
144.7713403922079
 20
89.29361407260569
 30
0.0
  0
VERTEX
  5
4CD
  8
LAYER_1
 10
145.0096723451917
 20
89.10718588934645
 30
0.0
  0
VERTEX
  5
4CE
  8
LAYER_1
 10
145.2539514102944
 20
88.92837329488128
 30
0.0
  0
VERTEX
  5
4CF
  8
LAYER_1
 10
145.5039520287033
 20
88.75739724976688
 30
0.0
  0
VERTEX
  5
4D0
  8
LAYER_1
 10
145.7594486416054
 20
88.5944787145599
 30
0.0
  0
VERTEX
  5
4D1
  8
LAYER_1
 10
146.0202156901878
 20
88.43983864981706
 30
0.0
  0
VERTEX
  5
4D2
  8
LAYER_1
 10
146.2860276156377
 20
88.29369801609504
 30
0.0
  0
VERTEX
  5
4D3
  8
LAYER_1
 10
146.5566588591422
 20
88.1562777739505
 30
0.0
  0
VERTEX
  5
4D4
  8
LAYER_1
 10
146.8318838618883
 20
88.02779888394016
 30
0.0
  0
VERTEX
  5
4D5
  8
LAYER_1
 10
147.1114770650633
 20
87.90848230662068
 30
0.0
  0
VERTEX
  5
4D6
  8
LAYER_1
 10
147.3952129098542
 20
87.79854900254875
 30
0.0
  0
VERTEX
  5
4D7
  8
LAYER_1
 10
147.6828658374481
 20
87.69821993228108
 30
0.0
  0
VERTEX
  5
4D8
  8
LAYER_1
 10
147.9742102890321
 20
87.60771605637431
 30
0.0
  0
VERTEX
  5
4D9
  8
LAYER_1
 10
148.2690207057935
 20
87.52725833538516
 30
0.0
  0
VERTEX
  5
4DA
  8
LAYER_1
 10
148.5061001179783
 20
87.47321296140922
 30
0.0
  0
VERTEX
  5
4DB
  8
LAYER_1
 10
148.7591497468181
 20
87.42717311773464
 30
0.0
  0
VERTEX
  5
4DC
  8
LAYER_1
 10
149.0261029830187
 20
87.38910407998665
 30
0.0
  0
VERTEX
  5
4DD
  8
LAYER_1
 10
149.3048932172858
 20
87.35897112379047
 30
0.0
  0
VERTEX
  5
4DE
  8
LAYER_1
 10
149.5934538403254
 20
87.3367395247713
 30
0.0
  0
VERTEX
  5
4DF
  8
LAYER_1
 10
149.8897182428431
 20
87.32237455855439
 30
0.0
  0
VERTEX
  5
4E0
  8
LAYER_1
 10
150.1916198155449
 20
87.31584150076492
 30
0.0
  0
VERTEX
  5
4E1
  8
LAYER_1
 10
150.4970919491365
 20
87.3171056270281
 30
0.0
  0
VERTEX
  5
4E2
  8
LAYER_1
 10
150.8040680343238
 20
87.32613221296917
 30
0.0
  0
VERTEX
  5
4E3
  8
LAYER_1
 10
151.1104814618127
 20
87.34288653421336
 30
0.0
  0
VERTEX
  5
4E4
  8
LAYER_1
 10
151.4142656223088
 20
87.36733386638585
 30
0.0
  0
VERTEX
  5
4E5
  8
LAYER_1
 10
151.713353906518
 20
87.39943948511186
 30
0.0
  0
VERTEX
  5
4E6
  8
LAYER_1
 10
152.0056797051462
 20
87.43916866601663
 30
0.0
  0
VERTEX
  5
4E7
  8
LAYER_1
 10
152.2891764088992
 20
87.48648668472532
 30
0.0
  0
VERTEX
  5
4E8
  8
LAYER_1
 10
152.5617774084827
 20
87.54135881686322
 30
0.0
  0
SEQEND
  5
7D0
  8
LAYER_1
  0
POLYLINE
  5
68
  8
LAYER_1
 66
     1
 10
0.0
 20
0.0
 30
0.0
 70
     1
  0
VERTEX
  5
4E9
  8
LAYER_1
 10
114.264707316674
 20
127.7134791637978
 30
0.0
  0
VERTEX
  5
4EA
  8
LAYER_1
 10
114.4281185017866
 20
127.8681749571562
 30
0.0
  0
VERTEX
  5
4EB
  8
LAYER_1
 10
114.5569922455161
 20
128.0042045164176
 30
0.0
  0
VERTEX
  5
4EC
  8
LAYER_1
 10
114.6552581215033
 20
128.1298246287571
 30
0.0
  0
VERTEX
  5
4ED
  8
LAYER_1
 10
114.7268457033892
 20
128.2532920813496
 30
0.0
  0
VERTEX
  5
4EE
  8
LAYER_1
 10
114.7756845648145
 20
128.38286366137
 30
0.0
  0
VERTEX
  5
4EF
  8
LAYER_1
 10
114.8057042794201
 20
128.5267961559935
 30
0.0
  0
VERTEX
  5
4F0
  8
LAYER_1
 10
114.8208344208468
 20
128.6933463523949
 30
0.0
  0
VERTEX
  5
4F1
  8
LAYER_1
 10
114.8250045627356
 20
128.8907710377493
 30
0.0
  0
VERTEX
  5
4F2
  8
LAYER_1
 10
114.8113196833326
 20
129.194225015319
 30
0.0
  0
VERTEX
  5
4F3
  8
LAYER_1
 10
114.7941356079375
 20
129.3352798878785
 30
0.0
  0
VERTEX
  5
4F4
  8
LAYER_1
 10
114.7699877966213
 20
129.4693482216801
 30
0.0
  0
VERTEX
  5
4F5
  8
LAYER_1
 10
114.7388242652896
 20
129.5965261707681
 30
0.0
  0
VERTEX
  5
4F6
  8
LAYER_1
 10
114.7005930298484
 20
129.7169098891867
 30
0.0
  0
VERTEX
  5
4F7
  8
LAYER_1
 10
114.6552421062034
 20
129.8305955309801
 30
0.0
  0
VERTEX
  5
4F8
  8
LAYER_1
 10
114.6027195102604
 20
129.9376792501926
 30
0.0
  0
VERTEX
  5
4F9
  8
LAYER_1
 10
114.5429732579254
 20
130.0382572008683
 30
0.0
  0
VERTEX
  5
4FA
  8
LAYER_1
 10
114.475951365104
 20
130.1324255370515
 30
0.0
  0
VERTEX
  5
4FB
  8
LAYER_1
 10
114.4016018477023
 20
130.2202804127866
 30
0.0
  0
VERTEX
  5
4FC
  8
LAYER_1
 10
114.3198727216259
 20
130.3019179821176
 30
0.0
  0
VERTEX
  5
4FD
  8
LAYER_1
 10
114.2307120027807
 20
130.3774343990888
 30
0.0
  0
VERTEX
  5
4FE
  8
LAYER_1
 10
114.1340677070726
 20
130.4469258177445
 30
0.0
  0
VERTEX
  5
4FF
  8
LAYER_1
 10
114.0298878504073
 20
130.5104883921289
 30
0.0
  0
VERTEX
  5
500
  8
LAYER_1
 10
113.9181204486907
 20
130.5682182762862
 30
0.0
  0
VERTEX
  5
501
  8
LAYER_1
 10
113.6767183436246
 20
130.6663791512337
 30
0.0
  0
VERTEX
  5
502
  8
LAYER_1
 10
113.4362731491999
 20
130.7327455749849
 30
0.0
  0
VERTEX
  5
503
  8
LAYER_1
 10
113.1988018089487
 20
130.7685256671723
 30
0.0
  0
VERTEX
  5
504
  8
LAYER_1
 10
112.9663212664034
 20
130.7749275474281
 30
0.0
  0
VERTEX
  5
505
  8
LAYER_1
 10
112.7408484650961
 20
130.7531593353848
 30
0.0
  0
VERTEX
  5
506
  8
LAYER_1
 10
112.5244003485593
 20
130.7044291506745
 30
0.0
  0
VERTEX
  5
507
  8
LAYER_1
 10
112.3189938603251
 20
130.6299451129296
 30
0.0
  0
VERTEX
  5
508
  8
LAYER_1
 10
112.1266459439259
 20
130.5309153417824
 30
0.0
  0
VERTEX
  5
509
  8
LAYER_1
 10
111.9493735428939
 20
130.4085479568652
 30
0.0
  0
VERTEX
  5
50A
  8
LAYER_1
 10
111.7891936007615
 20
130.2640510778104
 30
0.0
  0
VERTEX
  5
50B
  8
LAYER_1
 10
111.6481230610608
 20
130.0986328242502
 30
0.0
  0
VERTEX
  5
50C
  8
LAYER_1
 10
111.5281788673243
 20
129.9135013158169
 30
0.0
  0
VERTEX
  5
50D
  8
LAYER_1
 10
111.4313779630841
 20
129.7098646721428
 30
0.0
  0
VERTEX
  5
50E
  8
LAYER_1
 10
111.392286539379
 20
129.6014844619756
 30
0.0
  0
VERTEX
  5
50F
  8
LAYER_1
 10
111.3597372918726
 20
129.4889310128604
 30
0.0
  0
VERTEX
  5
510
  8
LAYER_1
 10
111.3339823385064
 20
129.3723553397511
 30
0.0
  0
VERTEX
  5
511
  8
LAYER_1
 10
111.315273797222
 20
129.2519084576018
 30
0.0
  0
VERTEX
  5
512
  8
LAYER_1
 10
111.3038637859609
 20
129.1277413813666
 30
0.0
  0
VERTEX
  5
513
  8
LAYER_1
 10
111.3000044226646
 20
129.0000051259995
 30
0.0
  0
VERTEX
  5
514
  8
LAYER_1
 10
111.3091702306342
 20
128.8089255828837
 30
0.0
  0
VERTEX
  5
515
  8
LAYER_1
 10
111.3361710993565
 20
128.6249770980972
 30
0.0
  0
VERTEX
  5
516
  8
LAYER_1
 10
111.3802621960525
 20
128.4488767173879
 30
0.0
  0
VERTEX
  5
517
  8
LAYER_1
 10
111.4406986879428
 20
128.2813414865037
 30
0.0
  0
VERTEX
  5
518
  8
LAYER_1
 10
111.5167357422482
 20
128.1230884511923
 30
0.0
  0
VERTEX
  5
519
  8
LAYER_1
 10
111.6076285261893
 20
127.9748346572017
 30
0.0
  0
VERTEX
  5
51A
  8
LAYER_1
 10
111.7126322069871
 20
127.8372971502798
 30
0.0
  0
VERTEX
  5
51B
  8
LAYER_1
 10
111.831001951862
 20
127.7111929761745
 30
0.0
  0
VERTEX
  5
51C
  8
LAYER_1
 10
111.961992928035
 20
127.5972391806336
 30
0.0
  0
VERTEX
  5
51D
  8
LAYER_1
 10
112.1048603027268
 20
127.496152809405
 30
0.0
  0
VERTEX
  5
51E
  8
LAYER_1
 10
112.258859243158
 20
127.4086509082367
 30
0.0
  0
VERTEX
  5
51F
  8
LAYER_1
 10
112.4232449165494
 20
127.3354505228764
 30
0.0
  0
VERTEX
  5
520
  8
LAYER_1
 10
112.5972724901218
 20
127.2772686990721
 30
0.0
  0
VERTEX
  5
521
  8
LAYER_1
 10
112.7801971310959
 20
127.2348224825717
 30
0.0
  0
VERTEX
  5
522
  8
LAYER_1
 10
112.9712740066924
 20
127.208828919123
 30
0.0
  0
VERTEX
  5
523
  8
LAYER_1
 10
113.169758284132
 20
127.2000050544739
 30
0.0
  0
VERTEX
  5
524
  8
LAYER_1
 10
113.3143660596106
 20
127.2063267421823
 30
0.0
  0
VERTEX
  5
525
  8
LAYER_1
 10
113.4505432142616
 20
127.2262640025932
 30
0.0
  0
VERTEX
  5
526
  8
LAYER_1
 10
113.5813994661545
 20
127.2612751316349
 30
0.0
  0
VERTEX
  5
527
  8
LAYER_1
 10
113.7100445333586
 20
127.3128184252357
 30
0.0
  0
VERTEX
  5
528
  8
LAYER_1
 10
113.8395881339432
 20
127.3823521793241
 30
0.0
  0
VERTEX
  5
529
  8
LAYER_1
 10
113.9731399859778
 20
127.4713346898284
 30
0.0
  0
VERTEX
  5
52A
  8
LAYER_1
 10
114.1138098075316
 20
127.5812242526768
 30
0.0
  0
SEQEND
  5
7D1
  8
LAYER_1
  0
POLYLINE
  5
69
  8
LAYER_1
 66
     1
 10
0.0
 20
0.0
 30
0.0
 70
     1
  0
VERTEX
  5
52B
  8
LAYER_1
 10
94.57500375807285
 20
149.9931101024124
 30
0.0
  0
VERTEX
  5
52C
  8
LAYER_1
 10
94.71858770866416
 20
150.0704782291674
 30
0.0
  0
VERTEX
  5
52D
  8
LAYER_1
 10
94.88776429799644
 20
150.189403925874
 30
0.0
  0
VERTEX
  5
52E
  8
LAYER_1
 10
95.06142064715945
 20
150.333678385265
 30
0.0
  0
VERTEX
  5
52F
  8
LAYER_1
 10
95.21844387724292
 20
150.4870928000735
 30
0.0
  0
VERTEX
  5
530
  8
LAYER_1
 10
95.30701399057831
 20
150.5905281499236
 30
0.0
  0
VERTEX
  5
531
  8
LAYER_1
 10
95.38502102687946
 20
150.6981870674082
 30
0.0
  0
VERTEX
  5
532
  8
LAYER_1
 10
95.45268405921817
 20
150.8095772324779
 30
0.0
  0
VERTEX
  5
533
  8
LAYER_1
 10
95.51022216066627
 20
150.9242063250835
 30
0.0
  0
VERTEX
  5
534
  8
LAYER_1
 10
95.55785440429561
 20
151.0415820251757
 30
0.0
  0
VERTEX
  5
535
  8
LAYER_1
 10
95.59579986317799
 20
151.1612120127052
 30
0.0
  0
VERTEX
  5
536
  8
LAYER_1
 10
95.62427761038526
 20
151.2826039676228
 30
0.0
  0
VERTEX
  5
537
  8
LAYER_1
 10
95.64350671898923
 20
151.4052655698792
 30
0.0
  0
VERTEX
  5
538
  8
LAYER_1
 10
95.65370626206175
 20
151.5287044994251
 30
0.0
  0
VERTEX
  5
539
  8
LAYER_1
 10
95.65509531267462
 20
151.6524284362112
 30
0.0
  0
VERTEX
  5
53A
  8
LAYER_1
 10
95.64789294389969
 20
151.7759450601883
 30
0.0
  0
VERTEX
  5
53B
  8
LAYER_1
 10
95.63231822880878
 20
151.8987620513071
 30
0.0
  0
VERTEX
  5
53C
  8
LAYER_1
 10
95.60859024047373
 20
152.0203870895183
 30
0.0
  0
VERTEX
  5
53D
  8
LAYER_1
 10
95.57692805196635
 20
152.1403278547726
 30
0.0
  0
VERTEX
  5
53E
  8
LAYER_1
 10
95.5375507363585
 20
152.2580920270208
 30
0.0
  0
VERTEX
  5
53F
  8
LAYER_1
 10
95.49067736672195
 20
152.3731872862136
 30
0.0
  0
VERTEX
  5
540
  8
LAYER_1
 10
95.43652701612858
 20
152.4851213123017
 30
0.0
  0
VERTEX
  5
541
  8
LAYER_1
 10
95.3753187576502
 20
152.5934017852359
 30
0.0
  0
VERTEX
  5
542
  8
LAYER_1
 10
95.30727166435864
 20
152.6975363849668
 30
0.0
  0
VERTEX
  5
543
  8
LAYER_1
 10
95.23260480932572
 20
152.7970327914452
 30
0.0
  0
VERTEX
  5
544
  8
LAYER_1
 10
95.15153726562329
 20
152.8913986846218
 30
0.0
  0
VERTEX
  5
545
  8
LAYER_1
 10
95.06428810632316
 20
152.9801417444475
 30
0.0
  0
VERTEX
  5
546
  8
LAYER_1
 10
94.97107640449715
 20
153.0627696508727
 30
0.0
  0
VERTEX
  5
547
  8
LAYER_1
 10
94.87212123321711
 20
153.1387900838484
 30
0.0
  0
VERTEX
  5
548
  8
LAYER_1
 10
94.76764166555486
 20
153.2077107233252
 30
0.0
  0
VERTEX
  5
549
  8
LAYER_1
 10
94.65785677458223
 20
153.2690392492538
 30
0.0
  0
VERTEX
  5
54A
  8
LAYER_1
 10
94.54298563337105
 20
153.322283341585
 30
0.0
  0
VERTEX
  5
54B
  8
LAYER_1
 10
94.42324731499313
 20
153.3669506802696
 30
0.0
  0
VERTEX
  5
54C
  8
LAYER_1
 10
94.29886089252031
 20
153.4025489452581
 30
0.0
  0
VERTEX
  5
54D
  8
LAYER_1
 10
94.17004543902443
 20
153.4285858165014
 30
0.0
  0
VERTEX
  5
54E
  8
LAYER_1
 10
94.0370200275773
 20
153.4445689739502
 30
0.0
  0
VERTEX
  5
54F
  8
LAYER_1
 10
93.90000373125076
 20
153.4500060975552
 30
0.0
  0
VERTEX
  5
550
  8
LAYER_1
 10
93.72963814655802
 20
153.4396589611925
 30
0.0
  0
VERTEX
  5
551
  8
LAYER_1
 10
93.56104506954037
 20
153.409478174467
 30
0.0
  0
VERTEX
  5
552
  8
LAYER_1
 10
93.39549898068287
 20
153.3607546709225
 30
0.0
  0
VERTEX
  5
553
  8
LAYER_1
 10
93.2342743604706
 20
153.2947793841027
 30
0.0
  0
VERTEX
  5
554
  8
LAYER_1
 10
93.07864568938861
 20
153.2128432475516
 30
0.0
  0
VERTEX
  5
555
  8
LAYER_1
 10
92.92988744792194
 20
153.116237194813
 30
0.0
  0
VERTEX
  5
556
  8
LAYER_1
 10
92.78927411655569
 20
153.0062521594305
 30
0.0
  0
VERTEX
  5
557
  8
LAYER_1
 10
92.6580801757749
 20
152.8841790749482
 30
0.0
  0
VERTEX
  5
558
  8
LAYER_1
 10
92.53758010606464
 20
152.7513088749096
 30
0.0
  0
VERTEX
  5
559
  8
LAYER_1
 10
92.42904838790999
 20
152.6089324928588
 30
0.0
  0
VERTEX
  5
55A
  8
LAYER_1
 10
92.33375950179598
 20
152.4583408623395
 30
0.0
  0
VERTEX
  5
55B
  8
LAYER_1
 10
92.25298792820772
 20
152.3008249168955
 30
0.0
  0
VERTEX
  5
55C
  8
LAYER_1
 10
92.18800814763021
 20
152.1376755900706
 30
0.0
  0
VERTEX
  5
55D
  8
LAYER_1
 10
92.14009464054858
 20
151.9701838154086
 30
0.0
  0
VERTEX
  5
55E
  8
LAYER_1
 10
92.11052188744786
 20
151.7996405264535
 30
0.0
  0
VERTEX
  5
55F
  8
LAYER_1
 10
92.10056436881311
 20
151.6273366567488
 30
0.0
  0
VERTEX
  5
560
  8
LAYER_1
 10
92.10488402451757
 20
151.523631169311
 30
0.0
  0
VERTEX
  5
561
  8
LAYER_1
 10
92.11728644455633
 20
151.4210940948849
 30
0.0
  0
VERTEX
  5
562
  8
LAYER_1
 10
92.16499051255363
 20
151.220416165866
 30
0.0
  0
VERTEX
  5
563
  8
LAYER_1
 10
92.24097844263869
 20
151.0270848312884
 30
0.0
  0
VERTEX
  5
564
  8
LAYER_1
 10
92.34255210464522
 20
150.842882052749
 30
0.0
  0
VERTEX
  5
565
  8
LAYER_1
 10
92.467013368407
 20
150.6695897918443
 30
0.0
  0
VERTEX
  5
566
  8
LAYER_1
 10
92.61166410375768
 20
150.5089900101709
 30
0.0
  0
VERTEX
  5
567
  8
LAYER_1
 10
92.773806180531
 20
150.3628646693254
 30
0.0
  0
VERTEX
  5
568
  8
LAYER_1
 10
92.95074146856066
 20
150.2329957309044
 30
0.0
  0
VERTEX
  5
569
  8
LAYER_1
 10
93.1397718376804
 20
150.1211651565045
 30
0.0
  0
VERTEX
  5
56A
  8
LAYER_1
 10
93.33819915772395
 20
150.0291549077224
 30
0.0
  0
VERTEX
  5
56B
  8
LAYER_1
 10
93.54332529852499
 20
149.9587469461547
 30
0.0
  0
VERTEX
  5
56C
  8
LAYER_1
 10
93.75245212991726
 20
149.9117232333979
 30
0.0
  0
VERTEX
  5
56D
  8
LAYER_1
 10
93.96288152173446
 20
149.8898657310486
 30
0.0
  0
VERTEX
  5
56E
  8
LAYER_1
 10
94.17191534381033
 20
149.8949564007036
 30
0.0
  0
VERTEX
  5
56F
  8
LAYER_1
 10
94.2750657505183
 20
149.9081641630316
 30
0.0
  0
VERTEX
  5
570
  8
LAYER_1
 10
94.37685546597855
 20
149.9287772039593
 30
0.0
  0
VERTEX
  5
571
  8
LAYER_1
 10
94.47694722392035
 20
149.9570182686864
 30
0.0
  0
SEQEND
  5
7D2
  8
LAYER_1
  0
POLYLINE
  5
6A
  8
LAYER_1
 66
     1
 10
0.0
 20
0.0
 30
0.0
 70
     1
  0
VERTEX
  5
572
  8
LAYER_1
 10
206.6250082105398
 20
151.041809516658
 30
0.0
  0
VERTEX
  5
573
  8
LAYER_1
 10
206.7639313875288
 20
151.1144346069194
 30
0.0
  0
VERTEX
  5
574
  8
LAYER_1
 10
206.9204177517063
 20
151.2214075616781
 30
0.0
  0
VERTEX
  5
575
  8
LAYER_1
 10
207.0752925676402
 20
151.3483245984638
 30
0.0
  0
VERTEX
  5
576
  8
LAYER_1
 10
207.2093810998985
 20
151.4807819348059
 30
0.0
  0
VERTEX
  5
577
  8
LAYER_1
 10
207.2707733855016
 20
151.5616988823008
 30
0.0
  0
VERTEX
  5
578
  8
LAYER_1
 10
207.3293780218096
 20
151.6635610262794
 30
0.0
  0
VERTEX
  5
579
  8
LAYER_1
 10
207.3841796917764
 20
151.7833358141562
 30
0.0
  0
VERTEX
  5
57A
  8
LAYER_1
 10
207.4341630783561
 20
151.9179906933456
 30
0.0
  0
VERTEX
  5
57B
  8
LAYER_1
 10
207.4783128645028
 20
152.0644931112622
 30
0.0
  0
VERTEX
  5
57C
  8
LAYER_1
 10
207.5156137331705
 20
152.2198105153204
 30
0.0
  0
VERTEX
  5
57D
  8
LAYER_1
 10
207.5450503673135
 20
152.3809103529346
 30
0.0
  0
VERTEX
  5
57E
  8
LAYER_1
 10
207.5656074498857
 20
152.5447600715194
 30
0.0
  0
VERTEX
  5
57F
  8
LAYER_1
 10
207.5854717932029
 20
152.7797591605065
 30
0.0
  0
VERTEX
  5
580
  8
LAYER_1
 10
207.5919107018577
 20
152.9692691816942
 30
0.0
  0
VERTEX
  5
581
  8
LAYER_1
 10
207.5806406854879
 20
153.1252583652868
 30
0.0
  0
VERTEX
  5
582
  8
LAYER_1
 10
207.5473782537313
 20
153.2596949414886
 30
0.0
  0
VERTEX
  5
583
  8
LAYER_1
 10
207.4878399162258
 20
153.3845471405041
 30
0.0
  0
VERTEX
  5
584
  8
LAYER_1
 10
207.3977421826091
 20
153.5117831925376
 30
0.0
  0
VERTEX
  5
585
  8
LAYER_1
 10
207.2728015625191
 20
153.6533713277935
 30
0.0
  0
VERTEX
  5
586
  8
LAYER_1
 10
207.1087345655935
 20
153.8212797764762
 30
0.0
  0
VERTEX
  5
587
  8
LAYER_1
 10
206.9462938932168
 20
153.978593433702
 30
0.0
  0
VERTEX
  5
588
  8
LAYER_1
 10
206.8038371888766
 20
154.1016654361363
 30
0.0
  0
VERTEX
  5
589
  8
LAYER_1
 10
206.6712699780151
 20
154.1945847736578
 30
0.0
  0
VERTEX
  5
58A
  8
LAYER_1
 10
206.5384977860741
 20
154.2614404361447
 30
0.0
  0
VERTEX
  5
58B
  8
LAYER_1
 10
206.3954261384958
 20
154.3063214134757
 30
0.0
  0
VERTEX
  5
58C
  8
LAYER_1
 10
206.231960560722
 20
154.3333166955293
 30
0.0
  0
VERTEX
  5
58D
  8
LAYER_1
 10
206.0380065781949
 20
154.3465152721839
 30
0.0
  0
VERTEX
  5
58E
  8
LAYER_1
 10
205.8034697163564
 20
154.3500061333179
 30
0.0
  0
VERTEX
  5
58F
  8
LAYER_1
 10
205.5775095262727
 20
154.3464110124827
 30
0.0
  0
VERTEX
  5
590
  8
LAYER_1
 10
205.3881830002654
 20
154.3337651694196
 30
0.0
  0
VERTEX
  5
591
  8
LAYER_1
 10
205.2277569040174
 20
154.3092778832926
 30
0.0
  0
VERTEX
  5
592
  8
LAYER_1
 10
205.088498003212
 20
154.2701584332654
 30
0.0
  0
VERTEX
  5
593
  8
LAYER_1
 10
204.9626730635322
 20
154.2136160985021
 30
0.0
  0
VERTEX
  5
594
  8
LAYER_1
 10
204.8425488506609
 20
154.1368601581664
 30
0.0
  0
VERTEX
  5
595
  8
LAYER_1
 10
204.7203921302814
 20
154.0370998914223
 30
0.0
  0
VERTEX
  5
596
  8
LAYER_1
 10
204.5884696680766
 20
153.9115445774335
 30
0.0
  0
VERTEX
  5
597
  8
LAYER_1
 10
204.4629143540878
 20
153.7796221152287
 30
0.0
  0
VERTEX
  5
598
  8
LAYER_1
 10
204.3631540873437
 20
153.6574653948492
 30
0.0
  0
VERTEX
  5
599
  8
LAYER_1
 10
204.286398147008
 20
153.5373411819779
 30
0.0
  0
VERTEX
  5
59A
  8
LAYER_1
 10
204.2298558122447
 20
153.4115162422981
 30
0.0
  0
VERTEX
  5
59B
  8
LAYER_1
 10
204.1907363622175
 20
153.2722573414926
 30
0.0
  0
VERTEX
  5
59C
  8
LAYER_1
 10
204.1662490760905
 20
153.1118312452447
 30
0.0
  0
VERTEX
  5
59D
  8
LAYER_1
 10
204.1536032330274
 20
152.9225047192374
 30
0.0
  0
VERTEX
  5
59E
  8
LAYER_1
 10
204.1500081121922
 20
152.6965445291538
 30
0.0
  0
VERTEX
  5
59F
  8
LAYER_1
 10
204.153520603045
 20
152.4635343623263
 30
0.0
  0
VERTEX
  5
5A0
  8
LAYER_1
 10
204.1666045095827
 20
152.2704218145851
 30
0.0
  0
VERTEX
  5
5A1
  8
LAYER_1
 10
204.1930794827744
 20
152.1075713410649
 30
0.0
  0
VERTEX
  5
5A2
  8
LAYER_1
 10
204.236765173589
 20
151.9653473969003
 30
0.0
  0
VERTEX
  5
5A3
  8
LAYER_1
 10
204.3014812329957
 20
151.834114437226
 30
0.0
  0
VERTEX
  5
5A4
  8
LAYER_1
 10
204.3910473119633
 20
151.7042369171769
 30
0.0
  0
VERTEX
  5
5A5
  8
LAYER_1
 10
204.509283061461
 20
151.5660792918876
 30
0.0
  0
VERTEX
  5
5A6
  8
LAYER_1
 10
204.6600081324577
 20
151.4100060164928
 30
0.0
  0
VERTEX
  5
5A7
  8
LAYER_1
 10
204.8052835000032
 20
151.2706227256348
 30
0.0
  0
VERTEX
  5
5A8
  8
LAYER_1
 10
204.9374741599291
 20
151.1579825373818
 30
0.0
  0
VERTEX
  5
5A9
  8
LAYER_1
 10
205.061788485739
 20
151.0696884406462
 30
0.0
  0
VERTEX
  5
5AA
  8
LAYER_1
 10
205.1834348509364
 20
151.0033434243406
 30
0.0
  0
VERTEX
  5
5AB
  8
LAYER_1
 10
205.3076216290248
 20
150.9565504773774
 30
0.0
  0
VERTEX
  5
5AC
  8
LAYER_1
 10
205.4395571935077
 20
150.9269125886693
 30
0.0
  0
VERTEX
  5
5AD
  8
LAYER_1
 10
205.5844499178887
 20
150.9120327471286
 30
0.0
  0
VERTEX
  5
5AE
  8
LAYER_1
 10
205.7475081756711
 20
150.9095139416679
 30
0.0
  0
VERTEX
  5
5AF
  8
LAYER_1
 10
205.9954124823969
 20
150.9228944100027
 30
0.0
  0
VERTEX
  5
5B0
  8
LAYER_1
 10
206.2434925703798
 20
150.9522977943155
 30
0.0
  0
VERTEX
  5
5B1
  8
LAYER_1
 10
206.4629554697254
 20
150.9933831460521
 30
0.0
  0
SEQEND
  5
7D3
  8
LAYER_1
  0
POLYLINE
  5
6B
  8
LAYER_1
 66
     1
 10
0.0
 20
0.0
 30
0.0
 70
     1
  0
VERTEX
  5
5B2
  8
LAYER_1
 10
114.1032995198531
 20
155.3927642153725
 30
0.0
  0
VERTEX
  5
5B3
  8
LAYER_1
 10
114.2179414617644
 20
155.4699406117401
 30
0.0
  0
VERTEX
  5
5B4
  8
LAYER_1
 10
114.3224032881124
 20
155.5554685692493
 30
0.0
  0
VERTEX
  5
5B5
  8
LAYER_1
 10
114.416705488509
 20
155.649375681785
 30
0.0
  0
VERTEX
  5
5B6
  8
LAYER_1
 10
114.5008685525661
 20
155.7516895432321
 30
0.0
  0
VERTEX
  5
5B7
  8
LAYER_1
 10
114.5749129698955
 20
155.8624377474756
 30
0.0
  0
VERTEX
  5
5B8
  8
LAYER_1
 10
114.6388592301092
 20
155.9816478884002
 30
0.0
  0
VERTEX
  5
5B9
  8
LAYER_1
 10
114.692727822819
 20
156.1093475598909
 30
0.0
  0
VERTEX
  5
5BA
  8
LAYER_1
 10
114.7365392376368
 20
156.2455643558327
 30
0.0
  0
VERTEX
  5
5BB
  8
LAYER_1
 10
114.7937319029161
 20
156.4947417847075
 30
0.0
  0
VERTEX
  5
5BC
  8
LAYER_1
 10
114.8225083724047
 20
156.7296520898967
 30
0.0
  0
VERTEX
  5
5BD
  8
LAYER_1
 10
114.8220476476206
 20
156.9541656506687
 30
0.0
  0
VERTEX
  5
5BE
  8
LAYER_1
 10
114.8105967753505
 20
157.0637331454197
 30
0.0
  0
VERTEX
  5
5BF
  8
LAYER_1
 10
114.7915287300815
 20
157.172152846292
 30
0.0
  0
VERTEX
  5
5C0
  8
LAYER_1
 10
114.7647408870032
 20
157.2799085506943
 30
0.0
  0
VERTEX
  5
5C1
  8
LAYER_1
 10
114.7301306213054
 20
157.387484056035
 30
0.0
  0
VERTEX
  5
5C2
  8
LAYER_1
 10
114.6370323228103
 20
157.6040296591663
 30
0.0
  0
VERTEX
  5
5C3
  8
LAYER_1
 10
114.5114128361141
 20
157.8256600349542
 30
0.0
  0
VERTEX
  5
5C4
  8
LAYER_1
 10
114.3524511627346
 20
158.0562455626671
 30
0.0
  0
VERTEX
  5
5C5
  8
LAYER_1
 10
114.2200531418803
 20
158.2097920787125
 30
0.0
  0
VERTEX
  5
5C6
  8
LAYER_1
 10
114.0699813865033
 20
158.3408371093064
 30
0.0
  0
VERTEX
  5
5C7
  8
LAYER_1
 10
113.9048552011702
 20
158.4495310661543
 30
0.0
  0
VERTEX
  5
5C8
  8
LAYER_1
 10
113.7272938904475
 20
158.5360243609622
 30
0.0
  0
VERTEX
  5
5C9
  8
LAYER_1
 10
113.5399167589018
 20
158.6004674054357
 30
0.0
  0
VERTEX
  5
5CA
  8
LAYER_1
 10
113.3453431110998
 20
158.6430106112805
 30
0.0
  0
VERTEX
  5
5CB
  8
LAYER_1
 10
113.1461922516081
 20
158.6638043902025
 30
0.0
  0
VERTEX
  5
5CC
  8
LAYER_1
 10
112.9450834849933
 20
158.6629991539073
 30
0.0
  0
VERTEX
  5
5CD
  8
LAYER_1
 10
112.744636115822
 20
158.6407453141008
 30
0.0
  0
VERTEX
  5
5CE
  8
LAYER_1
 10
112.5474694486608
 20
158.5971932824885
 30
0.0
  0
VERTEX
  5
5CF
  8
LAYER_1
 10
112.3562027880763
 20
158.5324934707764
 30
0.0
  0
VERTEX
  5
5D0
  8
LAYER_1
 10
112.1734554386352
 20
158.4467962906701
 30
0.0
  0
VERTEX
  5
5D1
  8
LAYER_1
 10
112.0018467049041
 20
158.3402521538754
 30
0.0
  0
VERTEX
  5
5D2
  8
LAYER_1
 10
111.8439958914496
 20
158.213011472098
 30
0.0
  0
VERTEX
  5
5D3
  8
LAYER_1
 10
111.7025223028382
 20
158.0652246570437
 30
0.0
  0
VERTEX
  5
5D4
  8
LAYER_1
 10
111.5800452436367
 20
157.8970421204182
 30
0.0
  0
VERTEX
  5
5D5
  8
LAYER_1
 10
111.5014838986195
 20
157.7568789077059
 30
0.0
  0
VERTEX
  5
5D6
  8
LAYER_1
 10
111.4367206443088
 20
157.6093533562135
 30
0.0
  0
VERTEX
  5
5D7
  8
LAYER_1
 10
111.3855845248238
 20
157.4558055814728
 30
0.0
  0
VERTEX
  5
5D8
  8
LAYER_1
 10
111.3479045842836
 20
157.2975756990158
 30
0.0
  0
VERTEX
  5
5D9
  8
LAYER_1
 10
111.3235098668073
 20
157.1360038243744
 30
0.0
  0
VERTEX
  5
5DA
  8
LAYER_1
 10
111.312229416514
 20
156.9724300730805
 30
0.0
  0
VERTEX
  5
5DB
  8
LAYER_1
 10
111.3138922775228
 20
156.808194560666
 30
0.0
  0
VERTEX
  5
5DC
  8
LAYER_1
 10
111.3283274939528
 20
156.644637402663
 30
0.0
  0
VERTEX
  5
5DD
  8
LAYER_1
 10
111.3553641099232
 20
156.4830987146032
 30
0.0
  0
VERTEX
  5
5DE
  8
LAYER_1
 10
111.394831169553
 20
156.3249186120186
 30
0.0
  0
VERTEX
  5
5DF
  8
LAYER_1
 10
111.4465577169614
 20
156.1714372104411
 30
0.0
  0
VERTEX
  5
5E0
  8
LAYER_1
 10
111.5103727962675
 20
156.0239946254026
 30
0.0
  0
VERTEX
  5
5E1
  8
LAYER_1
 10
111.5861054515903
 20
155.8839309724352
 30
0.0
  0
VERTEX
  5
5E2
  8
LAYER_1
 10
111.673584727049
 20
155.7525863670706
 30
0.0
  0
VERTEX
  5
5E3
  8
LAYER_1
 10
111.7726396667628
 20
155.6313009248408
 30
0.0
  0
VERTEX
  5
5E4
  8
LAYER_1
 10
111.8830993148506
 20
155.5214147612778
 30
0.0
  0
VERTEX
  5
5E5
  8
LAYER_1
 10
111.9954710247785
 20
155.4298804037926
 30
0.0
  0
VERTEX
  5
5E6
  8
LAYER_1
 10
112.1149879794619
 20
155.3492684018516
 30
0.0
  0
VERTEX
  5
5E7
  8
LAYER_1
 10
112.2408730779642
 20
155.2796237849345
 30
0.0
  0
VERTEX
  5
5E8
  8
LAYER_1
 10
112.3723492193488
 20
155.2209915825208
 30
0.0
  0
VERTEX
  5
5E9
  8
LAYER_1
 10
112.5086393026791
 20
155.17341682409
 30
0.0
  0
VERTEX
  5
5EA
  8
LAYER_1
 10
112.6489662270184
 20
155.1369445391215
 30
0.0
  0
VERTEX
  5
5EB
  8
LAYER_1
 10
112.7925528914302
 20
155.1116197570952
 30
0.0
  0
VERTEX
  5
5EC
  8
LAYER_1
 10
112.9386221949777
 20
155.0974875074903
 30
0.0
  0
VERTEX
  5
5ED
  8
LAYER_1
 10
113.0863970367245
 20
155.0945928197866
 30
0.0
  0
VERTEX
  5
5EE
  8
LAYER_1
 10
113.2351003157338
 20
155.1029807234634
 30
0.0
  0
VERTEX
  5
5EF
  8
LAYER_1
 10
113.3839549310691
 20
155.1226962480004
 30
0.0
  0
VERTEX
  5
5F0
  8
LAYER_1
 10
113.5321837817937
 20
155.1537844228772
 30
0.0
  0
VERTEX
  5
5F1
  8
LAYER_1
 10
113.679009766971
 20
155.1962902775733
 30
0.0
  0
VERTEX
  5
5F2
  8
LAYER_1
 10
113.8236557856645
 20
155.2502588415681
 30
0.0
  0
VERTEX
  5
5F3
  8
LAYER_1
 10
113.9653447369374
 20
155.3157351443413
 30
0.0
  0
SEQEND
  5
7D4
  8
LAYER_1
  0
POLYLINE
  5
6C
  8
LAYER_1
 66
     1
 10
0.0
 20
0.0
 30
0.0
 70
     1
  0
VERTEX
  5
5F4
  8
LAYER_1
 10
165.6869601971327
 20
159.8740449087033
 30
0.0
  0
VERTEX
  5
5F5
  8
LAYER_1
 10
165.7837322377115
 20
159.9419935487869
 30
0.0
  0
VERTEX
  5
5F6
  8
LAYER_1
 10
165.8816967558002
 20
160.0239362048688
 30
0.0
  0
VERTEX
  5
5F7
  8
LAYER_1
 10
165.9781601555294
 20
160.1167528240677
 30
0.0
  0
VERTEX
  5
5F8
  8
LAYER_1
 10
166.0704288410298
 20
160.2173233535023
 30
0.0
  0
VERTEX
  5
5F9
  8
LAYER_1
 10
166.1558092164321
 20
160.322527740291
 30
0.0
  0
VERTEX
  5
5FA
  8
LAYER_1
 10
166.2316076858671
 20
160.4292459315526
 30
0.0
  0
VERTEX
  5
5FB
  8
LAYER_1
 10
166.2951306534654
 20
160.5343578744057
 30
0.0
  0
VERTEX
  5
5FC
  8
LAYER_1
 10
166.3436845233578
 20
160.6347435159689
 30
0.0
  0
VERTEX
  5
5FD
  8
LAYER_1
 10
166.3899191272357
 20
160.7607305283622
 30
0.0
  0
VERTEX
  5
5FE
  8
LAYER_1
 10
166.425840772992
 20
160.8898651016762
 30
0.0
  0
VERTEX
  5
5FF
  8
LAYER_1
 10
166.4515924261052
 20
161.0214598375571
 30
0.0
  0
VERTEX
  5
600
  8
LAYER_1
 10
166.467317052054
 20
161.154827337651
 30
0.0
  0
VERTEX
  5
601
  8
LAYER_1
 10
166.473157616317
 20
161.289280203604
 30
0.0
  0
VERTEX
  5
602
  8
LAYER_1
 10
166.4692570843728
 20
161.4241310370623
 30
0.0
  0
VERTEX
  5
603
  8
LAYER_1
 10
166.4557584216999
 20
161.5586924396718
 30
0.0
  0
VERTEX
  5
604
  8
LAYER_1
 10
166.4328045937771
 20
161.6922770130787
 30
0.0
  0
VERTEX
  5
605
  8
LAYER_1
 10
166.4005385660828
 20
161.8241973589291
 30
0.0
  0
VERTEX
  5
606
  8
LAYER_1
 10
166.3591033040958
 20
161.9537660788691
 30
0.0
  0
VERTEX
  5
607
  8
LAYER_1
 10
166.3086417732945
 20
162.0802957745448
 30
0.0
  0
VERTEX
  5
608
  8
LAYER_1
 10
166.2492969391577
 20
162.2030990476023
 30
0.0
  0
VERTEX
  5
609
  8
LAYER_1
 10
166.1812117671639
 20
162.3214884996877
 30
0.0
  0
VERTEX
  5
60A
  8
LAYER_1
 10
166.1045292227917
 20
162.4347767324471
 30
0.0
  0
VERTEX
  5
60B
  8
LAYER_1
 10
166.0193922715197
 20
162.5422763475266
 30
0.0
  0
VERTEX
  5
60C
  8
LAYER_1
 10
165.9259438788266
 20
162.6432999465723
 30
0.0
  0
VERTEX
  5
60D
  8
LAYER_1
 10
165.8175755923143
 20
162.7402893120647
 30
0.0
  0
VERTEX
  5
60E
  8
LAYER_1
 10
165.6984344102649
 20
162.8261703414563
 30
0.0
  0
VERTEX
  5
60F
  8
LAYER_1
 10
165.5699377275415
 20
162.9008405554875
 30
0.0
  0
VERTEX
  5
610
  8
LAYER_1
 10
165.4335029390069
 20
162.9641974748985
 30
0.0
  0
VERTEX
  5
611
  8
LAYER_1
 10
165.2905474395243
 20
163.0161386204296
 30
0.0
  0
VERTEX
  5
612
  8
LAYER_1
 10
165.1424886239564
 20
163.0565615128212
 30
0.0
  0
VERTEX
  5
613
  8
LAYER_1
 10
164.9907438871664
 20
163.0853636728136
 30
0.0
  0
VERTEX
  5
614
  8
LAYER_1
 10
164.8367306240171
 20
163.102442621147
 30
0.0
  0
VERTEX
  5
615
  8
LAYER_1
 10
164.6818662293715
 20
163.1076958785618
 30
0.0
  0
VERTEX
  5
616
  8
LAYER_1
 10
164.5275680980926
 20
163.1010209657983
 30
0.0
  0
VERTEX
  5
617
  8
LAYER_1
 10
164.3752536250432
 20
163.0823154035968
 30
0.0
  0
VERTEX
  5
618
  8
LAYER_1
 10
164.2263402050864
 20
163.0514767126975
 30
0.0
  0
VERTEX
  5
619
  8
LAYER_1
 10
164.0822452330851
 20
163.0084024138409
 30
0.0
  0
VERTEX
  5
61A
  8
LAYER_1
 10
163.9443861039023
 20
162.9529900277673
 30
0.0
  0
VERTEX
  5
61B
  8
LAYER_1
 10
163.8141802124009
 20
162.8851370752168
 30
0.0
  0
VERTEX
  5
61C
  8
LAYER_1
 10
163.6930449534439
 20
162.8047410769299
 30
0.0
  0
VERTEX
  5
61D
  8
LAYER_1
 10
163.5436176131032
 20
162.6779039291729
 30
0.0
  0
VERTEX
  5
61E
  8
LAYER_1
 10
163.4126083602992
 20
162.5355828406148
 30
0.0
  0
VERTEX
  5
61F
  8
LAYER_1
 10
163.3001119460657
 20
162.3798165989814
 30
0.0
  0
VERTEX
  5
620
  8
LAYER_1
 10
163.2062231214366
 20
162.2126439919986
 30
0.0
  0
VERTEX
  5
621
  8
LAYER_1
 10
163.1310366374456
 20
162.0361038073924
 30
0.0
  0
VERTEX
  5
622
  8
LAYER_1
 10
163.0746472451267
 20
161.8522348328886
 30
0.0
  0
VERTEX
  5
623
  8
LAYER_1
 10
163.0371496955136
 20
161.6630758562131
 30
0.0
  0
VERTEX
  5
624
  8
LAYER_1
 10
163.0186387396403
 20
161.470665665092
 30
0.0
  0
VERTEX
  5
625
  8
LAYER_1
 10
163.0192091285404
 20
161.2770430472509
 30
0.0
  0
VERTEX
  5
626
  8
LAYER_1
 10
163.0389556132479
 20
161.084246790416
 30
0.0
  0
VERTEX
  5
627
  8
LAYER_1
 10
163.0779729447965
 20
160.894315682313
 30
0.0
  0
VERTEX
  5
628
  8
LAYER_1
 10
163.1363558742201
 20
160.7092885106679
 30
0.0
  0
VERTEX
  5
629
  8
LAYER_1
 10
163.2141991525526
 20
160.5312040632066
 30
0.0
  0
VERTEX
  5
62A
  8
LAYER_1
 10
163.3115975308277
 20
160.362101127655
 30
0.0
  0
VERTEX
  5
62B
  8
LAYER_1
 10
163.4286457600792
 20
160.204018491739
 30
0.0
  0
VERTEX
  5
62C
  8
LAYER_1
 10
163.5654385913411
 20
160.0589949431845
 30
0.0
  0
VERTEX
  5
62D
  8
LAYER_1
 10
163.6666200032879
 20
159.9737890655749
 30
0.0
  0
VERTEX
  5
62E
  8
LAYER_1
 10
163.7780922354191
 20
159.8978707325055
 30
0.0
  0
VERTEX
  5
62F
  8
LAYER_1
 10
163.8985476459356
 20
159.8313539415879
 30
0.0
  0
VERTEX
  5
630
  8
LAYER_1
 10
164.0266785930384
 20
159.7743526904335
 30
0.0
  0
VERTEX
  5
631
  8
LAYER_1
 10
164.1611774349282
 20
159.7269809766539
 30
0.0
  0
VERTEX
  5
632
  8
LAYER_1
 10
164.3007365298062
 20
159.6893527978605
 30
0.0
  0
VERTEX
  5
633
  8
LAYER_1
 10
164.4440482358731
 20
159.6615821516648
 30
0.0
  0
VERTEX
  5
634
  8
LAYER_1
 10
164.5898049113299
 20
159.6437830356785
 30
0.0
  0
VERTEX
  5
635
  8
LAYER_1
 10
164.7366989143777
 20
159.636069447513
 30
0.0
  0
VERTEX
  5
636
  8
LAYER_1
 10
164.8834226032171
 20
159.6385553847797
 30
0.0
  0
VERTEX
  5
637
  8
LAYER_1
 10
165.0286683360492
 20
159.6513548450903
 30
0.0
  0
VERTEX
  5
638
  8
LAYER_1
 10
165.171128471075
 20
159.6745818260562
 30
0.0
  0
VERTEX
  5
639
  8
LAYER_1
 10
165.3094953664953
 20
159.708350325289
 30
0.0
  0
VERTEX
  5
63A
  8
LAYER_1
 10
165.4424613805111
 20
159.7527743404001
 30
0.0
  0
VERTEX
  5
63B
  8
LAYER_1
 10
165.5687188713232
 20
159.807967869001
 30
0.0
  0
SEQEND
  5
7D5
  8
LAYER_1
  0
POLYLINE
  5
6D
  8
LAYER_1
 66
     1
 10
0.0
 20
0.0
 30
0.0
 70
     1
  0
VERTEX
  5
63C
  8
LAYER_1
 10
151.8109309497622
 20
200.7095853646046
 30
0.0
  0
VERTEX
  5
63D
  8
LAYER_1
 10
152.2148913588788
 20
200.7872229017968
 30
0.0
  0
VERTEX
  5
63E
  8
LAYER_1
 10
152.6968405260696
 20
200.9076904746451
 30
0.0
  0
VERTEX
  5
63F
  8
LAYER_1
 10
153.1963374874077
 20
201.0545265671039
 30
0.0
  0
VERTEX
  5
640
  8
LAYER_1
 10
153.652941278966
 20
201.211269663128
 30
0.0
  0
VERTEX
  5
641
  8
LAYER_1
 10
154.0462352279019
 20
201.3701081006848
 30
0.0
  0
VERTEX
  5
642
  8
LAYER_1
 10
154.4282553337019
 20
201.5459961335085
 30
0.0
  0
VERTEX
  5
643
  8
LAYER_1
 10
154.7987006222092
 20
201.7383510817411
 30
0.0
  0
VERTEX
  5
644
  8
LAYER_1
 10
155.1572701192672
 20
201.9465902655246
 30
0.0
  0
VERTEX
  5
645
  8
LAYER_1
 10
155.5036628507193
 20
202.1701310050007
 30
0.0
  0
VERTEX
  5
646
  8
LAYER_1
 10
155.8375778424088
 20
202.4083906203114
 30
0.0
  0
VERTEX
  5
647
  8
LAYER_1
 10
156.1587141201791
 20
202.6607864315986
 30
0.0
  0
VERTEX
  5
648
  8
LAYER_1
 10
156.4667707098735
 20
202.9267357590043
 30
0.0
  0
VERTEX
  5
649
  8
LAYER_1
 10
156.7614466373354
 20
203.2056559226702
 30
0.0
  0
VERTEX
  5
64A
  8
LAYER_1
 10
157.0424409284081
 20
203.4969642427383
 30
0.0
  0
VERTEX
  5
64B
  8
LAYER_1
 10
157.3094526089349
 20
203.8000780393506
 30
0.0
  0
VERTEX
  5
64C
  8
LAYER_1
 10
157.5621807047592
 20
204.1144146326489
 30
0.0
  0
VERTEX
  5
64D
  8
LAYER_1
 10
157.8003242417244
 20
204.4393913427751
 30
0.0
  0
VERTEX
  5
64E
  8
LAYER_1
 10
158.0235822456738
 20
204.7744254898711
 30
0.0
  0
VERTEX
  5
64F
  8
LAYER_1
 10
158.2316537424507
 20
205.1189343940788
 30
0.0
  0
VERTEX
  5
650
  8
LAYER_1
 10
158.4242377578986
 20
205.4723353755402
 30
0.0
  0
VERTEX
  5
651
  8
LAYER_1
 10
158.6010333178607
 20
205.8340457543972
 30
0.0
  0
VERTEX
  5
652
  8
LAYER_1
 10
158.7617394481804
 20
206.2034828507915
 30
0.0
  0
VERTEX
  5
653
  8
LAYER_1
 10
158.906055174701
 20
206.5800639848652
 30
0.0
  0
VERTEX
  5
654
  8
LAYER_1
 10
159.033679523266
 20
206.9632064767601
 30
0.0
  0
VERTEX
  5
655
  8
LAYER_1
 10
159.1443115197185
 20
207.3523276466182
 30
0.0
  0
VERTEX
  5
656
  8
LAYER_1
 10
159.2376501899021
 20
207.7468448145814
 30
0.0
  0
VERTEX
  5
657
  8
LAYER_1
 10
159.31339455966
 20
208.1461753007915
 30
0.0
  0
VERTEX
  5
658
  8
LAYER_1
 10
159.3712436548356
 20
208.5497364253904
 30
0.0
  0
VERTEX
  5
659
  8
LAYER_1
 10
159.4108965012722
 20
208.9569455085201
 30
0.0
  0
VERTEX
  5
65A
  8
LAYER_1
 10
159.4320521248133
 20
209.3672198703225
 30
0.0
  0
VERTEX
  5
65B
  8
LAYER_1
 10
159.434409551302
 20
209.7799768309394
 30
0.0
  0
VERTEX
  5
65C
  8
LAYER_1
 10
159.4176678065818
 20
210.1946337105128
 30
0.0
  0
VERTEX
  5
65D
  8
LAYER_1
 10
159.3815259164961
 20
210.6106078291846
 30
0.0
  0
VERTEX
  5
65E
  8
LAYER_1
 10
159.3256829068881
 20
211.0273165070967
 30
0.0
  0
VERTEX
  5
65F
  8
LAYER_1
 10
159.2498378036013
 20
211.4441770643909
 30
0.0
  0
VERTEX
  5
660
  8
LAYER_1
 10
159.153689632479
 20
211.8606068212092
 30
0.0
  0
VERTEX
  5
661
  8
LAYER_1
 10
159.0691127241352
 20
212.1741652009875
 30
0.0
  0
VERTEX
  5
662
  8
LAYER_1
 10
158.9786643200189
 20
212.4754957021621
 30
0.0
  0
VERTEX
  5
663
  8
LAYER_1
 10
158.8817149903308
 20
212.7656840502559
 30
0.0
  0
VERTEX
  5
664
  8
LAYER_1
 10
158.777635305272
 20
213.0458159707917
 30
0.0
  0
VERTEX
  5
665
  8
LAYER_1
 10
158.6657958350434
 20
213.3169771892926
 30
0.0
  0
VERTEX
  5
666
  8
LAYER_1
 10
158.545567149846
 20
213.5802534312816
 30
0.0
  0
VERTEX
  5
667
  8
LAYER_1
 10
158.4163198198807
 20
213.8367304222815
 30
0.0
  0
VERTEX
  5
668
  8
LAYER_1
 10
158.2774244153485
 20
214.0874938878155
 30
0.0
  0
VERTEX
  5
669
  8
LAYER_1
 10
158.1282515064504
 20
214.3336295534064
 30
0.0
  0
VERTEX
  5
66A
  8
LAYER_1
 10
157.9681716633873
 20
214.5762231445771
 30
0.0
  0
VERTEX
  5
66B
  8
LAYER_1
 10
157.7965554563602
 20
214.8163603868508
 30
0.0
  0
VERTEX
  5
66C
  8
LAYER_1
 10
157.61277345557
 20
215.0551270057503
 30
0.0
  0
VERTEX
  5
66D
  8
LAYER_1
 10
157.4161962312177
 20
215.2936087267985
 30
0.0
  0
VERTEX
  5
66E
  8
LAYER_1
 10
157.2061943535042
 20
215.5328912755185
 30
0.0
  0
VERTEX
  5
66F
  8
LAYER_1
 10
156.9821383926305
 20
215.7740603774332
 30
0.0
  0
VERTEX
  5
670
  8
LAYER_1
 10
156.7433989187976
 20
216.0182017580656
 30
0.0
  0
VERTEX
  5
671
  8
LAYER_1
 10
156.4036836341858
 20
216.3436084369988
 30
0.0
  0
VERTEX
  5
672
  8
LAYER_1
 10
156.0593898616951
 20
216.6454748546157
 30
0.0
  0
VERTEX
  5
673
  8
LAYER_1
 10
155.709698798027
 20
216.9241268535843
 30
0.0
  0
VERTEX
  5
674
  8
LAYER_1
 10
155.3537916398831
 20
217.1798902765725
 30
0.0
  0
VERTEX
  5
675
  8
LAYER_1
 10
154.9908495839648
 20
217.4130909662481
 30
0.0
  0
VERTEX
  5
676
  8
LAYER_1
 10
154.6200538269736
 20
217.6240547652792
 30
0.0
  0
VERTEX
  5
677
  8
LAYER_1
 10
154.2405855656112
 20
217.8131075163337
 30
0.0
  0
VERTEX
  5
678
  8
LAYER_1
 10
153.8516259965788
 20
217.9805750620794
 30
0.0
  0
VERTEX
  5
679
  8
LAYER_1
 10
153.4523563165781
 20
218.1267832451844
 30
0.0
  0
VERTEX
  5
67A
  8
LAYER_1
 10
153.0419577223106
 20
218.2520579083165
 30
0.0
  0
VERTEX
  5
67B
  8
LAYER_1
 10
152.6196114104777
 20
218.3567248941436
 30
0.0
  0
VERTEX
  5
67C
  8
LAYER_1
 10
152.184498577781
 20
218.4411100453338
 30
0.0
  0
VERTEX
  5
67D
  8
LAYER_1
 10
151.7358004209219
 20
218.5055392045549
 30
0.0
  0
VERTEX
  5
67E
  8
LAYER_1
 10
151.2726981366019
 20
218.5503382144748
 30
0.0
  0
VERTEX
  5
67F
  8
LAYER_1
 10
150.7943729215226
 20
218.5758329177615
 30
0.0
  0
VERTEX
  5
680
  8
LAYER_1
 10
150.3000059723854
 20
218.5823491570829
 30
0.0
  0
VERTEX
  5
681
  8
LAYER_1
 10
149.7856843925182
 20
218.5666556967022
 30
0.0
  0
VERTEX
  5
682
  8
LAYER_1
 10
149.2815405587516
 20
218.5255723083981
 30
0.0
  0
VERTEX
  5
683
  8
LAYER_1
 10
148.787824013117
 20
218.4592164269576
 30
0.0
  0
VERTEX
  5
684
  8
LAYER_1
 10
148.3047842976457
 20
218.3677054871679
 30
0.0
  0
VERTEX
  5
685
  8
LAYER_1
 10
147.832670954369
 20
218.2511569238161
 30
0.0
  0
VERTEX
  5
686
  8
LAYER_1
 10
147.3717335253181
 20
218.1096881716894
 30
0.0
  0
VERTEX
  5
687
  8
LAYER_1
 10
146.9222215525243
 20
217.9434166655748
 30
0.0
  0
VERTEX
  5
688
  8
LAYER_1
 10
146.484384578019
 20
217.7524598402595
 30
0.0
  0
VERTEX
  5
689
  8
LAYER_1
 10
146.0584721438335
 20
217.5369351305306
 30
0.0
  0
VERTEX
  5
68A
  8
LAYER_1
 10
145.644733791999
 20
217.2969599711752
 30
0.0
  0
VERTEX
  5
68B
  8
LAYER_1
 10
145.2434190645468
 20
217.0326517969805
 30
0.0
  0
VERTEX
  5
68C
  8
LAYER_1
 10
144.8547775035082
 20
216.7441280427336
 30
0.0
  0
VERTEX
  5
68D
  8
LAYER_1
 10
144.4790586509146
 20
216.4315061432216
 30
0.0
  0
VERTEX
  5
68E
  8
LAYER_1
 10
144.1165120487971
 20
216.0949035332317
 30
0.0
  0
VERTEX
  5
68F
  8
LAYER_1
 10
143.7673872391872
 20
215.7344376475509
 30
0.0
  0
VERTEX
  5
690
  8
LAYER_1
 10
143.4319337641161
 20
215.3502259209663
 30
0.0
  0
VERTEX
  5
691
  8
LAYER_1
 10
143.2306644911082
 20
215.0976005206487
 30
0.0
  0
VERTEX
  5
692
  8
LAYER_1
 10
143.0398908034348
 20
214.83784179315
 30
0.0
  0
VERTEX
  5
693
  8
LAYER_1
 10
142.8596508266751
 20
214.5713085809051
 30
0.0
  0
VERTEX
  5
694
  8
LAYER_1
 10
142.6899826864087
 20
214.2983597263486
 30
0.0
  0
VERTEX
  5
695
  8
LAYER_1
 10
142.5309245082147
 20
214.0193540719153
 30
0.0
  0
VERTEX
  5
696
  8
LAYER_1
 10
142.3825144176726
 20
213.7346504600397
 30
0.0
  0
VERTEX
  5
697
  8
LAYER_1
 10
142.2447905403616
 20
213.4446077331566
 30
0.0
  0
VERTEX
  5
698
  8
LAYER_1
 10
142.1177910018613
 20
213.1495847337007
 30
0.0
  0
VERTEX
  5
699
  8
LAYER_1
 10
142.0015539277508
 20
212.8499403041067
 30
0.0
  0
VERTEX
  5
69A
  8
LAYER_1
 10
141.8961174436096
 20
212.5460332868092
 30
0.0
  0
VERTEX
  5
69B
  8
LAYER_1
 10
141.801519675017
 20
212.2382225242429
 30
0.0
  0
VERTEX
  5
69C
  8
LAYER_1
 10
141.7177987475524
 20
211.9268668588425
 30
0.0
  0
VERTEX
  5
69D
  8
LAYER_1
 10
141.6449927867951
 20
211.6123251330428
 30
0.0
  0
VERTEX
  5
69E
  8
LAYER_1
 10
141.5831399183244
 20
211.2949561892783
 30
0.0
  0
VERTEX
  5
69F
  8
LAYER_1
 10
141.5322782677197
 20
210.9751188699838
 30
0.0
  0
VERTEX
  5
6A0
  8
LAYER_1
 10
141.4924459605604
 20
210.6531720175939
 30
0.0
  0
VERTEX
  5
6A1
  8
LAYER_1
 10
141.4636811224257
 20
210.3294744745434
 30
0.0
  0
VERTEX
  5
6A2
  8
LAYER_1
 10
141.4460218788952
 20
210.004385083267
 30
0.0
  0
VERTEX
  5
6A3
  8
LAYER_1
 10
141.439506355548
 20
209.6782626861992
 30
0.0
  0
VERTEX
  5
6A4
  8
LAYER_1
 10
141.4441726779635
 20
209.3514661257749
 30
0.0
  0
VERTEX
  5
6A5
  8
LAYER_1
 10
141.4600589717212
 20
209.0243542444287
 30
0.0
  0
VERTEX
  5
6A6
  8
LAYER_1
 10
141.4872033624003
 20
208.6972858845952
 30
0.0
  0
VERTEX
  5
6A7
  8
LAYER_1
 10
141.5256439755802
 20
208.3706198887092
 30
0.0
  0
VERTEX
  5
6A8
  8
LAYER_1
 10
141.5754189368403
 20
208.0447150992053
 30
0.0
  0
VERTEX
  5
6A9
  8
LAYER_1
 10
141.6365663717598
 20
207.7199303585184
 30
0.0
  0
VERTEX
  5
6AA
  8
LAYER_1
 10
141.7091244059182
 20
207.3966245090828
 30
0.0
  0
VERTEX
  5
6AB
  8
LAYER_1
 10
141.7931311648948
 20
207.0751563933336
 30
0.0
  0
VERTEX
  5
6AC
  8
LAYER_1
 10
141.8886247742689
 20
206.7558848537052
 30
0.0
  0
VERTEX
  5
6AD
  8
LAYER_1
 10
141.9956433596199
 20
206.4391687326324
 30
0.0
  0
VERTEX
  5
6AE
  8
LAYER_1
 10
142.1142250465272
 20
206.1253668725498
 30
0.0
  0
VERTEX
  5
6AF
  8
LAYER_1
 10
142.24440796057
 20
205.8148381158923
 30
0.0
  0
VERTEX
  5
6B0
  8
LAYER_1
 10
142.3862302273278
 20
205.5079413050943
 30
0.0
  0
VERTEX
  5
6B1
  8
LAYER_1
 10
142.5290240733315
 20
205.2358758600782
 30
0.0
  0
VERTEX
  5
6B2
  8
LAYER_1
 10
142.6962800288383
 20
204.9574866548032
 30
0.0
  0
VERTEX
  5
6B3
  8
LAYER_1
 10
142.8859080396427
 20
204.6748203996274
 30
0.0
  0
VERTEX
  5
6B4
  8
LAYER_1
 10
143.0958180515394
 20
204.3899238049088
 30
0.0
  0
VERTEX
  5
6B5
  8
LAYER_1
 10
143.323920010323
 20
204.1048435810055
 30
0.0
  0
VERTEX
  5
6B6
  8
LAYER_1
 10
143.5681238617878
 20
203.8216264382756
 30
0.0
  0
VERTEX
  5
6B7
  8
LAYER_1
 10
143.8263395517286
 20
203.5423190870772
 30
0.0
  0
VERTEX
  5
6B8
  8
LAYER_1
 10
144.0964770259399
 20
203.2689682377683
 30
0.0
  0
VERTEX
  5
6B9
  8
LAYER_1
 10
144.3764462302163
 20
203.0036206007069
 30
0.0
  0
VERTEX
  5
6BA
  8
LAYER_1
 10
144.6641571103523
 20
202.7483228862512
 30
0.0
  0
VERTEX
  5
6BB
  8
LAYER_1
 10
144.9575196121425
 20
202.5051218047591
 30
0.0
  0
VERTEX
  5
6BC
  8
LAYER_1
 10
145.2544436813814
 20
202.2760640665888
 30
0.0
  0
VERTEX
  5
6BD
  8
LAYER_1
 10
145.5528392638637
 20
202.0631963820983
 30
0.0
  0
VERTEX
  5
6BE
  8
LAYER_1
 10
145.8506163053839
 20
201.8685654616457
 30
0.0
  0
VERTEX
  5
6BF
  8
LAYER_1
 10
146.1456847517365
 20
201.694218015589
 30
0.0
  0
VERTEX
  5
6C0
  8
LAYER_1
 10
146.4359545487161
 20
201.5422007542863
 30
0.0
  0
VERTEX
  5
6C1
  8
LAYER_1
 10
146.7589645050794
 20
201.3914078732842
 30
0.0
  0
VERTEX
  5
6C2
  8
LAYER_1
 10
147.0829862282372
 20
201.2538924960744
 30
0.0
  0
VERTEX
  5
6C3
  8
LAYER_1
 10
147.4081722272678
 20
201.1296309981056
 30
0.0
  0
VERTEX
  5
6C4
  8
LAYER_1
 10
147.7346750112496
 20
201.0185997548266
 30
0.0
  0
VERTEX
  5
6C5
  8
LAYER_1
 10
148.0626470892611
 20
200.9207751416861
 30
0.0
  0
VERTEX
  5
6C6
  8
LAYER_1
 10
148.3922409703806
 20
200.8361335341327
 30
0.0
  0
VERTEX
  5
6C7
  8
LAYER_1
 10
148.7236091636864
 20
200.7646513076151
 30
0.0
  0
VERTEX
  5
6C8
  8
LAYER_1
 10
149.0569041782571
 20
200.706304837582
 30
0.0
  0
VERTEX
  5
6C9
  8
LAYER_1
 10
149.392278523171
 20
200.6610704994822
 30
0.0
  0
VERTEX
  5
6CA
  8
LAYER_1
 10
149.7298847075064
 20
200.6289246687643
 30
0.0
  0
VERTEX
  5
6CB
  8
LAYER_1
 10
150.0698752403419
 20
200.609843720877
 30
0.0
  0
VERTEX
  5
6CC
  8
LAYER_1
 10
150.4124026307557
 20
200.6038040312691
 30
0.0
  0
VERTEX
  5
6CD
  8
LAYER_1
 10
150.7576193878262
 20
200.6107819753892
 30
0.0
  0
VERTEX
  5
6CE
  8
LAYER_1
 10
151.1056780206318
 20
200.630753928686
 30
0.0
  0
VERTEX
  5
6CF
  8
LAYER_1
 10
151.456731038251
 20
200.6636962666083
 30
0.0
  0
SEQEND
  5
7D6
  8
LAYER_1
  0
POLYLINE
  5
6E
  8
LAYER_1
 66
     1
 10
0.0
 20
0.0
 30
0.0
 70
     1
  0
VERTEX
  5
6D0
  8
LAYER_1
 10
113.0372387225632
 20
229.4953370174733
 30
0.0
  0
VERTEX
  5
6D1
  8
LAYER_1
 10
113.1081294830601
 20
229.5304193204197
 30
0.0
  0
VERTEX
  5
6D2
  8
LAYER_1
 10
113.1900568969351
 20
229.5819164277472
 30
0.0
  0
VERTEX
  5
6D3
  8
LAYER_1
 10
113.3753322312305
 20
229.7242784787533
 30
0.0
  0
VERTEX
  5
6D4
  8
LAYER_1
 10
113.5696858182702
 20
229.9026700169068
 30
0.0
  0
VERTEX
  5
6D5
  8
LAYER_1
 10
113.7497387508754
 20
230.0973378886233
 30
0.0
  0
VERTEX
  5
6D6
  8
LAYER_1
 10
113.8814598307104
 20
230.2760865804264
 30
0.0
  0
VERTEX
  5
6D7
  8
LAYER_1
 10
113.9859851679113
 20
230.4647900870928
 30
0.0
  0
VERTEX
  5
6D8
  8
LAYER_1
 10
114.0639980212832
 20
230.6610518453937
 30
0.0
  0
VERTEX
  5
6D9
  8
LAYER_1
 10
114.1161816496316
 20
230.8624752921002
 30
0.0
  0
VERTEX
  5
6DA
  8
LAYER_1
 10
114.1432193117618
 20
231.0666638639836
 30
0.0
  0
VERTEX
  5
6DB
  8
LAYER_1
 10
114.1457942664789
 20
231.2712209978151
 30
0.0
  0
VERTEX
  5
6DC
  8
LAYER_1
 10
114.1245897725883
 20
231.4737501303659
 30
0.0
  0
VERTEX
  5
6DD
  8
LAYER_1
 10
114.0802890888953
 20
231.6718546984072
 30
0.0
  0
VERTEX
  5
6DE
  8
LAYER_1
 10
114.0135754742051
 20
231.8631381387102
 30
0.0
  0
VERTEX
  5
6DF
  8
LAYER_1
 10
113.9251321873231
 20
232.045203888046
 30
0.0
  0
VERTEX
  5
6E0
  8
LAYER_1
 10
113.8156424870546
 20
232.2156553831861
 30
0.0
  0
VERTEX
  5
6E1
  8
LAYER_1
 10
113.6857896322048
 20
232.3720960609014
 30
0.0
  0
VERTEX
  5
6E2
  8
LAYER_1
 10
113.5362568815791
 20
232.5121293579633
 30
0.0
  0
VERTEX
  5
6E3
  8
LAYER_1
 10
113.3677274939826
 20
232.6333587111429
 30
0.0
  0
VERTEX
  5
6E4
  8
LAYER_1
 10
113.1808847282208
 20
232.7333875572114
 30
0.0
  0
VERTEX
  5
6E5
  8
LAYER_1
 10
112.9764118430988
 20
232.8098193329402
 30
0.0
  0
VERTEX
  5
6E6
  8
LAYER_1
 10
112.7569174071457
 20
232.8632607711505
 30
0.0
  0
VERTEX
  5
6E7
  8
LAYER_1
 10
112.540729501577
 20
232.8920436825069
 30
0.0
  0
VERTEX
  5
6E8
  8
LAYER_1
 10
112.329345840473
 20
232.897179624644
 30
0.0
  0
VERTEX
  5
6E9
  8
LAYER_1
 10
112.1242641379136
 20
232.879680155196
 30
0.0
  0
VERTEX
  5
6EA
  8
LAYER_1
 10
111.9269821079788
 20
232.8405568317976
 30
0.0
  0
VERTEX
  5
6EB
  8
LAYER_1
 10
111.7389974647488
 20
232.7808212120831
 30
0.0
  0
VERTEX
  5
6EC
  8
LAYER_1
 10
111.5618079223037
 20
232.701484853687
 30
0.0
  0
VERTEX
  5
6ED
  8
LAYER_1
 10
111.3969111947233
 20
232.6035593142437
 30
0.0
  0
VERTEX
  5
6EE
  8
LAYER_1
 10
111.245804996088
 20
232.4880561513877
 30
0.0
  0
VERTEX
  5
6EF
  8
LAYER_1
 10
111.1099870404775
 20
232.3559869227535
 30
0.0
  0
VERTEX
  5
6F0
  8
LAYER_1
 10
110.9909550419722
 20
232.2083631859754
 30
0.0
  0
VERTEX
  5
6F1
  8
LAYER_1
 10
110.8902067146519
 20
232.046196498688
 30
0.0
  0
VERTEX
  5
6F2
  8
LAYER_1
 10
110.8092397725967
 20
231.8704984185256
 30
0.0
  0
VERTEX
  5
6F3
  8
LAYER_1
 10
110.7495519298868
 20
231.6822805031228
 30
0.0
  0
VERTEX
  5
6F4
  8
LAYER_1
 10
110.7126409006021
 20
231.482554310114
 30
0.0
  0
VERTEX
  5
6F5
  8
LAYER_1
 10
110.7000043988228
 20
231.2723313971336
 30
0.0
  0
VERTEX
  5
6F6
  8
LAYER_1
 10
110.7134544089951
 20
231.0235791180035
 30
0.0
  0
VERTEX
  5
6F7
  8
LAYER_1
 10
110.7526523892199
 20
230.7870542128941
 30
0.0
  0
VERTEX
  5
6F8
  8
LAYER_1
 10
110.8158702640591
 20
230.5640705339553
 30
0.0
  0
VERTEX
  5
6F9
  8
LAYER_1
 10
110.9013799580747
 20
230.3559419333368
 30
0.0
  0
VERTEX
  5
6FA
  8
LAYER_1
 10
111.0074533958286
 20
230.1639822631886
 30
0.0
  0
VERTEX
  5
6FB
  8
LAYER_1
 10
111.1323625018828
 20
229.9895053756607
 30
0.0
  0
VERTEX
  5
6FC
  8
LAYER_1
 10
111.2743792007992
 20
229.833825122903
 30
0.0
  0
VERTEX
  5
6FD
  8
LAYER_1
 10
111.4317754171396
 20
229.6982553570653
 30
0.0
  0
VERTEX
  5
6FE
  8
LAYER_1
 10
111.6028230754661
 20
229.5841099302975
 30
0.0
  0
VERTEX
  5
6FF
  8
LAYER_1
 10
111.7857941003406
 20
229.4927026947495
 30
0.0
  0
VERTEX
  5
700
  8
LAYER_1
 10
111.978960416325
 20
229.4253475025714
 30
0.0
  0
VERTEX
  5
701
  8
LAYER_1
 10
112.1805939479812
 20
229.3833582059128
 30
0.0
  0
VERTEX
  5
702
  8
LAYER_1
 10
112.3889666198712
 20
229.3680486569238
 30
0.0
  0
VERTEX
  5
703
  8
LAYER_1
 10
112.6023503565569
 20
229.3807327077543
 30
0.0
  0
VERTEX
  5
704
  8
LAYER_1
 10
112.8190170826003
 20
229.4227242105542
 30
0.0
  0
SEQEND
  5
7D7
  8
LAYER_1
  0
POLYLINE
  5
6F
  8
LAYER_1
 66
     1
 10
0.0
 20
0.0
 30
0.0
 70
     1
  0
VERTEX
  5
705
  8
LAYER_1
 10
189.1500075161457
 20
229.6066243806128
 30
0.0
  0
VERTEX
  5
706
  8
LAYER_1
 10
189.2616633712311
 20
229.6715441823413
 30
0.0
  0
VERTEX
  5
707
  8
LAYER_1
 10
189.3759307378538
 20
229.7524658631251
 30
0.0
  0
VERTEX
  5
708
  8
LAYER_1
 10
189.489705351134
 20
229.8462818113083
 30
0.0
  0
VERTEX
  5
709
  8
LAYER_1
 10
189.5998829461915
 20
229.9498844152356
 30
0.0
  0
VERTEX
  5
70A
  8
LAYER_1
 10
189.7033592581465
 20
230.0601660632513
 30
0.0
  0
VERTEX
  5
70B
  8
LAYER_1
 10
189.797030022119
 20
230.1740191436999
 30
0.0
  0
VERTEX
  5
70C
  8
LAYER_1
 10
189.8777909732289
 20
230.2883360449258
 30
0.0
  0
VERTEX
  5
70D
  8
LAYER_1
 10
189.9425378465963
 20
230.4000091552734
 30
0.0
  0
VERTEX
  5
70E
  8
LAYER_1
 10
190.0214697987378
 20
230.576472550492
 30
0.0
  0
VERTEX
  5
70F
  8
LAYER_1
 10
190.0798987554018
 20
230.7545422767421
 30
0.0
  0
VERTEX
  5
710
  8
LAYER_1
 10
190.1182579329407
 20
230.9331271336745
 30
0.0
  0
VERTEX
  5
711
  8
LAYER_1
 10
190.136980547707
 20
231.1111359209398
 30
0.0
  0
VERTEX
  5
712
  8
LAYER_1
 10
190.1364998160532
 20
231.2874774381887
 30
0.0
  0
VERTEX
  5
713
  8
LAYER_1
 10
190.1172489543318
 20
231.4610604850718
 30
0.0
  0
VERTEX
  5
714
  8
LAYER_1
 10
190.0796611788954
 20
231.6307938612399
 30
0.0
  0
VERTEX
  5
715
  8
LAYER_1
 10
190.0241697060964
 20
231.7955863663435
 30
0.0
  0
VERTEX
  5
716
  8
LAYER_1
 10
189.9512077522874
 20
231.9543468000333
 30
0.0
  0
VERTEX
  5
717
  8
LAYER_1
 10
189.8612085338208
 20
232.10598396196
 30
0.0
  0
VERTEX
  5
718
  8
LAYER_1
 10
189.7546052670493
 20
232.2494066517743
 30
0.0
  0
VERTEX
  5
719
  8
LAYER_1
 10
189.6318311683252
 20
232.3835236691269
 30
0.0
  0
VERTEX
  5
71A
  8
LAYER_1
 10
189.4933194540011
 20
232.5072438136683
 30
0.0
  0
VERTEX
  5
71B
  8
LAYER_1
 10
189.3395033404295
 20
232.6194758850493
 30
0.0
  0
VERTEX
  5
71C
  8
LAYER_1
 10
189.1708160439629
 20
232.7191286829205
 30
0.0
  0
VERTEX
  5
71D
  8
LAYER_1
 10
188.9876907809539
 20
232.8051110069326
 30
0.0
  0
VERTEX
  5
71E
  8
LAYER_1
 10
188.8607940032439
 20
232.8517087145254
 30
0.0
  0
VERTEX
  5
71F
  8
LAYER_1
 10
188.7339490741041
 20
232.8867211006305
 30
0.0
  0
VERTEX
  5
720
  8
LAYER_1
 10
188.6075292319107
 20
232.9105417734587
 30
0.0
  0
VERTEX
  5
721
  8
LAYER_1
 10
188.4819077150401
 20
232.9235643412208
 30
0.0
  0
VERTEX
  5
722
  8
LAYER_1
 10
188.3574577618683
 20
232.9261824121277
 30
0.0
  0
VERTEX
  5
723
  8
LAYER_1
 10
188.2345526107716
 20
232.9187895943901
 30
0.0
  0
VERTEX
  5
724
  8
LAYER_1
 10
188.1135655001264
 20
232.9017794962189
 30
0.0
  0
VERTEX
  5
725
  8
LAYER_1
 10
187.9948696683088
 20
232.8755457258248
 30
0.0
  0
VERTEX
  5
726
  8
LAYER_1
 10
187.8788383536951
 20
232.8404818914188
 30
0.0
  0
VERTEX
  5
727
  8
LAYER_1
 10
187.7658447946615
 20
232.7969816012115
 30
0.0
  0
VERTEX
  5
728
  8
LAYER_1
 10
187.6562622295843
 20
232.7454384634139
 30
0.0
  0
VERTEX
  5
729
  8
LAYER_1
 10
187.5504638968398
 20
232.6862460862367
 30
0.0
  0
VERTEX
  5
72A
  8
LAYER_1
 10
187.4488230348041
 20
232.6197980778907
 30
0.0
  0
VERTEX
  5
72B
  8
LAYER_1
 10
187.3517128818535
 20
232.5464880465868
 30
0.0
  0
VERTEX
  5
72C
  8
LAYER_1
 10
187.2595066763643
 20
232.4667096005357
 30
0.0
  0
VERTEX
  5
72D
  8
LAYER_1
 10
187.1725776567127
 20
232.3808563479483
 30
0.0
  0
VERTEX
  5
72E
  8
LAYER_1
 10
187.091299061275
 20
232.2893218970354
 30
0.0
  0
VERTEX
  5
72F
  8
LAYER_1
 10
187.0160441284274
 20
232.1924998560078
 30
0.0
  0
VERTEX
  5
730
  8
LAYER_1
 10
186.9471860965461
 20
232.0907838330764
 30
0.0
  0
VERTEX
  5
731
  8
LAYER_1
 10
186.8850982040074
 20
231.9845674364518
 30
0.0
  0
VERTEX
  5
732
  8
LAYER_1
 10
186.8301536891875
 20
231.874244274345
 30
0.0
  0
VERTEX
  5
733
  8
LAYER_1
 10
186.7827257904628
 20
231.7602079549667
 30
0.0
  0
VERTEX
  5
734
  8
LAYER_1
 10
186.7431877462093
 20
231.6428520865278
 30
0.0
  0
VERTEX
  5
735
  8
LAYER_1
 10
186.7119127948034
 20
231.522570277239
 30
0.0
  0
VERTEX
  5
736
  8
LAYER_1
 10
186.6892741746214
 20
231.3997561353112
 30
0.0
  0
VERTEX
  5
737
  8
LAYER_1
 10
186.6756451240394
 20
231.2748032689553
 30
0.0
  0
VERTEX
  5
738
  8
LAYER_1
 10
186.6713988814337
 20
231.148105286382
 30
0.0
  0
VERTEX
  5
739
  8
LAYER_1
 10
186.6769086851805
 20
231.0200557958021
 30
0.0
  0
VERTEX
  5
73A
  8
LAYER_1
 10
186.6925477736562
 20
230.8910484054264
 30
0.0
  0
VERTEX
  5
73B
  8
LAYER_1
 10
186.7186893852369
 20
230.7614767234657
 30
0.0
  0
VERTEX
  5
73C
  8
LAYER_1
 10
186.7557067582989
 20
230.631734358131
 30
0.0
  0
VERTEX
  5
73D
  8
LAYER_1
 10
186.8039731312184
 20
230.5022149176329
 30
0.0
  0
VERTEX
  5
73E
  8
LAYER_1
 10
186.8863195739394
 20
230.3293871901072
 30
0.0
  0
VERTEX
  5
73F
  8
LAYER_1
 10
186.9826378890317
 20
230.1700780494082
 30
0.0
  0
VERTEX
  5
740
  8
LAYER_1
 10
187.091770695454
 20
230.0247293217578
 30
0.0
  0
VERTEX
  5
741
  8
LAYER_1
 10
187.2125606121647
 20
229.8937828333777
 30
0.0
  0
VERTEX
  5
742
  8
LAYER_1
 10
187.3438502581227
 20
229.7776804104896
 30
0.0
  0
VERTEX
  5
743
  8
LAYER_1
 10
187.4844822522865
 20
229.6768638793153
 30
0.0
  0
VERTEX
  5
744
  8
LAYER_1
 10
187.6332992136148
 20
229.5917750660765
 30
0.0
  0
VERTEX
  5
745
  8
LAYER_1
 10
187.7891437610662
 20
229.522855796995
 30
0.0
  0
VERTEX
  5
746
  8
LAYER_1
 10
187.9508585135993
 20
229.4705478982925
 30
0.0
  0
VERTEX
  5
747
  8
LAYER_1
 10
188.1172860901728
 20
229.4352931961906
 30
0.0
  0
VERTEX
  5
748
  8
LAYER_1
 10
188.2872691097453
 20
229.4175335169113
 30
0.0
  0
VERTEX
  5
749
  8
LAYER_1
 10
188.4596501912755
 20
229.4177106866762
 30
0.0
  0
VERTEX
  5
74A
  8
LAYER_1
 10
188.633271953722
 20
229.436266531707
 30
0.0
  0
VERTEX
  5
74B
  8
LAYER_1
 10
188.8069770160434
 20
229.4736428782256
 30
0.0
  0
VERTEX
  5
74C
  8
LAYER_1
 10
188.9796079971985
 20
229.5302815524536
 30
0.0
  0
SEQEND
  5
7D8
  8
LAYER_1
  0
POLYLINE
  5
70
  8
LAYER_1
 66
     1
 10
0.0
 20
0.0
 30
0.0
 70
     1
  0
VERTEX
  5
74D
  8
LAYER_1
 10
94.4071085117119
 20
231.0088705545582
 30
0.0
  0
VERTEX
  5
74E
  8
LAYER_1
 10
94.60274839601041
 20
231.0838443945319
 30
0.0
  0
VERTEX
  5
74F
  8
LAYER_1
 10
94.81600527950962
 20
231.1950744331349
 30
0.0
  0
VERTEX
  5
750
  8
LAYER_1
 10
95.02111467024773
 20
231.3275522676255
 30
0.0
  0
VERTEX
  5
751
  8
LAYER_1
 10
95.19231207626287
 20
231.4662694952619
 30
0.0
  0
VERTEX
  5
752
  8
LAYER_1
 10
95.32031035664826
 20
231.6050380957048
 30
0.0
  0
VERTEX
  5
753
  8
LAYER_1
 10
95.42750010427169
 20
231.7594562477848
 30
0.0
  0
VERTEX
  5
754
  8
LAYER_1
 10
95.51415592446534
 20
231.9270177807436
 30
0.0
  0
VERTEX
  5
755
  8
LAYER_1
 10
95.58055242256144
 20
232.105216523823
 30
0.0
  0
VERTEX
  5
756
  8
LAYER_1
 10
95.62696420389216
 20
232.2915463062647
 30
0.0
  0
VERTEX
  5
757
  8
LAYER_1
 10
95.65366587378972
 20
232.4835009573105
 30
0.0
  0
VERTEX
  5
758
  8
LAYER_1
 10
95.66093203758626
 20
232.678574306202
 30
0.0
  0
VERTEX
  5
759
  8
LAYER_1
 10
95.64903730061403
 20
232.8742601821811
 30
0.0
  0
VERTEX
  5
75A
  8
LAYER_1
 10
95.61825626820519
 20
233.0680524144895
 30
0.0
  0
VERTEX
  5
75B
  8
LAYER_1
 10
95.56886354569195
 20
233.2574448323689
 30
0.0
  0
VERTEX
  5
75C
  8
LAYER_1
 10
95.50113373840652
 20
233.439931265061
 30
0.0
  0
VERTEX
  5
75D
  8
LAYER_1
 10
95.41534145168109
 20
233.6130055418078
 30
0.0
  0
VERTEX
  5
75E
  8
LAYER_1
 10
95.31176129084783
 20
233.7741614918506
 30
0.0
  0
VERTEX
  5
75F
  8
LAYER_1
 10
95.19066786123895
 20
233.9208929444316
 30
0.0
  0
VERTEX
  5
760
  8
LAYER_1
 10
95.05233576818665
 20
234.0506937287922
 30
0.0
  0
VERTEX
  5
761
  8
LAYER_1
 10
94.89703961702311
 20
234.1610576741744
 30
0.0
  0
VERTEX
  5
762
  8
LAYER_1
 10
94.72011092352327
 20
234.2570689411762
 30
0.0
  0
VERTEX
  5
763
  8
LAYER_1
 10
94.53864527460493
 20
234.3329530066468
 30
0.0
  0
VERTEX
  5
764
  8
LAYER_1
 10
94.35411317838005
 20
234.3890928594816
 30
0.0
  0
VERTEX
  5
765
  8
LAYER_1
 10
94.16798514296055
 20
234.4258714885758
 30
0.0
  0
VERTEX
  5
766
  8
LAYER_1
 10
93.98173167645835
 20
234.4436718828247
 30
0.0
  0
VERTEX
  5
767
  8
LAYER_1
 10
93.7968232869854
 20
234.4428770311238
 30
0.0
  0
VERTEX
  5
768
  8
LAYER_1
 10
93.61473048265363
 20
234.4238699223682
 30
0.0
  0
VERTEX
  5
769
  8
LAYER_1
 10
93.43692377157497
 20
234.3870335454534
 30
0.0
  0
VERTEX
  5
76A
  8
LAYER_1
 10
93.26487366186134
 20
234.3327508892746
 30
0.0
  0
VERTEX
  5
76B
  8
LAYER_1
 10
93.10005066162469
 20
234.2614049427272
 30
0.0
  0
VERTEX
  5
76C
  8
LAYER_1
 10
92.94392527897693
 20
234.1733786947065
 30
0.0
  0
VERTEX
  5
76D
  8
LAYER_1
 10
92.79796802203002
 20
234.0690551341078
 30
0.0
  0
VERTEX
  5
76E
  8
LAYER_1
 10
92.66364939889587
 20
233.9488172498264
 30
0.0
  0
VERTEX
  5
76F
  8
LAYER_1
 10
92.54243991768641
 20
233.8130480307577
 30
0.0
  0
VERTEX
  5
770
  8
LAYER_1
 10
92.43581008651358
 20
233.6621304657969
 30
0.0
  0
VERTEX
  5
771
  8
LAYER_1
 10
92.3452304134893
 20
233.4964475438394
 30
0.0
  0
VERTEX
  5
772
  8
LAYER_1
 10
92.24649533955115
 20
233.2765341223139
 30
0.0
  0
VERTEX
  5
773
  8
LAYER_1
 10
92.17521772199702
 20
233.0846551968244
 30
0.0
  0
VERTEX
  5
774
  8
LAYER_1
 10
92.13118892186077
 20
232.9111634910732
 30
0.0
  0
VERTEX
  5
775
  8
LAYER_1
 10
92.1142003001763
 20
232.746411728763
 30
0.0
  0
VERTEX
  5
776
  8
LAYER_1
 10
92.12404321797743
 20
232.5807526335963
 30
0.0
  0
VERTEX
  5
777
  8
LAYER_1
 10
92.1605090362981
 20
232.4045389292755
 30
0.0
  0
VERTEX
  5
778
  8
LAYER_1
 10
92.22338911617211
 20
232.2081233395032
 30
0.0
  0
VERTEX
  5
779
  8
LAYER_1
 10
92.31247481863338
 20
231.981858587982
 30
0.0
  0
VERTEX
  5
77A
  8
LAYER_1
 10
92.38215259357673
 20
231.8350532122227
 30
0.0
  0
VERTEX
  5
77B
  8
LAYER_1
 10
92.46403581433124
 20
231.6978367652451
 30
0.0
  0
VERTEX
  5
77C
  8
LAYER_1
 10
92.55725865196231
 20
231.5706114372721
 30
0.0
  0
VERTEX
  5
77D
  8
LAYER_1
 10
92.66095527753544
 20
231.4537794185269
 30
0.0
  0
VERTEX
  5
77E
  8
LAYER_1
 10
92.77425986211601
 20
231.3477428992327
 30
0.0
  0
VERTEX
  5
77F
  8
LAYER_1
 10
92.89630657676949
 20
231.2529040696124
 30
0.0
  0
VERTEX
  5
780
  8
LAYER_1
 10
93.02622959256132
 20
231.1696651198891
 30
0.0
  0
VERTEX
  5
781
  8
LAYER_1
 10
93.16316308055696
 20
231.098428240286
 30
0.0
  0
VERTEX
  5
782
  8
LAYER_1
 10
93.30624121182183
 20
231.0395956210262
 30
0.0
  0
VERTEX
  5
783
  8
LAYER_1
 10
93.45459815742137
 20
230.9935694523327
 30
0.0
  0
VERTEX
  5
784
  8
LAYER_1
 10
93.60736808842105
 20
230.9607519244287
 30
0.0
  0
VERTEX
  5
785
  8
LAYER_1
 10
93.76368517588631
 20
230.9415452275372
 30
0.0
  0
VERTEX
  5
786
  8
LAYER_1
 10
93.92268359088257
 20
230.9363515518813
 30
0.0
  0
VERTEX
  5
787
  8
LAYER_1
 10
94.0834975044753
 20
230.9455730876841
 30
0.0
  0
VERTEX
  5
788
  8
LAYER_1
 10
94.24526108772993
 20
230.9696120251687
 30
0.0
  0
SEQEND
  5
7D9
  8
LAYER_1
  0
POLYLINE
  5
71
  8
LAYER_1
 66
     1
 10
0.0
 20
0.0
 30
0.0
 70
     1
  0
VERTEX
  5
789
  8
LAYER_1
 10
207.0900082290173
 20
231.5100091993809
 30
0.0
  0
VERTEX
  5
78A
  8
LAYER_1
 10
207.2232152168173
 20
231.6494699188602
 30
0.0
  0
VERTEX
  5
78B
  8
LAYER_1
 10
207.3332281925696
 20
231.7794047704041
 30
0.0
  0
VERTEX
  5
78C
  8
LAYER_1
 10
207.4217217358313
 20
231.9032293547004
 30
0.0
  0
VERTEX
  5
78D
  8
LAYER_1
 10
207.4903704261597
 20
232.0243592724369
 30
0.0
  0
VERTEX
  5
78E
  8
LAYER_1
 10
207.5408488431119
 20
232.1462101243013
 30
0.0
  0
VERTEX
  5
78F
  8
LAYER_1
 10
207.5748315662449
 20
232.2721975109814
 30
0.0
  0
VERTEX
  5
790
  8
LAYER_1
 10
207.5939931751162
 20
232.405737033165
 30
0.0
  0
VERTEX
  5
791
  8
LAYER_1
 10
207.6000082492828
 20
232.5502442915399
 30
0.0
  0
VERTEX
  5
792
  8
LAYER_1
 10
207.5911578231314
 20
232.7773941364207
 30
0.0
  0
VERTEX
  5
793
  8
LAYER_1
 10
207.5649404770705
 20
232.9918755900414
 30
0.0
  0
VERTEX
  5
794
  8
LAYER_1
 10
207.5218571096908
 20
233.1932128358266
 30
0.0
  0
VERTEX
  5
795
  8
LAYER_1
 10
207.4624086195827
 20
233.3809300572003
 30
0.0
  0
VERTEX
  5
796
  8
LAYER_1
 10
207.3870959053364
 20
233.554551437587
 30
0.0
  0
VERTEX
  5
797
  8
LAYER_1
 10
207.2964198655426
 20
233.7136011604109
 30
0.0
  0
VERTEX
  5
798
  8
LAYER_1
 10
207.1908813987915
 20
233.8576034090962
 30
0.0
  0
VERTEX
  5
799
  8
LAYER_1
 10
207.0709814036737
 20
233.9860823670674
 30
0.0
  0
VERTEX
  5
79A
  8
LAYER_1
 10
206.9372207787796
 20
234.0985622177486
 30
0.0
  0
VERTEX
  5
79B
  8
LAYER_1
 10
206.7901004226996
 20
234.1945671445642
 30
0.0
  0
VERTEX
  5
79C
  8
LAYER_1
 10
206.6301212340241
 20
234.2736213309385
 30
0.0
  0
VERTEX
  5
79D
  8
LAYER_1
 10
206.4577841113436
 20
234.3352489602958
 30
0.0
  0
VERTEX
  5
79E
  8
LAYER_1
 10
206.2735899532484
 20
234.3789742160603
 30
0.0
  0
VERTEX
  5
79F
  8
LAYER_1
 10
206.0780396583291
 20
234.4043212816564
 30
0.0
  0
VERTEX
  5
7A0
  8
LAYER_1
 10
205.871634125176
 20
234.4108143405084
 30
0.0
  0
VERTEX
  5
7A1
  8
LAYER_1
 10
205.6548742523796
 20
234.3979775760404
 30
0.0
  0
VERTEX
  5
7A2
  8
LAYER_1
 10
205.478474861095
 20
234.3732561978204
 30
0.0
  0
VERTEX
  5
7A3
  8
LAYER_1
 10
205.312329265033
 20
234.3362992374244
 30
0.0
  0
VERTEX
  5
7A4
  8
LAYER_1
 10
205.1565929440036
 20
234.2872887281342
 30
0.0
  0
VERTEX
  5
7A5
  8
LAYER_1
 10
205.0114213778171
 20
234.2264067032317
 30
0.0
  0
VERTEX
  5
7A6
  8
LAYER_1
 10
204.8769700462834
 20
234.1538351959987
 30
0.0
  0
VERTEX
  5
7A7
  8
LAYER_1
 10
204.7533944292128
 20
234.0697562397171
 30
0.0
  0
VERTEX
  5
7A8
  8
LAYER_1
 10
204.6408500064152
 20
233.9743518676685
 30
0.0
  0
VERTEX
  5
7A9
  8
LAYER_1
 10
204.5394922577008
 20
233.8678041131348
 30
0.0
  0
VERTEX
  5
7AA
  8
LAYER_1
 10
204.4494766628797
 20
233.7502950093979
 30
0.0
  0
VERTEX
  5
7AB
  8
LAYER_1
 10
204.370958701762
 20
233.6220065897396
 30
0.0
  0
VERTEX
  5
7AC
  8
LAYER_1
 10
204.3040938541577
 20
233.4831208874416
 30
0.0
  0
VERTEX
  5
7AD
  8
LAYER_1
 10
204.2490375998771
 20
233.3338199357858
 30
0.0
  0
VERTEX
  5
7AE
  8
LAYER_1
 10
204.2059454187301
 20
233.1742857680539
 30
0.0
  0
VERTEX
  5
7AF
  8
LAYER_1
 10
204.1749727905269
 20
233.0047004175279
 30
0.0
  0
VERTEX
  5
7B0
  8
LAYER_1
 10
204.1562751950775
 20
232.8252459174895
 30
0.0
  0
VERTEX
  5
7B1
  8
LAYER_1
 10
204.1500081121922
 20
232.6361043012205
 30
0.0
  0
VERTEX
  5
7B2
  8
LAYER_1
 10
204.1537091875608
 20
232.4162953029456
 30
0.0
  0
VERTEX
  5
7B3
  8
LAYER_1
 10
204.1666123487763
 20
232.2312655187912
 30
0.0
  0
VERTEX
  5
7B4
  8
LAYER_1
 10
204.1914174985035
 20
232.0736403134823
 30
0.0
  0
VERTEX
  5
7B5
  8
LAYER_1
 10
204.230824539407
 20
231.9360450517441
 30
0.0
  0
VERTEX
  5
7B6
  8
LAYER_1
 10
204.2875333741515
 20
231.8111050983016
 30
0.0
  0
VERTEX
  5
7B7
  8
LAYER_1
 10
204.3642439054014
 20
231.69144581788
 30
0.0
  0
VERTEX
  5
7B8
  8
LAYER_1
 10
204.4636560358216
 20
231.5696925752043
 30
0.0
  0
VERTEX
  5
7B9
  8
LAYER_1
 10
204.5884696680766
 20
231.4384707349997
 30
0.0
  0
VERTEX
  5
7BA
  8
LAYER_1
 10
204.7203921302814
 20
231.312915421011
 30
0.0
  0
VERTEX
  5
7BB
  8
LAYER_1
 10
204.8425488506609
 20
231.2131551542669
 30
0.0
  0
VERTEX
  5
7BC
  8
LAYER_1
 10
204.9626730635322
 20
231.1363992139312
 30
0.0
  0
VERTEX
  5
7BD
  8
LAYER_1
 10
205.088498003212
 20
231.0798568791678
 30
0.0
  0
VERTEX
  5
7BE
  8
LAYER_1
 10
205.2277569040174
 20
231.0407374291407
 30
0.0
  0
VERTEX
  5
7BF
  8
LAYER_1
 10
205.3881830002654
 20
231.0162501430136
 30
0.0
  0
VERTEX
  5
7C0
  8
LAYER_1
 10
205.5775095262727
 20
231.0036042999505
 30
0.0
  0
VERTEX
  5
7C1
  8
LAYER_1
 10
205.8034697163564
 20
231.0000091791153
 30
0.0
  0
VERTEX
  5
7C2
  8
LAYER_1
 10
206.0364798831838
 20
231.0035216699681
 30
0.0
  0
VERTEX
  5
7C3
  8
LAYER_1
 10
206.229592430925
 20
231.0166055765058
 30
0.0
  0
VERTEX
  5
7C4
  8
LAYER_1
 10
206.3924429044452
 20
231.0430805496975
 30
0.0
  0
VERTEX
  5
7C5
  8
LAYER_1
 10
206.5346668486098
 20
231.0867662405122
 30
0.0
  0
VERTEX
  5
7C6
  8
LAYER_1
 10
206.6658998082841
 20
231.1514822999188
 30
0.0
  0
VERTEX
  5
7C7
  8
LAYER_1
 10
206.7957773283332
 20
231.2410483788865
 30
0.0
  0
VERTEX
  5
7C8
  8
LAYER_1
 10
206.9339349536225
 20
231.3592841283842
 30
0.0
  0
SEQEND
  5
7DA
  8
LAYER_1
  0
ENDSEC
  0
EOF
