<?xml version="1.0" encoding="UTF-8"?>
<!-- Created by Vectric (http://www.vectric.com/) -->
<svg width="300.00000000mm" height="300.00000000mm" viewBox="0.00000000 0.00000000 300.00000000 300.00000000" id="svg2" version="1.1" xmlns="http://www.w3.org/2000/svg" xmlns:xlink="http://www.w3.org/1999/xlink" xmlns:inkscape="http://www.inkscape.org/namespaces/inkscape">
    <g inkscape:groupmode="layer" id="f35f8ad7-52ac-4cc3-aec1-aad96ef85285" inkscape:label="Layer 1" style="stroke:#000000;">
        <path style="fill:none;stroke-width:0.280000;stroke-linecap:round;stroke-linejoin:round;stroke-opacity:1;stroke:#000000;" d="M 145.125006,265.194261 L 146.775006,265.314448 L 155.775006,265.221511 L 157.950006,264.983956 C 166.404740,264.060528 174.123492,261.922381 181.800007,258.377341 L 183.975007,257.372919 L 184.875007,256.842379 L 186.355143,256.058777 C 187.169218,255.627796 188.282968,255.002589 188.830143,254.669428 L 189.825008,254.063680 L 191.700008,252.781325 C 194.106550,251.135437 196.120577,249.611719 198.375008,247.731335 L 200.175008,246.229983 L 205.439395,240.974998 L 207.038026,239.049146 C 210.160898,235.287059 212.649538,231.739933 214.715274,228.106556 L 215.850009,226.110695 L 215.850009,225.690990 C 215.850009,225.098992 215.421311,224.444288 214.858930,224.177421 L 214.379670,223.949997 L 199.185110,223.949997 L 198.750313,223.725155 C 198.511175,223.601491 198.126402,223.252374 197.895262,222.949339 L 197.475008,222.398366 L 197.386782,152.924994 L 197.624707,152.469634 C 197.755566,152.219186 198.011666,151.915436 198.193820,151.794634 L 198.525008,151.574994 L 212.925008,151.424994 L 213.718160,151.066591 C 214.650301,150.645383 215.624662,149.611285 215.874216,148.778348 C 215.969519,148.460253 216.104310,148.199994 216.173752,148.199994 C 216.243193,148.199994 216.300009,147.862494 216.300009,147.449994 C 216.300009,147.037494 216.232509,146.699994 216.150009,146.699994 C 216.067509,146.699994 216.000009,146.596055 216.000009,146.469018 C 216.000009,145.563631 214.498033,143.994665 213.287028,143.635035 L 212.495558,143.399994 L 198.885110,143.399994 L 198.455803,143.177991 C 198.219685,143.055889 197.885537,142.776786 197.713252,142.557762 L 197.400008,142.159536 L 197.400008,71.549991 L 214.364906,71.549991 L 214.798352,71.325848 C 215.811889,70.801727 215.977737,69.796657 215.242096,68.636672 C 214.572694,67.581134 212.713383,65.154109 211.049633,63.164099 C 205.261325,56.240708 198.533078,50.480856 190.800008,45.828995 L 188.625007,44.520615 L 185.397970,42.911845 C 176.918015,38.684344 168.051224,36.065902 158.700006,35.027699 L 156.675006,34.802877 L 155.887506,34.801433 C 155.454381,34.800639 155.100006,34.732489 155.100006,34.649989 L 155.100006,34.499989 L 145.650006,34.499989 L 145.650006,34.735930 L 143.437506,34.916093 C 133.685397,35.710203 123.332082,38.754183 114.154211,43.525682 C 108.931734,46.240804 104.267258,49.359915 99.591681,53.263571 L 97.725004,54.822066 L 91.849491,60.674990 L 90.380723,62.399991 C 89.572901,63.348741 88.077394,65.234822 87.057375,66.591282 L 85.202795,69.057572 L 85.109237,69.556281 C 84.984502,70.221174 85.291915,70.918893 85.863050,71.267171 L 86.325003,71.548870 L 103.500004,71.549991 L 103.498027,142.874994 L 103.220599,143.295754 C 103.068014,143.527172 102.781583,143.830922 102.584087,143.970754 L 102.225004,144.224994 L 86.775003,144.374994 L 86.154835,144.706700 C 83.235350,146.268232 83.109472,150.108389 85.923546,151.762643 L 86.625003,152.174994 L 102.088746,152.324994 L 102.501536,152.595644 C 102.728571,152.744502 103.045852,153.082002 103.206605,153.345644 L 103.498883,153.824994 L 103.500004,222.329658 L 103.249509,222.857537 C 103.111737,223.147870 102.791112,223.512194 102.537009,223.667145 L 102.075004,223.948876 L 86.540368,223.949997 L 86.039790,224.159152 C 85.382183,224.433917 85.050003,224.932824 85.050003,225.645729 L 85.050003,226.224709 L 85.970936,227.824853 C 91.796239,237.946469 99.766642,246.522599 109.200004,252.819261 C 119.226598,259.511899 131.015698,263.761580 142.904047,264.968742 L 145.125006,265.194261 "/>
        <path style="fill:none;stroke-width:0.280000;stroke-linecap:round;stroke-linejoin:round;stroke-opacity:1;stroke:#000000;" d="M 133.700812,253.201119 C 133.981997,252.954235 134.251081,252.557119 134.298777,252.318638 C 134.510573,251.259658 133.813628,250.233636 132.789161,250.096226 C 131.625217,249.940108 130.800005,250.687739 130.800005,251.898374 C 130.800005,252.530417 130.869421,252.699414 131.310005,253.139998 C 131.741052,253.571045 131.926016,253.649998 132.504786,253.649998 C 133.051380,253.649998 133.292734,253.559416 133.700812,253.201119 "/>
        <path style="fill:none;stroke-width:0.280000;stroke-linecap:round;stroke-linejoin:round;stroke-opacity:1;stroke:#000000;" d="M 152.609252,252.911746 C 152.848088,252.754295 153.181458,252.407579 153.350076,252.141266 C 153.926450,251.230945 153.574457,249.464771 152.734471,249.052382 L 152.475006,248.924998 L 157.575006,248.774998 L 157.651791,224.699997 L 152.175006,224.692014 L 152.550006,224.457119 C 153.174683,224.065829 153.500762,223.494716 153.568948,222.672489 C 153.640205,221.813219 153.423589,221.253950 152.790412,220.662433 C 152.257010,220.164127 150.913580,220.043685 150.196463,220.429878 C 148.734647,221.217118 148.645547,223.552902 150.044788,224.406070 L 150.525006,224.698876 L 145.050006,224.699997 L 145.050006,248.849998 L 150.208856,248.849998 L 149.698972,249.376065 C 149.246572,249.842823 149.182081,250.012173 149.126937,250.878192 L 149.064786,251.854252 L 149.737659,252.527125 C 150.382680,253.172146 150.447051,253.199957 151.292769,253.199010 C 151.907920,253.198321 152.306469,253.111355 152.609252,252.911746 "/>
        <path style="fill:none;stroke-width:0.280000;stroke-linecap:round;stroke-linejoin:round;stroke-opacity:1;stroke:#000000;" d="M 133.572953,238.174813 C 133.800327,237.995961 134.081367,237.622243 134.197487,237.344328 C 134.630901,236.307023 133.920895,235.098023 132.789161,234.946225 C 131.625217,234.790108 130.800005,235.537738 130.800005,236.748373 C 130.800005,237.380417 130.869421,237.549413 131.310005,237.989998 C 131.737714,238.417707 131.928076,238.499998 132.489776,238.499998 C 132.949709,238.499998 133.289067,238.398117 133.572953,238.174813 "/>
        <path style="fill:none;stroke-width:0.280000;stroke-linecap:round;stroke-linejoin:round;stroke-opacity:1;stroke:#000000;" d="M 203.244814,234.100420 C 203.545126,233.999071 203.909326,233.709779 204.107314,233.415315 C 204.507253,232.820494 204.538281,232.356358 204.222584,231.691076 C 203.608924,230.397882 201.701948,230.375005 201.095235,231.653559 C 200.774205,232.330080 200.786420,232.768872 201.142542,233.352924 C 201.605447,234.112103 202.386878,234.389953 203.244814,234.100420 "/>
        <path style="fill:none;stroke-width:0.280000;stroke-linecap:round;stroke-linejoin:round;stroke-opacity:1;stroke:#000000;" d="M 98.940004,233.639997 C 99.333685,233.246316 99.450004,233.005137 99.450004,232.582548 C 99.450004,231.383437 98.585220,230.595431 97.438092,230.749260 C 96.528675,230.871212 96.000004,231.519930 96.000004,232.513902 C 96.000004,233.152987 96.069360,233.342431 96.438465,233.711536 C 96.810154,234.083224 96.995186,234.149997 97.653465,234.149997 C 98.336588,234.149997 98.491356,234.088645 98.940004,233.639997 "/>
        <path style="fill:none;stroke-width:0.280000;stroke-linecap:round;stroke-linejoin:round;stroke-opacity:1;stroke:#000000;" d="M 133.628484,222.970088 C 133.876807,222.761138 134.157220,222.356138 134.251625,222.070088 C 134.465530,221.421952 134.257733,220.700468 133.708568,220.184554 C 133.400452,219.895095 133.164954,219.824997 132.500616,219.824997 C 131.758131,219.824997 131.631514,219.874110 131.237701,220.314863 C 130.875733,220.719976 130.800005,220.936676 130.800005,221.567363 C 130.800005,222.234672 130.863752,222.393744 131.310005,222.839997 C 131.739672,223.269663 131.926879,223.349997 132.498496,223.349997 C 133.005715,223.349997 133.290960,223.254096 133.628484,222.970088 "/>
        <path style="fill:none;stroke-width:0.280000;stroke-linecap:round;stroke-linejoin:round;stroke-opacity:1;stroke:#000000;" d="M 152.821416,212.396250 C 153.424442,212.238274 154.243252,211.931902 154.640995,211.715424 C 159.387479,209.132063 160.888398,202.994851 157.858267,198.560099 C 156.619729,196.747437 154.790565,195.476205 152.630991,194.927251 C 151.477682,194.634084 149.258037,194.636181 148.124199,194.931508 C 145.003082,195.744456 142.390377,198.416938 141.666889,201.536560 C 141.365250,202.837200 141.368008,204.863810 141.672978,206.011166 C 142.497395,209.112786 145.106693,211.668891 148.269021,212.472742 C 149.487183,212.782393 151.474917,212.748994 152.821416,212.396250 "/>
        <path style="fill:none;stroke-width:0.280000;stroke-linecap:round;stroke-linejoin:round;stroke-opacity:1;stroke:#000000;" d="M 114.264707,172.286521 C 114.750013,171.841771 114.825005,171.684200 114.825005,171.109229 C 114.825005,170.261560 114.534539,169.724292 113.918120,169.431782 C 112.631676,168.821324 111.300004,169.618976 111.300004,170.999995 C 111.300004,172.036827 112.092747,172.799995 113.169758,172.799995 C 113.569384,172.799995 113.845913,172.670317 114.264707,172.286521 "/>
        <path style="fill:none;stroke-width:0.280000;stroke-linecap:round;stroke-linejoin:round;stroke-opacity:1;stroke:#000000;" d="M 94.575004,150.006890 C 94.740004,149.938641 95.029552,149.716349 95.218444,149.512907 C 96.220307,148.433873 95.382017,146.549994 93.900004,146.549994 C 92.988926,146.549994 92.099098,147.451309 92.100564,148.372663 C 92.102333,149.484295 93.541121,150.434532 94.575004,150.006890 "/>
        <path style="fill:none;stroke-width:0.280000;stroke-linecap:round;stroke-linejoin:round;stroke-opacity:1;stroke:#000000;" d="M 206.625008,148.958190 C 206.790008,148.890657 207.052976,148.693120 207.209381,148.519218 C 207.375908,148.334062 207.523530,147.893143 207.565607,147.455240 C 207.632672,146.757285 207.602223,146.672208 207.108735,146.178720 C 206.639941,145.709927 206.491985,145.649994 205.803470,145.649994 C 205.145190,145.649994 204.960158,145.716767 204.588470,146.088455 C 204.216781,146.460144 204.150008,146.645176 204.150008,147.303455 C 204.150008,147.986578 204.211360,148.141346 204.660008,148.589994 C 205.069485,148.999471 205.283836,149.098120 205.747508,149.090486 C 206.065133,149.085257 206.460008,149.025724 206.625008,148.958190 "/>
        <path style="fill:none;stroke-width:0.280000;stroke-linecap:round;stroke-linejoin:round;stroke-opacity:1;stroke:#000000;" d="M 114.103300,144.607236 C 114.422603,144.412543 114.633100,144.129061 114.736539,143.754436 C 114.926211,143.067499 114.821535,142.574030 114.352451,141.943754 C 113.698115,141.064568 112.177942,141.151863 111.580045,142.102958 C 111.123953,142.828480 111.263873,143.925306 111.883099,144.478585 C 112.461980,144.995815 113.378880,145.048945 114.103300,144.607236 "/>
        <path style="fill:none;stroke-width:0.280000;stroke-linecap:round;stroke-linejoin:round;stroke-opacity:1;stroke:#000000;" d="M 165.686960,140.125955 C 165.941035,139.966191 166.236561,139.623876 166.343685,139.365256 C 166.618024,138.702941 166.446245,137.877001 165.925944,137.356700 C 165.379227,136.809983 164.312392,136.732850 163.693045,137.195259 C 162.847153,137.826809 162.783056,139.205995 163.565439,139.941005 C 164.075306,140.420001 165.080041,140.507591 165.686960,140.125955 "/>
        <path style="fill:none;stroke-width:0.280000;stroke-linecap:round;stroke-linejoin:round;stroke-opacity:1;stroke:#000000;" d="M 151.810931,99.290415 C 152.270690,99.222768 153.099594,98.997010 153.652941,98.788730 C 157.907134,97.187457 160.288623,92.576941 159.153690,88.139393 C 158.717151,86.432544 158.056951,85.293742 156.743399,83.981798 C 154.942338,82.182943 152.980863,81.402374 150.300006,81.417651 C 147.530261,81.433434 145.184118,82.537531 143.431934,84.649774 C 141.229221,87.305125 140.811247,91.239139 142.386230,94.492059 C 143.078849,95.922572 144.904361,97.710226 146.435955,98.457799 C 148.156247,99.297477 149.913202,99.569639 151.810931,99.290415 "/>
        <path style="fill:none;stroke-width:0.280000;stroke-linecap:round;stroke-linejoin:round;stroke-opacity:1;stroke:#000000;" d="M 113.037239,70.504663 C 113.208968,70.435191 113.529593,70.164291 113.749739,69.902662 C 114.525988,68.980142 114.112733,67.530631 112.976412,67.190181 C 111.799620,66.837605 110.700004,67.580287 110.700004,68.727669 C 110.700004,70.084618 111.872316,70.975924 113.037239,70.504663 "/>
        <path style="fill:none;stroke-width:0.280000;stroke-linecap:round;stroke-linejoin:round;stroke-opacity:1;stroke:#000000;" d="M 189.150008,70.393376 C 189.441515,70.244354 189.793991,69.891498 189.942538,69.599991 C 190.418953,68.665076 190.002090,67.615067 188.987691,67.194889 C 187.635176,66.634659 186.227810,68.118833 186.803973,69.497785 C 187.203838,70.454797 188.249218,70.853867 189.150008,70.393376 "/>
        <path style="fill:none;stroke-width:0.280000;stroke-linecap:round;stroke-linejoin:round;stroke-opacity:1;stroke:#000000;" d="M 94.407109,68.991129 C 94.644766,68.922006 94.998108,68.716176 95.192312,68.533731 C 95.930947,67.839819 95.770035,66.371263 94.897040,65.838942 C 93.968133,65.272529 92.782907,65.581217 92.345230,66.503552 C 92.045141,67.135943 92.040158,67.366395 92.312475,68.018141 C 92.650003,68.825959 93.545238,69.241809 94.407109,68.991129 "/>
        <path style="fill:none;stroke-width:0.280000;stroke-linecap:round;stroke-linejoin:round;stroke-opacity:1;stroke:#000000;" d="M 207.090008,68.489991 C 207.477641,68.102358 207.600008,67.852768 207.600008,67.449756 C 207.600008,66.205353 206.837648,65.481168 205.654874,65.602022 C 204.687010,65.700918 204.150008,66.329632 204.150008,67.363896 C 204.150008,68.002981 204.219365,68.192424 204.588470,68.561529 C 204.960158,68.933217 205.145190,68.999991 205.803470,68.999991 C 206.486592,68.999991 206.641360,68.938639 207.090008,68.489991 "/>
    </g>
</svg>
