%FSLAX34Y34*%
%MOMM*%
%LNSOLDERMASK_BOTTOM*%
G71*
G01*
%ADD10C,2.200*%
%ADD11C,2.700*%
%ADD12C,3.800*%
%ADD13C,2.200*%
%ADD14C,1.400*%
%ADD15C,3.200*%
%ADD16C,2.900*%
%ADD17C,4.200*%
%LPD*%
X952500Y-95250D02*
G54D10*
D03*
X952500Y-273050D02*
G54D10*
D03*
X927100Y-95250D02*
G54D10*
D03*
X927100Y-273050D02*
G54D10*
D03*
X901700Y-95250D02*
G54D10*
D03*
X901700Y-273050D02*
G54D10*
D03*
X876300Y-95250D02*
G54D10*
D03*
X876300Y-273050D02*
G54D10*
D03*
X850900Y-95250D02*
G54D10*
D03*
X850900Y-273050D02*
G54D10*
D03*
X825500Y-95250D02*
G54D10*
D03*
X825500Y-273050D02*
G54D10*
D03*
X800100Y-95250D02*
G54D10*
D03*
X800100Y-273050D02*
G54D10*
D03*
X774700Y-95250D02*
G54D10*
D03*
X774700Y-273050D02*
G54D10*
D03*
X749300Y-95250D02*
G54D10*
D03*
X749300Y-273050D02*
G54D10*
D03*
X723900Y-95250D02*
G54D10*
D03*
X723900Y-273050D02*
G54D10*
D03*
X698500Y-95250D02*
G54D10*
D03*
X698500Y-273050D02*
G54D10*
D03*
X673100Y-95250D02*
G54D10*
D03*
X673100Y-273050D02*
G54D10*
D03*
X647700Y-95250D02*
G54D10*
D03*
X647700Y-273050D02*
G54D10*
D03*
X622300Y-95250D02*
G54D10*
D03*
X622300Y-273050D02*
G54D10*
D03*
X596900Y-95250D02*
G54D10*
D03*
X596900Y-273050D02*
G54D10*
D03*
X571500Y-95250D02*
G54D10*
D03*
X571500Y-273050D02*
G54D10*
D03*
X546100Y-95250D02*
G54D10*
D03*
X546100Y-273050D02*
G54D10*
D03*
X520700Y-95250D02*
G54D10*
D03*
X520700Y-273050D02*
G54D10*
D03*
X495300Y-95250D02*
G54D10*
D03*
X495300Y-273050D02*
G54D10*
D03*
X469900Y-95250D02*
G54D10*
D03*
X469900Y-273050D02*
G54D10*
D03*
X215900Y-254000D02*
G54D10*
D03*
X215900Y-69850D02*
G54D10*
D03*
X190500Y-254000D02*
G54D10*
D03*
X190500Y-69850D02*
G54D10*
D03*
X165100Y-254000D02*
G54D10*
D03*
X165100Y-69850D02*
G54D10*
D03*
X139700Y-254000D02*
G54D10*
D03*
X139700Y-69850D02*
G54D10*
D03*
X114300Y-254000D02*
G54D10*
D03*
X114300Y-69850D02*
G54D10*
D03*
X88900Y-254000D02*
G54D10*
D03*
X88900Y-69850D02*
G54D10*
D03*
X63500Y-254000D02*
G54D10*
D03*
X63500Y-69850D02*
G54D10*
D03*
X38100Y-254000D02*
G54D10*
D03*
X38100Y-69850D02*
G54D10*
D03*
X146050Y-527050D02*
G54D10*
D03*
X171450Y-527050D02*
G54D10*
D03*
X196850Y-527050D02*
G54D10*
D03*
X222250Y-527050D02*
G54D10*
D03*
X247650Y-527050D02*
G54D10*
D03*
X273050Y-527050D02*
G54D10*
D03*
X298450Y-527050D02*
G54D10*
D03*
X323850Y-527050D02*
G54D10*
D03*
X146050Y-374650D02*
G54D10*
D03*
X171450Y-374650D02*
G54D10*
D03*
X196850Y-374650D02*
G54D10*
D03*
X222250Y-374650D02*
G54D10*
D03*
X247650Y-374650D02*
G54D10*
D03*
X273050Y-374650D02*
G54D10*
D03*
X298450Y-374650D02*
G54D10*
D03*
X323850Y-374650D02*
G54D10*
D03*
X50800Y-409575D02*
G54D10*
D03*
X50800Y-434975D02*
G54D10*
D03*
X50800Y-492125D02*
G54D10*
D03*
X50800Y-466725D02*
G54D10*
D03*
X101600Y-492125D02*
G54D10*
D03*
X101600Y-466725D02*
G54D10*
D03*
X101600Y-409575D02*
G54D10*
D03*
X101600Y-434975D02*
G54D10*
D03*
X31750Y-768350D02*
G54D11*
D03*
X31750Y-658350D02*
G54D11*
D03*
X131750Y-688350D02*
G54D12*
D03*
X131750Y-738350D02*
G54D12*
D03*
G54D13*
X882650Y-666275D02*
X882650Y-686275D01*
G54D14*
X903650Y-670275D02*
X903650Y-682275D01*
G54D14*
X923650Y-670275D02*
X923650Y-682275D01*
G54D14*
X943650Y-670275D02*
X943650Y-682275D01*
G54D13*
X964650Y-666275D02*
X964650Y-686275D01*
X98425Y-34925D02*
G54D10*
D03*
X73025Y-34925D02*
G54D10*
D03*
X514350Y-444500D02*
G54D10*
D03*
X539750Y-444500D02*
G54D10*
D03*
X565150Y-444500D02*
G54D10*
D03*
X514350Y-495300D02*
G54D10*
D03*
X539750Y-495300D02*
G54D10*
D03*
X565150Y-495300D02*
G54D10*
D03*
X228600Y-736600D02*
G54D15*
D03*
X308600Y-736600D02*
G54D15*
D03*
X425450Y-752475D02*
G54D10*
D03*
X450850Y-752475D02*
G54D10*
D03*
X476250Y-752475D02*
G54D10*
D03*
X501650Y-752475D02*
G54D10*
D03*
X527050Y-752475D02*
G54D10*
D03*
X423828Y-723265D02*
G54D16*
D03*
X458828Y-723265D02*
G54D16*
D03*
X493828Y-723265D02*
G54D16*
D03*
X528828Y-723265D02*
G54D16*
D03*
X30000Y-580000D02*
G54D17*
D03*
X30000Y-30000D02*
G54D17*
D03*
X970000Y-770000D02*
G54D17*
D03*
X911225Y-44450D02*
G54D10*
D03*
X885825Y-44450D02*
G54D10*
D03*
X860425Y-44450D02*
G54D10*
D03*
X835025Y-44450D02*
G54D10*
D03*
X895350Y-609600D02*
G54D10*
D03*
X895350Y-584200D02*
G54D10*
D03*
X895350Y-558800D02*
G54D10*
D03*
X895350Y-533400D02*
G54D10*
D03*
X946150Y-463550D02*
G54D10*
D03*
X946150Y-438150D02*
G54D10*
D03*
X946150Y-412750D02*
G54D10*
D03*
X946150Y-387350D02*
G54D10*
D03*
X895350Y-463550D02*
G54D10*
D03*
X895350Y-438150D02*
G54D10*
D03*
X895350Y-412750D02*
G54D10*
D03*
X895350Y-387350D02*
G54D10*
D03*
X800100Y-333375D02*
G54D10*
D03*
X774700Y-333375D02*
G54D10*
D03*
X749300Y-333375D02*
G54D10*
D03*
X723900Y-333375D02*
G54D10*
D03*
X970000Y-30000D02*
G54D17*
D03*
X698500Y-44450D02*
G54D10*
D03*
X673100Y-44450D02*
G54D10*
D03*
X647700Y-44450D02*
G54D10*
D03*
X622300Y-44450D02*
G54D10*
D03*
X596900Y-44450D02*
G54D10*
D03*
X571500Y-44450D02*
G54D10*
D03*
X546100Y-44450D02*
G54D10*
D03*
X946150Y-609600D02*
G54D10*
D03*
X946150Y-584200D02*
G54D10*
D03*
X946150Y-558800D02*
G54D10*
D03*
X946150Y-533400D02*
G54D10*
D03*
M02*
