%FSLAX34Y34*%
%MOMM*%
%LNCOPPER_TOP*%
G71*
G01*
%ADD10R,1.200X0.350*%
%ADD11R,1.100X0.650*%
%ADD12R,1.300X1.600*%
%ADD13R,1.400X1.300*%
%ADD14R,1.300X1.400*%
%ADD15C,2.000*%
%ADD16R,1.000X0.650*%
%ADD17C,2.500*%
%ADD18C,3.600*%
%ADD19C,2.000*%
%ADD20C,1.200*%
%ADD21C,3.000*%
%ADD22C,2.700*%
%ADD23C,4.000*%
%ADD24R,2.500X1.700*%
%ADD25C,3.000*%
%ADD26C,2.850*%
%ADD27C,0.300*%
%ADD28C,1.700*%
%ADD29C,0.800*%
%ADD30C,0.700*%
%ADD31C,1.000*%
%ADD32R,1.600X1.300*%
%ADD33R,1.100X1.600*%
%ADD34C,1.000*%
%ADD35C,0.600*%
%ADD36C,0.700*%
%LPD*%
X796925Y-555625D02*
G54D10*
D03*
X757925Y-555625D02*
G54D10*
D03*
X796925Y-549125D02*
G54D10*
D03*
X757925Y-549125D02*
G54D10*
D03*
X796925Y-542625D02*
G54D10*
D03*
X757925Y-542625D02*
G54D10*
D03*
X796925Y-536125D02*
G54D10*
D03*
X757925Y-536125D02*
G54D10*
D03*
X463550Y-441325D02*
G54D11*
D03*
X463550Y-460325D02*
G54D11*
D03*
X436550Y-441325D02*
G54D11*
D03*
X436550Y-460325D02*
G54D11*
D03*
X436550Y-450825D02*
G54D11*
D03*
X463550Y-450825D02*
G54D11*
D03*
X431800Y-415925D02*
G54D12*
D03*
X450800Y-415925D02*
G54D12*
D03*
X749300Y-508000D02*
G54D12*
D03*
X768300Y-508000D02*
G54D12*
D03*
X790575Y-508000D02*
G54D12*
D03*
X809575Y-508000D02*
G54D12*
D03*
X847725Y-533400D02*
G54D13*
D03*
X847725Y-514400D02*
G54D13*
D03*
X847700Y-577825D02*
G54D13*
D03*
X847700Y-558825D02*
G54D13*
D03*
X844550Y-368300D02*
G54D13*
D03*
X844550Y-387300D02*
G54D13*
D03*
X844550Y-412750D02*
G54D13*
D03*
X844550Y-431750D02*
G54D13*
D03*
X600075Y-444500D02*
G54D14*
D03*
X619075Y-444500D02*
G54D14*
D03*
X463550Y-482600D02*
G54D14*
D03*
X482550Y-482600D02*
G54D14*
D03*
X952500Y-95250D02*
G54D15*
D03*
X952500Y-273050D02*
G54D15*
D03*
X927100Y-95250D02*
G54D15*
D03*
X927100Y-273050D02*
G54D15*
D03*
X901700Y-95250D02*
G54D15*
D03*
X901700Y-273050D02*
G54D15*
D03*
X876300Y-95250D02*
G54D15*
D03*
X876300Y-273050D02*
G54D15*
D03*
X850900Y-95250D02*
G54D15*
D03*
X850900Y-273050D02*
G54D15*
D03*
X825500Y-95250D02*
G54D15*
D03*
X825500Y-273050D02*
G54D15*
D03*
X800100Y-95250D02*
G54D15*
D03*
X800100Y-273050D02*
G54D15*
D03*
X774700Y-95250D02*
G54D15*
D03*
X774700Y-273050D02*
G54D15*
D03*
X749300Y-95250D02*
G54D15*
D03*
X749300Y-273050D02*
G54D15*
D03*
X723900Y-95250D02*
G54D15*
D03*
X723900Y-273050D02*
G54D15*
D03*
X698500Y-95250D02*
G54D15*
D03*
X698500Y-273050D02*
G54D15*
D03*
X673100Y-95250D02*
G54D15*
D03*
X673100Y-273050D02*
G54D15*
D03*
X647700Y-95250D02*
G54D15*
D03*
X647700Y-273050D02*
G54D15*
D03*
X622300Y-95250D02*
G54D15*
D03*
X622300Y-273050D02*
G54D15*
D03*
X596900Y-95250D02*
G54D15*
D03*
X596900Y-273050D02*
G54D15*
D03*
X571500Y-95250D02*
G54D15*
D03*
X571500Y-273050D02*
G54D15*
D03*
X546100Y-95250D02*
G54D15*
D03*
X546100Y-273050D02*
G54D15*
D03*
X520700Y-95250D02*
G54D15*
D03*
X520700Y-273050D02*
G54D15*
D03*
X495300Y-95250D02*
G54D15*
D03*
X495300Y-273050D02*
G54D15*
D03*
X469900Y-95250D02*
G54D15*
D03*
X469900Y-273050D02*
G54D15*
D03*
X676275Y-539750D02*
G54D16*
D03*
X676275Y-558750D02*
G54D16*
D03*
X652475Y-539750D02*
G54D16*
D03*
X652475Y-558750D02*
G54D16*
D03*
X652475Y-549250D02*
G54D16*
D03*
X657225Y-581025D02*
G54D12*
D03*
X676225Y-581025D02*
G54D12*
D03*
X215900Y-254000D02*
G54D15*
D03*
X215900Y-69850D02*
G54D15*
D03*
X190500Y-254000D02*
G54D15*
D03*
X190500Y-69850D02*
G54D15*
D03*
X165100Y-254000D02*
G54D15*
D03*
X165100Y-69850D02*
G54D15*
D03*
X139700Y-254000D02*
G54D15*
D03*
X139700Y-69850D02*
G54D15*
D03*
X114300Y-254000D02*
G54D15*
D03*
X114300Y-69850D02*
G54D15*
D03*
X88900Y-254000D02*
G54D15*
D03*
X88900Y-69850D02*
G54D15*
D03*
X63500Y-254000D02*
G54D15*
D03*
X63500Y-69850D02*
G54D15*
D03*
X38100Y-254000D02*
G54D15*
D03*
X38100Y-69850D02*
G54D15*
D03*
X146050Y-527050D02*
G54D15*
D03*
X171450Y-527050D02*
G54D15*
D03*
X196850Y-527050D02*
G54D15*
D03*
X222250Y-527050D02*
G54D15*
D03*
X247650Y-527050D02*
G54D15*
D03*
X273050Y-527050D02*
G54D15*
D03*
X298450Y-527050D02*
G54D15*
D03*
X323850Y-527050D02*
G54D15*
D03*
X146050Y-374650D02*
G54D15*
D03*
X171450Y-374650D02*
G54D15*
D03*
X196850Y-374650D02*
G54D15*
D03*
X222250Y-374650D02*
G54D15*
D03*
X247650Y-374650D02*
G54D15*
D03*
X273050Y-374650D02*
G54D15*
D03*
X298450Y-374650D02*
G54D15*
D03*
X323850Y-374650D02*
G54D15*
D03*
X50800Y-409575D02*
G54D15*
D03*
X50800Y-434975D02*
G54D15*
D03*
X50800Y-492125D02*
G54D15*
D03*
X50800Y-466725D02*
G54D15*
D03*
X101600Y-492125D02*
G54D15*
D03*
X101600Y-466725D02*
G54D15*
D03*
X101600Y-409575D02*
G54D15*
D03*
X101600Y-434975D02*
G54D15*
D03*
X31750Y-768350D02*
G54D17*
D03*
X31750Y-658350D02*
G54D17*
D03*
X131750Y-688350D02*
G54D18*
D03*
X131750Y-738350D02*
G54D18*
D03*
G54D19*
X882650Y-666275D02*
X882650Y-686275D01*
G54D20*
X903650Y-670275D02*
X903650Y-682275D01*
G54D20*
X923650Y-670275D02*
X923650Y-682275D01*
G54D20*
X943650Y-670275D02*
X943650Y-682275D01*
G54D19*
X964650Y-666275D02*
X964650Y-686275D01*
X98425Y-34925D02*
G54D15*
D03*
X73025Y-34925D02*
G54D15*
D03*
X514350Y-444500D02*
G54D15*
D03*
X539750Y-444500D02*
G54D15*
D03*
X565150Y-444500D02*
G54D15*
D03*
X514350Y-495300D02*
G54D15*
D03*
X539750Y-495300D02*
G54D15*
D03*
X565150Y-495300D02*
G54D15*
D03*
X228600Y-736600D02*
G54D21*
D03*
X308600Y-736600D02*
G54D21*
D03*
X425450Y-752475D02*
G54D15*
D03*
X450850Y-752475D02*
G54D15*
D03*
X476250Y-752475D02*
G54D15*
D03*
X501650Y-752475D02*
G54D15*
D03*
X527050Y-752475D02*
G54D15*
D03*
X423828Y-723265D02*
G54D22*
D03*
X458828Y-723265D02*
G54D22*
D03*
X493828Y-723265D02*
G54D22*
D03*
X528828Y-723265D02*
G54D22*
D03*
X30000Y-580000D02*
G54D23*
D03*
X30000Y-30000D02*
G54D23*
D03*
X970000Y-770000D02*
G54D23*
D03*
X911225Y-44450D02*
G54D15*
D03*
X885825Y-44450D02*
G54D15*
D03*
X860425Y-44450D02*
G54D15*
D03*
X835025Y-44450D02*
G54D15*
D03*
X219075Y-625475D02*
G54D14*
D03*
X238075Y-625475D02*
G54D14*
D03*
X219075Y-600075D02*
G54D14*
D03*
X238075Y-600075D02*
G54D14*
D03*
X895350Y-609600D02*
G54D15*
D03*
X895350Y-584200D02*
G54D15*
D03*
X895350Y-558800D02*
G54D15*
D03*
X895350Y-533400D02*
G54D15*
D03*
X946150Y-463550D02*
G54D15*
D03*
X946150Y-438150D02*
G54D15*
D03*
X946150Y-412750D02*
G54D15*
D03*
X946150Y-387350D02*
G54D15*
D03*
X895350Y-463550D02*
G54D15*
D03*
X895350Y-438150D02*
G54D15*
D03*
X895350Y-412750D02*
G54D15*
D03*
X895350Y-387350D02*
G54D15*
D03*
X387350Y-441325D02*
G54D14*
D03*
X406350Y-441325D02*
G54D14*
D03*
X387350Y-460375D02*
G54D14*
D03*
X406350Y-460375D02*
G54D14*
D03*
X800100Y-333375D02*
G54D15*
D03*
X774700Y-333375D02*
G54D15*
D03*
X749300Y-333375D02*
G54D15*
D03*
X723900Y-333375D02*
G54D15*
D03*
X298450Y-615950D02*
G54D16*
D03*
X298450Y-634950D02*
G54D16*
D03*
X274650Y-615950D02*
G54D16*
D03*
X274650Y-634950D02*
G54D16*
D03*
X274650Y-625450D02*
G54D16*
D03*
X279400Y-590550D02*
G54D12*
D03*
X298400Y-590550D02*
G54D12*
D03*
X970000Y-30000D02*
G54D23*
D03*
X749300Y-365125D02*
G54D14*
D03*
X768300Y-365125D02*
G54D14*
D03*
X190500Y-34925D02*
G54D14*
D03*
X171500Y-34925D02*
G54D14*
D03*
X231750Y-34950D02*
G54D14*
D03*
X212750Y-34950D02*
G54D14*
D03*
X698500Y-44450D02*
G54D15*
D03*
X673100Y-44450D02*
G54D15*
D03*
X647700Y-44450D02*
G54D15*
D03*
X622300Y-44450D02*
G54D15*
D03*
X596900Y-44450D02*
G54D15*
D03*
X571500Y-44450D02*
G54D15*
D03*
X546100Y-44450D02*
G54D15*
D03*
X758825Y-34925D02*
G54D14*
D03*
X777825Y-34925D02*
G54D14*
D03*
X777825Y-57150D02*
G54D14*
D03*
X758825Y-57150D02*
G54D14*
D03*
X967100Y-320675D02*
G54D24*
D03*
X927100Y-320675D02*
G54D24*
D03*
X831850Y-717550D02*
G54D14*
D03*
X850850Y-717550D02*
G54D14*
D03*
X831850Y-742950D02*
G54D14*
D03*
X850850Y-742950D02*
G54D14*
D03*
X746125Y-717550D02*
G54D14*
D03*
X765125Y-717550D02*
G54D14*
D03*
X746125Y-742950D02*
G54D14*
D03*
X765125Y-742950D02*
G54D14*
D03*
X660400Y-717550D02*
G54D14*
D03*
X679400Y-717550D02*
G54D14*
D03*
X660400Y-742950D02*
G54D14*
D03*
X679400Y-742950D02*
G54D14*
D03*
X946150Y-609600D02*
G54D15*
D03*
X946150Y-584200D02*
G54D15*
D03*
X946150Y-558800D02*
G54D15*
D03*
X946150Y-533400D02*
G54D15*
D03*
G54D25*
X308600Y-720725D02*
X421288Y-720725D01*
X423828Y-723265D01*
G54D20*
X450850Y-752475D02*
X446088Y-742950D01*
X426402Y-723265D01*
X423828Y-723265D01*
G54D26*
X423828Y-723265D02*
X405413Y-704850D01*
G36*
X111125Y-717550D02*
X244475Y-717550D01*
X257175Y-730250D01*
X257175Y-758825D01*
X244475Y-771525D01*
X111125Y-771525D01*
X98425Y-758825D01*
X98425Y-730250D01*
X111125Y-717550D01*
G37*
G54D27*
X111125Y-717550D02*
X244475Y-717550D01*
X257175Y-730250D01*
X257175Y-758825D01*
X244475Y-771525D01*
X111125Y-771525D01*
X98425Y-758825D01*
X98425Y-730250D01*
X111125Y-717550D01*
G36*
X292100Y-762000D02*
X279400Y-749300D01*
X279400Y-704850D01*
X292100Y-692150D01*
X403225Y-692150D01*
X425450Y-714375D01*
X425450Y-730250D01*
X406400Y-742950D01*
X393700Y-762000D01*
X292100Y-762000D01*
X279400Y-749300D01*
X292100Y-762000D01*
G37*
G54D27*
X292100Y-762000D02*
X279400Y-749300D01*
X279400Y-704850D01*
X292100Y-692150D01*
X403225Y-692150D01*
X425450Y-714375D01*
X425450Y-730250D01*
X406400Y-742950D01*
X393700Y-762000D01*
X292100Y-762000D01*
X279400Y-749300D01*
X292100Y-762000D01*
G54D27*
X546100Y-50800D02*
X546100Y-95250D01*
G54D27*
X571500Y-50800D02*
X571500Y-95250D01*
G54D27*
X596900Y-50800D02*
X596900Y-95250D01*
G54D27*
X622300Y-50800D02*
X622300Y-95250D01*
G54D28*
X50800Y-466725D02*
X101600Y-466725D01*
X225425Y-466725D01*
X247650Y-488950D01*
X247650Y-527050D01*
G54D28*
X50800Y-492125D02*
X101600Y-492125D01*
X209550Y-492125D01*
X222250Y-504825D01*
X222250Y-527050D01*
G54D28*
X50800Y-434975D02*
X101600Y-434975D01*
X241300Y-434975D01*
X273050Y-466725D01*
X273050Y-527050D01*
G54D28*
X50800Y-409575D02*
X101600Y-409575D01*
X257175Y-409575D01*
X298450Y-450850D01*
X298450Y-527050D01*
G54D19*
X292100Y-704850D02*
X260350Y-673100D01*
X200025Y-673100D01*
X144462Y-617538D01*
X144462Y-528638D01*
G54D25*
X144462Y-544512D02*
X144462Y-617538D01*
X200025Y-673100D01*
X260350Y-673100D01*
X292100Y-704850D01*
G54D25*
X142875Y-571500D02*
X142875Y-530225D01*
G54D27*
X273050Y-374650D02*
X273050Y-349250D01*
X288925Y-333375D01*
X349250Y-333375D01*
X368300Y-314325D01*
X368300Y-209550D01*
X393700Y-184150D01*
X860425Y-184150D01*
X927100Y-117475D01*
X927100Y-95250D01*
G54D27*
X247650Y-374650D02*
X247650Y-352425D01*
X279400Y-320675D01*
X342900Y-320675D01*
X358775Y-304800D01*
X358775Y-203200D01*
X390525Y-171450D01*
X844550Y-171450D01*
X876300Y-139700D01*
X876300Y-95250D01*
G54D27*
X298450Y-374650D02*
X298450Y-355600D01*
X307975Y-346075D01*
X352425Y-346075D01*
X377825Y-320675D01*
X377825Y-212725D01*
X393700Y-196850D01*
X876300Y-196850D01*
X952500Y-120650D01*
X952500Y-95250D01*
G54D27*
X222250Y-374650D02*
X222250Y-355600D01*
X269875Y-307975D01*
X336550Y-307975D01*
X349250Y-295275D01*
X349250Y-196850D01*
X387350Y-158750D01*
X828675Y-158750D01*
X850900Y-136525D01*
X850900Y-95250D01*
G54D27*
X825500Y-95250D02*
X825500Y-130175D01*
X809625Y-146050D01*
X384175Y-146050D01*
X339725Y-190500D01*
X339725Y-285750D01*
X330200Y-295275D01*
X260350Y-295275D01*
X196850Y-358775D01*
X196850Y-374650D01*
G54D27*
X171450Y-374650D02*
X171450Y-361950D01*
X250825Y-282575D01*
X320675Y-282575D01*
X330200Y-273050D01*
X330200Y-184150D01*
X381000Y-133350D01*
X790575Y-133350D01*
X800100Y-123825D01*
X800100Y-95250D01*
G54D27*
X146050Y-374650D02*
X146050Y-365125D01*
X241300Y-269875D01*
X311150Y-269875D01*
X320675Y-260350D01*
X320675Y-177800D01*
X377825Y-120650D01*
X742950Y-120650D01*
X749300Y-114300D01*
X749300Y-95250D01*
G54D27*
X895350Y-387350D02*
X946150Y-387350D01*
G54D27*
X946150Y-412750D02*
X895350Y-412750D01*
G54D27*
X895350Y-533400D02*
X946150Y-533400D01*
G54D27*
X946150Y-558800D02*
X895350Y-558800D01*
G54D20*
X527050Y-752475D02*
X527050Y-790575D01*
X88900Y-790575D01*
X73025Y-774700D01*
X73025Y-542925D01*
X57150Y-527050D01*
X31750Y-527050D01*
X12700Y-508000D01*
X12700Y-165100D01*
G54D28*
X527050Y-752475D02*
X527050Y-725043D01*
X528828Y-723265D01*
G54D27*
X673100Y-95250D02*
X673100Y-73025D01*
X682625Y-63500D01*
X723900Y-63500D01*
X730250Y-57150D01*
X758825Y-57150D01*
G54D27*
X698500Y-95250D02*
X698500Y-79375D01*
X704850Y-73025D01*
X850900Y-73025D01*
X860425Y-63500D01*
X860425Y-44450D01*
G54D29*
X215900Y-69850D02*
X390525Y-69850D01*
X450850Y-9525D01*
X901700Y-9525D01*
X911225Y-19050D01*
X911225Y-44450D01*
G54D27*
X758825Y-57150D02*
X758825Y-34925D01*
G54D27*
X777825Y-57150D02*
X822325Y-57150D01*
X835025Y-44450D01*
G54D20*
X895350Y-609600D02*
X946150Y-609600D01*
X990600Y-609600D01*
G54D29*
X895350Y-463550D02*
X946150Y-463550D01*
G54D29*
X946150Y-463550D02*
X962025Y-463550D01*
X971550Y-454025D01*
X971550Y-365125D01*
X962025Y-355600D01*
X901700Y-355600D01*
X850900Y-304800D01*
X850900Y-273050D01*
G54D20*
X527050Y-790575D02*
X898525Y-790575D01*
X990600Y-698500D01*
X990600Y-327025D01*
X984250Y-320675D01*
X967100Y-320675D01*
G54D20*
X927100Y-320675D02*
X927100Y-273050D01*
X793750Y-34925D02*
G54D30*
D03*
G54D27*
X777825Y-34925D02*
X793750Y-34925D01*
X869950Y-69850D02*
G54D31*
D03*
X254000Y-92075D02*
G54D32*
D03*
X254000Y-111075D02*
G54D32*
D03*
X130175Y-577850D02*
G54D33*
D03*
X109175Y-577850D02*
G54D33*
D03*
X130175Y-606425D02*
G54D33*
D03*
X109175Y-606425D02*
G54D33*
D03*
X109175Y-561975D02*
G54D31*
D03*
X95250Y-577850D02*
G54D31*
D03*
X95250Y-606425D02*
G54D31*
D03*
X109175Y-622300D02*
G54D31*
D03*
G54D34*
X95250Y-606425D02*
X109175Y-606425D01*
G54D34*
X95250Y-577850D02*
X109175Y-577850D01*
G54D34*
X109175Y-561975D02*
X109175Y-577850D01*
G54D34*
X109175Y-606425D02*
X109175Y-622300D01*
G54D34*
X109175Y-606425D02*
X109175Y-577850D01*
X784225Y-742950D02*
G54D30*
D03*
X869950Y-742950D02*
G54D30*
D03*
G54D27*
X850850Y-742950D02*
X869950Y-742950D01*
G54D27*
X765125Y-742950D02*
X784225Y-742950D01*
G54D27*
X831850Y-717550D02*
X831850Y-742950D01*
G54D27*
X746125Y-717550D02*
X746125Y-742950D01*
G54D27*
X660400Y-717550D02*
X660400Y-742950D01*
X542925Y-774700D02*
G54D30*
D03*
X511175Y-774700D02*
G54D30*
D03*
G54D27*
X425450Y-752475D02*
X425450Y-768350D01*
X431800Y-774700D01*
X511175Y-774700D01*
G54D27*
X542925Y-774700D02*
X879475Y-774700D01*
X903650Y-750525D01*
X903650Y-711200D01*
G54D27*
X423828Y-723265D02*
X461293Y-685800D01*
X508000Y-685800D01*
G54D28*
X528828Y-723265D02*
X528828Y-550672D01*
X508000Y-685800D02*
G54D30*
D03*
X561975Y-685800D02*
G54D30*
D03*
G54D27*
X561975Y-685800D02*
X669925Y-685800D01*
X679400Y-695275D01*
X679400Y-717550D01*
G54D27*
X679400Y-742950D02*
X679400Y-758775D01*
X685800Y-765175D01*
X873125Y-765175D01*
X892175Y-746125D01*
X903650Y-711200D02*
G54D30*
D03*
G54D27*
X892175Y-746125D02*
X892175Y-704850D01*
X898525Y-698500D01*
X936625Y-698500D01*
X943650Y-691475D01*
X943650Y-676275D01*
G54D35*
X850900Y-273050D02*
X850900Y-215900D01*
X428625Y-215900D01*
X406400Y-238125D01*
X406400Y-320675D01*
X349250Y-377825D01*
X349250Y-546100D01*
X339725Y-555625D01*
X190500Y-555625D01*
X171450Y-536575D01*
X171450Y-527050D01*
G54D35*
X850900Y-215900D02*
X889000Y-215900D01*
X981075Y-123825D01*
X981075Y-85725D01*
X965200Y-69850D01*
X869950Y-69850D01*
X274650Y-644475D02*
G54D30*
D03*
X266700Y-590550D02*
G54D30*
D03*
G54D27*
X266700Y-590550D02*
X279400Y-590550D01*
G54D27*
X298400Y-590550D02*
X298400Y-615900D01*
X298450Y-615950D01*
G54D27*
X274650Y-615950D02*
X298450Y-615950D01*
G54D27*
X274650Y-634950D02*
X274650Y-644475D01*
G54D27*
X238075Y-625475D02*
X274625Y-625475D01*
X274650Y-625450D01*
G54D27*
X219075Y-625475D02*
X219075Y-600075D01*
G54D27*
X238075Y-600075D02*
X238075Y-581075D01*
X250825Y-568325D01*
X342900Y-568325D01*
X361950Y-549275D01*
X361950Y-384175D01*
X419100Y-327025D01*
X419100Y-244475D01*
X431800Y-231775D01*
X784225Y-231775D01*
X800100Y-247650D01*
X800100Y-273050D01*
X508000Y-663575D02*
G54D30*
D03*
X549275Y-663575D02*
G54D30*
D03*
G54D27*
X549275Y-663575D02*
X549275Y-692150D01*
X565150Y-708025D01*
X565150Y-774700D01*
G54D27*
X280194Y-676275D02*
X286544Y-669925D01*
X286544Y-615950D01*
G54D27*
X508000Y-663575D02*
X311150Y-663575D01*
X298450Y-650875D01*
X298450Y-634950D01*
G54D27*
X530225Y-644525D02*
X558800Y-644525D01*
X584200Y-669925D01*
X755650Y-669925D01*
X765175Y-679450D01*
X765125Y-717550D01*
G54D27*
X723900Y-333375D02*
X723900Y-273050D01*
G54D27*
X749300Y-333375D02*
X749300Y-273050D01*
G54D29*
X800100Y-333375D02*
X850900Y-333375D01*
X863600Y-320675D01*
X285750Y-222250D02*
G54D30*
D03*
X298450Y-241300D02*
G54D30*
D03*
G54D28*
X528828Y-550672D02*
X528828Y-547878D01*
X514350Y-533400D01*
X514350Y-495300D01*
X514350Y-444500D01*
G54D20*
X12700Y-165100D02*
X60325Y-117475D01*
X196850Y-117475D01*
X215900Y-98425D01*
X215900Y-69850D01*
G54D29*
X254000Y-92075D02*
X254000Y-69850D01*
X254000Y-123775D02*
G54D30*
D03*
X269875Y-111075D02*
G54D30*
D03*
X238125Y-111075D02*
G54D30*
D03*
G54D36*
X254000Y-123775D02*
X254000Y-111075D01*
G54D36*
X238125Y-111075D02*
X254000Y-111075D01*
G54D36*
X269875Y-111075D02*
X254000Y-111075D01*
G54D27*
X190500Y-34925D02*
X190500Y-69850D01*
G54D27*
X190500Y-34925D02*
X190525Y-34950D01*
X212750Y-34950D01*
G54D27*
X231750Y-34950D02*
X231775Y-34975D01*
X231775Y-69850D01*
G54D27*
X285750Y-222250D02*
X184150Y-222250D01*
X165100Y-203200D01*
X165100Y-139700D01*
G54D27*
X298450Y-241300D02*
X298450Y-215900D01*
X285750Y-203200D01*
X200025Y-203200D01*
X190500Y-193675D01*
X190500Y-139700D01*
X165100Y-139700D02*
G54D30*
D03*
X190500Y-139700D02*
G54D30*
D03*
X155625Y-34925D02*
G54D30*
D03*
G54D27*
X155625Y-34925D02*
X171500Y-34925D01*
G54D29*
X88900Y-69850D02*
X88900Y-57150D01*
X98425Y-47625D01*
X98425Y-34925D01*
G54D29*
X38100Y-69850D02*
X38100Y-66675D01*
X69850Y-34925D01*
X73025Y-34925D01*
X215900Y-190500D02*
G54D30*
D03*
G54D27*
X215900Y-190500D02*
X288925Y-190500D01*
G54D27*
X288925Y-190500D02*
X384175Y-95250D01*
X469900Y-95250D01*
G54D27*
X749300Y-333375D02*
X749300Y-365125D01*
G54D27*
X768300Y-365125D02*
X793750Y-365125D01*
X800100Y-358775D01*
X800100Y-333375D01*
G54D27*
X622300Y-273050D02*
X622300Y-314325D01*
X638175Y-330200D01*
X676275Y-330200D01*
X695325Y-349250D01*
X695325Y-368300D01*
X714375Y-387350D01*
X895350Y-387350D01*
G54D27*
X596900Y-273050D02*
X596900Y-311150D01*
X628650Y-342900D01*
X673100Y-342900D01*
X682625Y-352425D01*
X682625Y-371475D01*
X723900Y-412750D01*
X895350Y-412750D01*
G54D27*
X844525Y-368325D02*
X844525Y-333400D01*
X844550Y-333375D01*
G54D27*
X844550Y-431750D02*
X844550Y-463550D01*
X895350Y-463550D01*
G54D27*
X387350Y-460375D02*
X387350Y-441325D01*
G54D27*
X406350Y-460375D02*
X436500Y-460375D01*
X436550Y-460325D01*
G54D27*
X406350Y-441325D02*
X436550Y-441325D01*
X387350Y-476250D02*
G54D30*
D03*
G54D27*
X387350Y-460375D02*
X387350Y-476250D01*
X423875Y-450800D02*
G54D30*
D03*
G54D27*
X423875Y-450800D02*
X436525Y-450800D01*
X436550Y-450825D01*
G54D27*
X463550Y-441325D02*
X473075Y-441325D01*
X482600Y-431800D01*
X482600Y-419100D01*
X488950Y-412750D01*
X593725Y-412750D01*
X600075Y-419100D01*
X600075Y-466725D01*
X593725Y-473075D01*
X546100Y-473075D01*
X539750Y-479425D01*
X539750Y-495300D01*
G54D27*
X463550Y-460325D02*
X482650Y-460325D01*
X492125Y-450850D01*
X492125Y-428625D01*
X498475Y-422275D01*
X533400Y-422275D01*
X539750Y-428625D01*
X539750Y-444500D01*
X676275Y-530225D02*
G54D30*
D03*
G54D27*
X676275Y-539750D02*
X676275Y-530225D01*
X657225Y-596900D02*
G54D30*
D03*
G54D27*
X657225Y-596900D02*
X657225Y-581025D01*
X639775Y-549225D02*
G54D30*
D03*
G54D27*
X639775Y-549225D02*
X652450Y-549225D01*
X652475Y-549250D01*
G54D27*
X676225Y-581025D02*
X676225Y-558800D01*
X676275Y-558750D01*
G54D27*
X676275Y-558750D02*
X666700Y-558750D01*
X663575Y-555625D01*
X663575Y-508000D01*
G54D27*
X850850Y-717550D02*
X850850Y-663525D01*
X838200Y-650875D01*
X682625Y-650875D01*
X676275Y-644525D01*
X676275Y-581075D01*
X676225Y-581025D01*
G54D27*
X652475Y-539750D02*
X622300Y-539750D01*
X622300Y-615950D01*
X628650Y-622300D01*
X650875Y-622300D01*
G54D27*
X652475Y-558750D02*
X638225Y-558750D01*
X631825Y-565150D01*
X631825Y-609600D01*
X635000Y-612775D01*
X657225Y-612775D01*
X663575Y-631825D02*
G54D30*
D03*
X650875Y-622300D02*
G54D30*
D03*
X695325Y-631825D02*
G54D30*
D03*
X688975Y-622300D02*
G54D30*
D03*
G54D27*
X657225Y-612775D02*
X663575Y-619125D01*
X663575Y-631825D01*
G54D27*
X695325Y-631825D02*
X723900Y-631825D01*
X736600Y-619125D01*
X736600Y-568325D01*
X746125Y-558800D01*
G54D27*
X688975Y-622300D02*
X720725Y-622300D01*
X727075Y-615950D01*
X727075Y-561975D01*
X739925Y-549125D01*
X757925Y-549125D01*
G54D27*
X746125Y-558800D02*
X749300Y-555625D01*
X757925Y-555625D01*
G54D27*
X757925Y-542625D02*
X705150Y-542625D01*
X689025Y-558750D01*
X676275Y-558750D01*
X742950Y-533400D02*
G54D30*
D03*
G54D27*
X757925Y-536125D02*
X745675Y-536125D01*
X742950Y-533400D01*
X736600Y-508000D02*
G54D30*
D03*
G54D27*
X736600Y-508000D02*
X749300Y-508000D01*
G54D27*
X768300Y-508000D02*
X768350Y-527050D01*
X771525Y-530225D01*
X771475Y-539800D01*
X768477Y-542626D01*
X757925Y-542625D01*
G54D27*
X796925Y-542625D02*
X796925Y-536125D01*
X796925Y-527050D01*
X790575Y-520700D01*
X790575Y-508000D01*
X822325Y-508000D02*
G54D30*
D03*
G54D27*
X809575Y-508000D02*
X822325Y-508000D01*
G54D27*
X847725Y-533400D02*
X895350Y-533400D01*
G54D27*
X847700Y-558825D02*
X895325Y-558825D01*
X895350Y-558800D01*
G54D27*
X796925Y-555625D02*
X828675Y-555625D01*
X831850Y-558800D01*
X847675Y-558800D01*
X847700Y-558825D01*
G54D27*
X796925Y-549125D02*
X816125Y-549125D01*
X831850Y-533400D01*
X847725Y-533400D01*
G54D27*
X796925Y-536125D02*
X813250Y-536125D01*
X835025Y-514350D01*
X847675Y-514350D01*
X847725Y-514400D01*
G54D27*
X847700Y-577825D02*
X796900Y-577825D01*
X784225Y-565150D01*
X784225Y-546100D01*
X787268Y-542564D01*
X796925Y-542625D01*
G54D27*
X482550Y-482600D02*
X511175Y-482600D01*
X514350Y-479425D01*
G54D27*
X463550Y-482600D02*
X463550Y-460325D01*
G54D27*
X528828Y-550672D02*
X573278Y-550672D01*
X619125Y-504825D01*
X619125Y-444550D01*
X619075Y-444500D01*
G54D27*
X463550Y-450825D02*
X450825Y-450825D01*
X447675Y-447675D01*
G54D27*
X447675Y-447675D02*
X447675Y-431800D01*
X450850Y-428625D01*
X450850Y-415975D01*
X450800Y-415925D01*
X422275Y-415925D02*
G54D30*
D03*
G54D27*
X422275Y-415925D02*
X431800Y-415925D01*
G54D27*
X406350Y-441325D02*
X406350Y-393750D01*
X438150Y-361950D01*
X552450Y-361950D01*
X571500Y-342900D01*
X571500Y-273050D01*
G54D27*
X406350Y-460375D02*
X406350Y-482650D01*
X396875Y-492125D01*
X377825Y-492125D01*
X371475Y-485775D01*
X371475Y-406400D01*
X428625Y-349250D01*
X536575Y-349250D01*
X546100Y-339725D01*
X546100Y-273050D01*
G54D27*
X663575Y-508000D02*
X663575Y-488950D01*
X688975Y-463550D01*
X844550Y-463550D01*
G54D27*
X622300Y-539750D02*
X622300Y-533400D01*
X650875Y-504825D01*
X650875Y-355600D01*
X650875Y-355600D02*
G54D30*
D03*
X650875Y-330200D02*
G54D30*
D03*
G54D27*
X663575Y-631825D02*
X622300Y-631825D01*
X609600Y-619125D01*
X609600Y-530225D01*
X641350Y-498475D01*
X641350Y-365125D01*
X628650Y-352425D01*
X628650Y-342900D01*
M02*
