%FSLAX34Y34*%
%MOMM*%
%LNCOPPER_BOTTOM*%
G71*
G01*
%ADD10C,2.800*%
%ADD11C,3.500*%
%ADD12C,4.600*%
%ADD13C,2.800*%
%ADD14C,2.000*%
%ADD15C,3.800*%
%ADD16C,3.500*%
%ADD17C,0.600*%
%ADD18C,1.100*%
%ADD19C,1.400*%
%ADD20C,1.800*%
%ADD21C,1.500*%
%ADD22C,0.667*%
%ADD23C,0.833*%
%ADD24C,1.200*%
%ADD25C,0.400*%
%ADD26C,0.837*%
%ADD27C,2.000*%
%ADD28C,2.500*%
%ADD29C,3.600*%
%ADD30C,3.000*%
%ADD31C,2.700*%
%ADD32C,4.000*%
%ADD33C,0.300*%
%ADD34C,0.700*%
%ADD35C,1.000*%
%LPD*%
G36*
X-100000Y100000D02*
X1500000Y100000D01*
X1500000Y-1900000D01*
X-100000Y-1900000D01*
X-100000Y100000D01*
G37*
%LPC*%
X952500Y-95250D02*
G54D10*
D03*
X952500Y-273050D02*
G54D10*
D03*
X927100Y-95250D02*
G54D10*
D03*
X927100Y-273050D02*
G54D10*
D03*
X901700Y-95250D02*
G54D10*
D03*
X901700Y-273050D02*
G54D10*
D03*
X876300Y-95250D02*
G54D10*
D03*
X876300Y-273050D02*
G54D10*
D03*
X850900Y-95250D02*
G54D10*
D03*
X850900Y-273050D02*
G54D10*
D03*
X825500Y-95250D02*
G54D10*
D03*
X825500Y-273050D02*
G54D10*
D03*
X800100Y-95250D02*
G54D10*
D03*
X800100Y-273050D02*
G54D10*
D03*
X774700Y-95250D02*
G54D10*
D03*
X774700Y-273050D02*
G54D10*
D03*
X749300Y-95250D02*
G54D10*
D03*
X749300Y-273050D02*
G54D10*
D03*
X723900Y-95250D02*
G54D10*
D03*
X723900Y-273050D02*
G54D10*
D03*
X698500Y-95250D02*
G54D10*
D03*
X698500Y-273050D02*
G54D10*
D03*
X673100Y-95250D02*
G54D10*
D03*
X673100Y-273050D02*
G54D10*
D03*
X647700Y-95250D02*
G54D10*
D03*
X647700Y-273050D02*
G54D10*
D03*
X622300Y-95250D02*
G54D10*
D03*
X622300Y-273050D02*
G54D10*
D03*
X596900Y-95250D02*
G54D10*
D03*
X596900Y-273050D02*
G54D10*
D03*
X571500Y-95250D02*
G54D10*
D03*
X571500Y-273050D02*
G54D10*
D03*
X546100Y-95250D02*
G54D10*
D03*
X546100Y-273050D02*
G54D10*
D03*
X520700Y-95250D02*
G54D10*
D03*
X520700Y-273050D02*
G54D10*
D03*
X495300Y-95250D02*
G54D10*
D03*
X495300Y-273050D02*
G54D10*
D03*
X469900Y-95250D02*
G54D10*
D03*
X469900Y-273050D02*
G54D10*
D03*
X323850Y-279400D02*
G54D10*
D03*
X323850Y-95250D02*
G54D10*
D03*
X298450Y-279400D02*
G54D10*
D03*
X298450Y-95250D02*
G54D10*
D03*
X273050Y-279400D02*
G54D10*
D03*
X273050Y-95250D02*
G54D10*
D03*
X247650Y-279400D02*
G54D10*
D03*
X247650Y-95250D02*
G54D10*
D03*
X222250Y-279400D02*
G54D10*
D03*
X222250Y-95250D02*
G54D10*
D03*
X196850Y-279400D02*
G54D10*
D03*
X196850Y-95250D02*
G54D10*
D03*
X171450Y-279400D02*
G54D10*
D03*
X171450Y-95250D02*
G54D10*
D03*
X146050Y-279400D02*
G54D10*
D03*
X146050Y-95250D02*
G54D10*
D03*
X146050Y-527050D02*
G54D10*
D03*
X171450Y-527050D02*
G54D10*
D03*
X196850Y-527050D02*
G54D10*
D03*
X222250Y-527050D02*
G54D10*
D03*
X247650Y-527050D02*
G54D10*
D03*
X273050Y-527050D02*
G54D10*
D03*
X298450Y-527050D02*
G54D10*
D03*
X323850Y-527050D02*
G54D10*
D03*
X146050Y-374650D02*
G54D10*
D03*
X171450Y-374650D02*
G54D10*
D03*
X196850Y-374650D02*
G54D10*
D03*
X222250Y-374650D02*
G54D10*
D03*
X247650Y-374650D02*
G54D10*
D03*
X273050Y-374650D02*
G54D10*
D03*
X298450Y-374650D02*
G54D10*
D03*
X323850Y-374650D02*
G54D10*
D03*
X50800Y-409575D02*
G54D10*
D03*
X50800Y-434975D02*
G54D10*
D03*
X50800Y-492125D02*
G54D10*
D03*
X50800Y-466725D02*
G54D10*
D03*
X101600Y-492125D02*
G54D10*
D03*
X101600Y-466725D02*
G54D10*
D03*
X101600Y-409575D02*
G54D10*
D03*
X101600Y-434975D02*
G54D10*
D03*
X31750Y-768350D02*
G54D11*
D03*
X31750Y-658350D02*
G54D11*
D03*
X131750Y-688350D02*
G54D12*
D03*
X131750Y-738350D02*
G54D12*
D03*
G54D13*
X882650Y-666275D02*
X882650Y-686275D01*
G54D14*
X903650Y-670275D02*
X903650Y-682275D01*
G54D14*
X923650Y-670275D02*
X923650Y-682275D01*
G54D14*
X943650Y-670275D02*
X943650Y-682275D01*
G54D13*
X964650Y-666275D02*
X964650Y-686275D01*
X184150Y-57150D02*
G54D10*
D03*
X158750Y-57150D02*
G54D10*
D03*
X528828Y-434975D02*
G54D10*
D03*
X554228Y-434975D02*
G54D10*
D03*
X579628Y-434975D02*
G54D10*
D03*
X528828Y-485775D02*
G54D10*
D03*
X554228Y-485775D02*
G54D10*
D03*
X579628Y-485775D02*
G54D10*
D03*
X228600Y-736600D02*
G54D15*
D03*
X308600Y-736600D02*
G54D15*
D03*
X425450Y-752475D02*
G54D10*
D03*
X450850Y-752475D02*
G54D10*
D03*
X476250Y-752475D02*
G54D10*
D03*
X501650Y-752475D02*
G54D10*
D03*
X527050Y-752475D02*
G54D10*
D03*
X423828Y-723265D02*
G54D16*
D03*
X458828Y-723265D02*
G54D16*
D03*
X493828Y-723265D02*
G54D16*
D03*
X528828Y-723265D02*
G54D16*
D03*
X911225Y-44450D02*
G54D10*
D03*
X885825Y-44450D02*
G54D10*
D03*
X860425Y-44450D02*
G54D10*
D03*
X835025Y-44450D02*
G54D10*
D03*
X895350Y-609600D02*
G54D10*
D03*
X895350Y-584200D02*
G54D10*
D03*
X895350Y-558800D02*
G54D10*
D03*
X895350Y-533400D02*
G54D10*
D03*
X946150Y-463550D02*
G54D10*
D03*
X946150Y-438150D02*
G54D10*
D03*
X946150Y-412750D02*
G54D10*
D03*
X946150Y-387350D02*
G54D10*
D03*
X895350Y-463550D02*
G54D10*
D03*
X895350Y-438150D02*
G54D10*
D03*
X895350Y-412750D02*
G54D10*
D03*
X895350Y-387350D02*
G54D10*
D03*
X800100Y-333375D02*
G54D10*
D03*
X774700Y-333375D02*
G54D10*
D03*
X749300Y-333375D02*
G54D10*
D03*
X723900Y-333375D02*
G54D10*
D03*
X698500Y-44450D02*
G54D10*
D03*
X673100Y-44450D02*
G54D10*
D03*
X647700Y-44450D02*
G54D10*
D03*
X622300Y-44450D02*
G54D10*
D03*
X596900Y-44450D02*
G54D10*
D03*
X571500Y-44450D02*
G54D10*
D03*
X546100Y-44450D02*
G54D10*
D03*
X946150Y-609600D02*
G54D10*
D03*
X946150Y-584200D02*
G54D10*
D03*
X946150Y-558800D02*
G54D10*
D03*
X946150Y-533400D02*
G54D10*
D03*
G54D17*
X0Y0D02*
X1000000Y0D01*
X1000000Y-800000D01*
X0Y-800000D01*
X0Y0D01*
G54D18*
X647700Y-44450D02*
X647700Y-63500D01*
X654050Y-69850D01*
X717550Y-69850D01*
X723900Y-76200D01*
X723900Y-95250D01*
G54D19*
X698500Y-44450D02*
X755650Y-44450D01*
X781050Y-69850D01*
X869950Y-69850D01*
X869950Y-69850D02*
G54D20*
D03*
G54D18*
X511175Y-774700D02*
X542925Y-774700D01*
X542925Y-774700D02*
G54D21*
D03*
X511175Y-774700D02*
G54D21*
D03*
G54D18*
X508000Y-692150D02*
X568325Y-692150D01*
X508000Y-692150D02*
G54D21*
D03*
X568325Y-692150D02*
G54D21*
D03*
G54D18*
X903650Y-711200D02*
X903650Y-676275D01*
X903650Y-711200D02*
G54D21*
D03*
G54D18*
X508000Y-663575D02*
X549275Y-663575D01*
X508000Y-663575D02*
G54D21*
D03*
X549275Y-663575D02*
G54D21*
D03*
G54D18*
X352425Y-279400D02*
X428625Y-279400D01*
X428625Y-279400D02*
G54D21*
D03*
X352425Y-279400D02*
G54D21*
D03*
G54D18*
X469900Y-273050D02*
X469900Y-234950D01*
X371475Y-136525D01*
G54D18*
X495300Y-273050D02*
X495300Y-231775D01*
X381000Y-117475D01*
X381000Y-117475D02*
G54D21*
D03*
X371475Y-136525D02*
G54D21*
D03*
X733425Y-533400D02*
G54D10*
D03*
X708025Y-533400D02*
G54D10*
D03*
X786950Y-422725D02*
G54D21*
D03*
G54D18*
X786950Y-422725D02*
X768800Y-422725D01*
X768800Y-422725D02*
G54D21*
D03*
%LPD*%
G54D22*
G36*
X905033Y-95250D02*
X905033Y-109750D01*
X898367Y-109750D01*
X898367Y-95250D01*
X905033Y-95250D01*
G37*
G36*
X904057Y-97607D02*
X893804Y-107860D01*
X889090Y-103146D01*
X899343Y-92893D01*
X904057Y-97607D01*
G37*
G36*
X899343Y-97607D02*
X889090Y-87354D01*
X893804Y-82640D01*
X904057Y-92893D01*
X899343Y-97607D01*
G37*
G36*
X898367Y-95250D02*
X898367Y-80750D01*
X905033Y-80750D01*
X905033Y-95250D01*
X898367Y-95250D01*
G37*
G36*
X899343Y-92893D02*
X909596Y-82640D01*
X914310Y-87354D01*
X904057Y-97607D01*
X899343Y-92893D01*
G37*
G36*
X904057Y-92893D02*
X914310Y-103146D01*
X909596Y-107860D01*
X899343Y-97607D01*
X904057Y-92893D01*
G37*
G54D22*
G36*
X905033Y-273050D02*
X905033Y-287550D01*
X898367Y-287550D01*
X898367Y-273050D01*
X905033Y-273050D01*
G37*
G36*
X904057Y-275407D02*
X893804Y-285660D01*
X889090Y-280946D01*
X899343Y-270693D01*
X904057Y-275407D01*
G37*
G36*
X899343Y-275407D02*
X889090Y-265154D01*
X893804Y-260440D01*
X904057Y-270693D01*
X899343Y-275407D01*
G37*
G36*
X898367Y-273050D02*
X898367Y-258550D01*
X905033Y-258550D01*
X905033Y-273050D01*
X898367Y-273050D01*
G37*
G36*
X899343Y-270693D02*
X909596Y-260440D01*
X914310Y-265154D01*
X904057Y-275407D01*
X899343Y-270693D01*
G37*
G36*
X904057Y-270693D02*
X914310Y-280946D01*
X909596Y-285660D01*
X899343Y-275407D01*
X904057Y-270693D01*
G37*
G54D22*
G36*
X778033Y-95250D02*
X778033Y-109750D01*
X771367Y-109750D01*
X771367Y-95250D01*
X778033Y-95250D01*
G37*
G36*
X777057Y-97607D02*
X766804Y-107860D01*
X762090Y-103146D01*
X772343Y-92893D01*
X777057Y-97607D01*
G37*
G36*
X772343Y-97607D02*
X762090Y-87354D01*
X766804Y-82640D01*
X777057Y-92893D01*
X772343Y-97607D01*
G37*
G36*
X771367Y-95250D02*
X771367Y-80750D01*
X778033Y-80750D01*
X778033Y-95250D01*
X771367Y-95250D01*
G37*
G36*
X772343Y-92893D02*
X782596Y-82640D01*
X787310Y-87354D01*
X777057Y-97607D01*
X772343Y-92893D01*
G37*
G36*
X777057Y-92893D02*
X787310Y-103146D01*
X782596Y-107860D01*
X772343Y-97607D01*
X777057Y-92893D01*
G37*
G54D22*
G36*
X778033Y-273050D02*
X778033Y-287550D01*
X771367Y-287550D01*
X771367Y-273050D01*
X778033Y-273050D01*
G37*
G36*
X777057Y-275407D02*
X766804Y-285660D01*
X762090Y-280946D01*
X772343Y-270693D01*
X777057Y-275407D01*
G37*
G36*
X772343Y-275407D02*
X762090Y-265154D01*
X766804Y-260440D01*
X777057Y-270693D01*
X772343Y-275407D01*
G37*
G36*
X771367Y-273050D02*
X771367Y-258550D01*
X778033Y-258550D01*
X778033Y-273050D01*
X771367Y-273050D01*
G37*
G36*
X772343Y-270693D02*
X782596Y-260440D01*
X787310Y-265154D01*
X777057Y-275407D01*
X772343Y-270693D01*
G37*
G36*
X777057Y-270693D02*
X787310Y-280946D01*
X782596Y-285660D01*
X772343Y-275407D01*
X777057Y-270693D01*
G37*
G54D22*
G36*
X651033Y-95250D02*
X651033Y-109750D01*
X644367Y-109750D01*
X644367Y-95250D01*
X651033Y-95250D01*
G37*
G36*
X650057Y-97607D02*
X639804Y-107860D01*
X635090Y-103146D01*
X645343Y-92893D01*
X650057Y-97607D01*
G37*
G36*
X645343Y-97607D02*
X635090Y-87354D01*
X639804Y-82640D01*
X650057Y-92893D01*
X645343Y-97607D01*
G37*
G36*
X644367Y-95250D02*
X644367Y-80750D01*
X651033Y-80750D01*
X651033Y-95250D01*
X644367Y-95250D01*
G37*
G36*
X645343Y-92893D02*
X655596Y-82640D01*
X660310Y-87354D01*
X650057Y-97607D01*
X645343Y-92893D01*
G37*
G36*
X650057Y-92893D02*
X660310Y-103146D01*
X655596Y-107860D01*
X645343Y-97607D01*
X650057Y-92893D01*
G37*
G54D22*
G36*
X651033Y-273050D02*
X651033Y-287550D01*
X644367Y-287550D01*
X644367Y-273050D01*
X651033Y-273050D01*
G37*
G36*
X650057Y-275407D02*
X639804Y-285660D01*
X635090Y-280946D01*
X645343Y-270693D01*
X650057Y-275407D01*
G37*
G36*
X645343Y-275407D02*
X635090Y-265154D01*
X639804Y-260440D01*
X650057Y-270693D01*
X645343Y-275407D01*
G37*
G36*
X644367Y-273050D02*
X644367Y-258550D01*
X651033Y-258550D01*
X651033Y-273050D01*
X644367Y-273050D01*
G37*
G36*
X645343Y-270693D02*
X655596Y-260440D01*
X660310Y-265154D01*
X650057Y-275407D01*
X645343Y-270693D01*
G37*
G36*
X650057Y-270693D02*
X660310Y-280946D01*
X655596Y-285660D01*
X645343Y-275407D01*
X650057Y-270693D01*
G37*
G54D22*
G36*
X524033Y-95250D02*
X524033Y-109750D01*
X517367Y-109750D01*
X517367Y-95250D01*
X524033Y-95250D01*
G37*
G36*
X523057Y-97607D02*
X512804Y-107860D01*
X508090Y-103146D01*
X518343Y-92893D01*
X523057Y-97607D01*
G37*
G36*
X518343Y-97607D02*
X508090Y-87354D01*
X512804Y-82640D01*
X523057Y-92893D01*
X518343Y-97607D01*
G37*
G36*
X517367Y-95250D02*
X517367Y-80750D01*
X524033Y-80750D01*
X524033Y-95250D01*
X517367Y-95250D01*
G37*
G36*
X518343Y-92893D02*
X528596Y-82640D01*
X533310Y-87354D01*
X523057Y-97607D01*
X518343Y-92893D01*
G37*
G36*
X523057Y-92893D02*
X533310Y-103146D01*
X528596Y-107860D01*
X518343Y-97607D01*
X523057Y-92893D01*
G37*
G54D22*
G36*
X524033Y-273050D02*
X524033Y-287550D01*
X517367Y-287550D01*
X517367Y-273050D01*
X524033Y-273050D01*
G37*
G36*
X523057Y-275407D02*
X512804Y-285660D01*
X508090Y-280946D01*
X518343Y-270693D01*
X523057Y-275407D01*
G37*
G36*
X518343Y-275407D02*
X508090Y-265154D01*
X512804Y-260440D01*
X523057Y-270693D01*
X518343Y-275407D01*
G37*
G36*
X517367Y-273050D02*
X517367Y-258550D01*
X524033Y-258550D01*
X524033Y-273050D01*
X517367Y-273050D01*
G37*
G36*
X518343Y-270693D02*
X528596Y-260440D01*
X533310Y-265154D01*
X523057Y-275407D01*
X518343Y-270693D01*
G37*
G36*
X523057Y-270693D02*
X533310Y-280946D01*
X528596Y-285660D01*
X518343Y-275407D01*
X523057Y-270693D01*
G37*
G54D22*
G36*
X173807Y-281757D02*
X163554Y-292010D01*
X158840Y-287296D01*
X169093Y-277043D01*
X173807Y-281757D01*
G37*
G36*
X169093Y-281757D02*
X158840Y-271504D01*
X163554Y-266790D01*
X173807Y-277043D01*
X169093Y-281757D01*
G37*
G36*
X169093Y-277043D02*
X179346Y-266790D01*
X184060Y-271504D01*
X173807Y-281757D01*
X169093Y-277043D01*
G37*
G36*
X173807Y-277043D02*
X184060Y-287296D01*
X179346Y-292010D01*
X169093Y-281757D01*
X173807Y-277043D01*
G37*
G54D22*
G36*
X173807Y-97607D02*
X163554Y-107860D01*
X158840Y-103146D01*
X169093Y-92893D01*
X173807Y-97607D01*
G37*
G36*
X169093Y-97607D02*
X158840Y-87354D01*
X163554Y-82640D01*
X173807Y-92893D01*
X169093Y-97607D01*
G37*
G36*
X169093Y-92893D02*
X179346Y-82640D01*
X184060Y-87354D01*
X173807Y-97607D01*
X169093Y-92893D01*
G37*
G36*
X173807Y-92893D02*
X184060Y-103146D01*
X179346Y-107860D01*
X169093Y-97607D01*
X173807Y-92893D01*
G37*
G54D22*
G36*
X193517Y-527050D02*
X193517Y-512550D01*
X200183Y-512550D01*
X200183Y-527050D01*
X193517Y-527050D01*
G37*
G36*
X194493Y-524693D02*
X204746Y-514440D01*
X209460Y-519154D01*
X199207Y-529407D01*
X194493Y-524693D01*
G37*
G36*
X199207Y-524693D02*
X209460Y-534946D01*
X204746Y-539660D01*
X194493Y-529407D01*
X199207Y-524693D01*
G37*
G36*
X200183Y-527050D02*
X200183Y-541550D01*
X193517Y-541550D01*
X193517Y-527050D01*
X200183Y-527050D01*
G37*
G36*
X199207Y-529407D02*
X188954Y-539660D01*
X184240Y-534946D01*
X194493Y-524693D01*
X199207Y-529407D01*
G37*
G36*
X194493Y-529407D02*
X184240Y-519154D01*
X188954Y-514440D01*
X199207Y-524693D01*
X194493Y-529407D01*
G37*
G54D22*
G36*
X320517Y-527050D02*
X320517Y-512550D01*
X327183Y-512550D01*
X327183Y-527050D01*
X320517Y-527050D01*
G37*
G36*
X321493Y-524693D02*
X331746Y-514440D01*
X336460Y-519154D01*
X326207Y-529407D01*
X321493Y-524693D01*
G37*
G36*
X323850Y-523717D02*
X338350Y-523717D01*
X338350Y-530383D01*
X323850Y-530383D01*
X323850Y-523717D01*
G37*
G36*
X326207Y-524693D02*
X336460Y-534946D01*
X331746Y-539660D01*
X321493Y-529407D01*
X326207Y-524693D01*
G37*
G36*
X327183Y-527050D02*
X327183Y-541550D01*
X320517Y-541550D01*
X320517Y-527050D01*
X327183Y-527050D01*
G37*
G36*
X326207Y-529407D02*
X315954Y-539660D01*
X311240Y-534946D01*
X321493Y-524693D01*
X326207Y-529407D01*
G37*
G36*
X321493Y-529407D02*
X311240Y-519154D01*
X315954Y-514440D01*
X326207Y-524693D01*
X321493Y-529407D01*
G37*
G54D22*
G36*
X320517Y-374650D02*
X320517Y-360150D01*
X327183Y-360150D01*
X327183Y-374650D01*
X320517Y-374650D01*
G37*
G36*
X321493Y-372293D02*
X331746Y-362040D01*
X336460Y-366754D01*
X326207Y-377007D01*
X321493Y-372293D01*
G37*
G36*
X323850Y-371317D02*
X338350Y-371317D01*
X338350Y-377983D01*
X323850Y-377983D01*
X323850Y-371317D01*
G37*
G36*
X326207Y-372293D02*
X336460Y-382546D01*
X331746Y-387260D01*
X321493Y-377007D01*
X326207Y-372293D01*
G37*
G36*
X327183Y-374650D02*
X327183Y-389150D01*
X320517Y-389150D01*
X320517Y-374650D01*
X327183Y-374650D01*
G37*
G36*
X326207Y-377007D02*
X315954Y-387260D01*
X311240Y-382546D01*
X321493Y-372293D01*
X326207Y-377007D01*
G37*
G36*
X321493Y-377007D02*
X311240Y-366754D01*
X315954Y-362040D01*
X326207Y-372293D01*
X321493Y-377007D01*
G37*
G54D23*
G36*
X31750Y-772517D02*
X13750Y-772517D01*
X13750Y-764183D01*
X31750Y-764183D01*
X31750Y-772517D01*
G37*
G36*
X27583Y-768350D02*
X27583Y-750350D01*
X35917Y-750350D01*
X35917Y-768350D01*
X27583Y-768350D01*
G37*
G36*
X31750Y-764183D02*
X49750Y-764183D01*
X49750Y-772517D01*
X31750Y-772517D01*
X31750Y-764183D01*
G37*
G36*
X35917Y-768350D02*
X35917Y-786350D01*
X27583Y-786350D01*
X27583Y-768350D01*
X35917Y-768350D01*
G37*
G54D23*
G36*
X31750Y-662517D02*
X13750Y-662517D01*
X13750Y-654183D01*
X31750Y-654183D01*
X31750Y-662517D01*
G37*
G36*
X27583Y-658350D02*
X27583Y-640350D01*
X35917Y-640350D01*
X35917Y-658350D01*
X27583Y-658350D01*
G37*
G36*
X31750Y-654183D02*
X49750Y-654183D01*
X49750Y-662517D01*
X31750Y-662517D01*
X31750Y-654183D01*
G37*
G36*
X35917Y-658350D02*
X35917Y-676350D01*
X27583Y-676350D01*
X27583Y-658350D01*
X35917Y-658350D01*
G37*
G54D24*
G36*
X131750Y-694350D02*
X108250Y-694350D01*
X108250Y-682350D01*
X131750Y-682350D01*
X131750Y-694350D01*
G37*
G36*
X125750Y-688350D02*
X125750Y-664850D01*
X137750Y-664850D01*
X137750Y-688350D01*
X125750Y-688350D01*
G37*
G36*
X131750Y-682350D02*
X155250Y-682350D01*
X155250Y-694350D01*
X131750Y-694350D01*
X131750Y-682350D01*
G37*
G36*
X137750Y-688350D02*
X137750Y-711850D01*
X125750Y-711850D01*
X125750Y-688350D01*
X137750Y-688350D01*
G37*
G54D22*
G36*
X879317Y-676275D02*
X879317Y-651775D01*
X885983Y-651775D01*
X885983Y-676275D01*
X879317Y-676275D01*
G37*
G36*
X879771Y-674596D02*
X891448Y-654578D01*
X897206Y-657937D01*
X885529Y-677954D01*
X879771Y-674596D01*
G37*
G36*
X885529Y-674596D02*
X897206Y-694613D01*
X891448Y-697972D01*
X879771Y-677954D01*
X885529Y-674596D01*
G37*
G36*
X885983Y-676275D02*
X885983Y-700775D01*
X879317Y-700775D01*
X879317Y-676275D01*
X885983Y-676275D01*
G37*
G36*
X885529Y-677954D02*
X873852Y-697972D01*
X868094Y-694613D01*
X879771Y-674596D01*
X885529Y-677954D01*
G37*
G36*
X882650Y-679608D02*
X868150Y-679608D01*
X868150Y-672942D01*
X882650Y-672942D01*
X882650Y-679608D01*
G37*
G36*
X879771Y-677954D02*
X868094Y-657937D01*
X873852Y-654578D01*
X885529Y-674596D01*
X879771Y-677954D01*
G37*
G54D25*
G36*
X921650Y-676275D02*
X921650Y-659775D01*
X925650Y-659775D01*
X925650Y-676275D01*
X921650Y-676275D01*
G37*
G36*
X921954Y-675215D02*
X930214Y-661999D01*
X933606Y-664119D01*
X925346Y-677335D01*
X921954Y-675215D01*
G37*
G36*
X925346Y-675215D02*
X933606Y-688431D01*
X930214Y-690551D01*
X921954Y-677335D01*
X925346Y-675215D01*
G37*
G36*
X925650Y-676275D02*
X925650Y-692775D01*
X921650Y-692775D01*
X921650Y-676275D01*
X925650Y-676275D01*
G37*
G36*
X925346Y-677335D02*
X917086Y-690551D01*
X913694Y-688431D01*
X921954Y-675215D01*
X925346Y-677335D01*
G37*
G36*
X921954Y-677335D02*
X913694Y-664119D01*
X917086Y-661999D01*
X925346Y-675215D01*
X921954Y-677335D01*
G37*
G54D22*
G36*
X961317Y-676275D02*
X961317Y-651775D01*
X967983Y-651775D01*
X967983Y-676275D01*
X961317Y-676275D01*
G37*
G36*
X961771Y-674596D02*
X973448Y-654578D01*
X979206Y-657937D01*
X967529Y-677954D01*
X961771Y-674596D01*
G37*
G36*
X964650Y-672942D02*
X979150Y-672942D01*
X979150Y-679608D01*
X964650Y-679608D01*
X964650Y-672942D01*
G37*
G36*
X967529Y-674596D02*
X979206Y-694613D01*
X973448Y-697972D01*
X961771Y-677954D01*
X967529Y-674596D01*
G37*
G36*
X967983Y-676275D02*
X967983Y-700775D01*
X961317Y-700775D01*
X961317Y-676275D01*
X967983Y-676275D01*
G37*
G36*
X967529Y-677954D02*
X955852Y-697972D01*
X950094Y-694613D01*
X961771Y-674596D01*
X967529Y-677954D01*
G37*
G36*
X961771Y-677954D02*
X950094Y-657937D01*
X955852Y-654578D01*
X967529Y-674596D01*
X961771Y-677954D01*
G37*
G54D22*
G36*
X576295Y-434975D02*
X576295Y-420475D01*
X582961Y-420475D01*
X582961Y-434975D01*
X576295Y-434975D01*
G37*
G36*
X577271Y-432618D02*
X587524Y-422365D01*
X592238Y-427079D01*
X581985Y-437332D01*
X577271Y-432618D01*
G37*
G36*
X579628Y-431642D02*
X594128Y-431642D01*
X594128Y-438308D01*
X579628Y-438308D01*
X579628Y-431642D01*
G37*
G36*
X581985Y-432618D02*
X592238Y-442871D01*
X587524Y-447585D01*
X577271Y-437332D01*
X581985Y-432618D01*
G37*
G36*
X582961Y-434975D02*
X582961Y-449475D01*
X576295Y-449475D01*
X576295Y-434975D01*
X582961Y-434975D01*
G37*
G36*
X581985Y-437332D02*
X571732Y-447585D01*
X567018Y-442871D01*
X577271Y-432618D01*
X581985Y-437332D01*
G37*
G36*
X577271Y-437332D02*
X567018Y-427079D01*
X571732Y-422365D01*
X581985Y-432618D01*
X577271Y-437332D01*
G37*
G54D22*
G36*
X576295Y-485775D02*
X576295Y-471275D01*
X582961Y-471275D01*
X582961Y-485775D01*
X576295Y-485775D01*
G37*
G36*
X577271Y-483418D02*
X587524Y-473165D01*
X592238Y-477879D01*
X581985Y-488132D01*
X577271Y-483418D01*
G37*
G36*
X579628Y-482442D02*
X594128Y-482442D01*
X594128Y-489108D01*
X579628Y-489108D01*
X579628Y-482442D01*
G37*
G36*
X581985Y-483418D02*
X592238Y-493671D01*
X587524Y-498385D01*
X577271Y-488132D01*
X581985Y-483418D01*
G37*
G36*
X582961Y-485775D02*
X582961Y-500275D01*
X576295Y-500275D01*
X576295Y-485775D01*
X582961Y-485775D01*
G37*
G36*
X581985Y-488132D02*
X571732Y-498385D01*
X567018Y-493671D01*
X577271Y-483418D01*
X581985Y-488132D01*
G37*
G36*
X577271Y-488132D02*
X567018Y-477879D01*
X571732Y-473165D01*
X581985Y-483418D01*
X577271Y-488132D01*
G37*
G54D22*
G36*
X473893Y-750118D02*
X484146Y-739865D01*
X488860Y-744579D01*
X478607Y-754832D01*
X473893Y-750118D01*
G37*
G36*
X478607Y-750118D02*
X488860Y-760371D01*
X484146Y-765085D01*
X473893Y-754832D01*
X478607Y-750118D01*
G37*
G36*
X478607Y-754832D02*
X468354Y-765085D01*
X463640Y-760371D01*
X473893Y-750118D01*
X478607Y-754832D01*
G37*
G36*
X473893Y-754832D02*
X463640Y-744579D01*
X468354Y-739865D01*
X478607Y-750118D01*
X473893Y-754832D01*
G37*
G54D22*
G36*
X499293Y-750118D02*
X509546Y-739865D01*
X514260Y-744579D01*
X504007Y-754832D01*
X499293Y-750118D01*
G37*
G36*
X504007Y-750118D02*
X514260Y-760371D01*
X509546Y-765085D01*
X499293Y-754832D01*
X504007Y-750118D01*
G37*
G36*
X504007Y-754832D02*
X493754Y-765085D01*
X489040Y-760371D01*
X499293Y-750118D01*
X504007Y-754832D01*
G37*
G36*
X499293Y-754832D02*
X489040Y-744579D01*
X493754Y-739865D01*
X504007Y-750118D01*
X499293Y-754832D01*
G37*
G54D26*
G36*
X454643Y-723265D02*
X454643Y-705265D01*
X463013Y-705265D01*
X463013Y-723265D01*
X454643Y-723265D01*
G37*
G36*
X455869Y-720306D02*
X468597Y-707578D01*
X474515Y-713496D01*
X461787Y-726224D01*
X455869Y-720306D01*
G37*
G36*
X458828Y-719080D02*
X476828Y-719080D01*
X476828Y-727450D01*
X458828Y-727450D01*
X458828Y-719080D01*
G37*
G36*
X461787Y-720306D02*
X474515Y-733034D01*
X468597Y-738952D01*
X455869Y-726224D01*
X461787Y-720306D01*
G37*
G36*
X461787Y-726224D02*
X449059Y-738952D01*
X443141Y-733034D01*
X455869Y-720306D01*
X461787Y-726224D01*
G37*
G36*
X455869Y-726224D02*
X443141Y-713496D01*
X449059Y-707578D01*
X461787Y-720306D01*
X455869Y-726224D01*
G37*
G54D26*
G36*
X489643Y-723265D02*
X489643Y-705265D01*
X498013Y-705265D01*
X498013Y-723265D01*
X489643Y-723265D01*
G37*
G36*
X490869Y-720306D02*
X503597Y-707578D01*
X509515Y-713496D01*
X496787Y-726224D01*
X490869Y-720306D01*
G37*
G36*
X496787Y-720306D02*
X509515Y-733034D01*
X503597Y-738952D01*
X490869Y-726224D01*
X496787Y-720306D01*
G37*
G36*
X496787Y-726224D02*
X484059Y-738952D01*
X478141Y-733034D01*
X490869Y-720306D01*
X496787Y-726224D01*
G37*
G36*
X493828Y-727450D02*
X475828Y-727450D01*
X475828Y-719080D01*
X493828Y-719080D01*
X493828Y-727450D01*
G37*
G36*
X490869Y-726224D02*
X478141Y-713496D01*
X484059Y-707578D01*
X496787Y-720306D01*
X490869Y-726224D01*
G37*
G54D22*
G36*
X888182Y-46807D02*
X877929Y-57060D01*
X873215Y-52346D01*
X883468Y-42093D01*
X888182Y-46807D01*
G37*
G36*
X883468Y-46807D02*
X873215Y-36554D01*
X877929Y-31840D01*
X888182Y-42093D01*
X883468Y-46807D01*
G37*
G36*
X883468Y-42093D02*
X893721Y-31840D01*
X898435Y-36554D01*
X888182Y-46807D01*
X883468Y-42093D01*
G37*
G36*
X888182Y-42093D02*
X898435Y-52346D01*
X893721Y-57060D01*
X883468Y-46807D01*
X888182Y-42093D01*
G37*
G54D22*
G36*
X892993Y-586557D02*
X882740Y-576304D01*
X887454Y-571590D01*
X897707Y-581843D01*
X892993Y-586557D01*
G37*
G36*
X892993Y-581843D02*
X903246Y-571590D01*
X907960Y-576304D01*
X897707Y-586557D01*
X892993Y-581843D01*
G37*
G36*
X897707Y-581843D02*
X907960Y-592096D01*
X903246Y-596810D01*
X892993Y-586557D01*
X897707Y-581843D01*
G37*
G36*
X897707Y-586557D02*
X887454Y-596810D01*
X882740Y-592096D01*
X892993Y-581843D01*
X897707Y-586557D01*
G37*
G54D22*
G36*
X943793Y-440507D02*
X933540Y-430254D01*
X938254Y-425540D01*
X948507Y-435793D01*
X943793Y-440507D01*
G37*
G36*
X943793Y-435793D02*
X954046Y-425540D01*
X958760Y-430254D01*
X948507Y-440507D01*
X943793Y-435793D01*
G37*
G36*
X948507Y-435793D02*
X958760Y-446046D01*
X954046Y-450760D01*
X943793Y-440507D01*
X948507Y-435793D01*
G37*
G36*
X948507Y-440507D02*
X938254Y-450760D01*
X933540Y-446046D01*
X943793Y-435793D01*
X948507Y-440507D01*
G37*
G54D22*
G36*
X892993Y-440507D02*
X882740Y-430254D01*
X887454Y-425540D01*
X897707Y-435793D01*
X892993Y-440507D01*
G37*
G36*
X892993Y-435793D02*
X903246Y-425540D01*
X907960Y-430254D01*
X897707Y-440507D01*
X892993Y-435793D01*
G37*
G36*
X897707Y-435793D02*
X907960Y-446046D01*
X903246Y-450760D01*
X892993Y-440507D01*
X897707Y-435793D01*
G37*
G36*
X897707Y-440507D02*
X887454Y-450760D01*
X882740Y-446046D01*
X892993Y-435793D01*
X897707Y-440507D01*
G37*
G54D22*
G36*
X777057Y-335732D02*
X766804Y-345985D01*
X762090Y-341271D01*
X772343Y-331018D01*
X777057Y-335732D01*
G37*
G36*
X772343Y-335732D02*
X762090Y-325479D01*
X766804Y-320765D01*
X777057Y-331018D01*
X772343Y-335732D01*
G37*
G36*
X772343Y-331018D02*
X782596Y-320765D01*
X787310Y-325479D01*
X777057Y-335732D01*
X772343Y-331018D01*
G37*
G36*
X777057Y-331018D02*
X787310Y-341271D01*
X782596Y-345985D01*
X772343Y-335732D01*
X777057Y-331018D01*
G37*
G54D22*
G36*
X675457Y-46807D02*
X665204Y-57060D01*
X660490Y-52346D01*
X670743Y-42093D01*
X675457Y-46807D01*
G37*
G36*
X670743Y-46807D02*
X660490Y-36554D01*
X665204Y-31840D01*
X675457Y-42093D01*
X670743Y-46807D01*
G37*
G36*
X670743Y-42093D02*
X680996Y-31840D01*
X685710Y-36554D01*
X675457Y-46807D01*
X670743Y-42093D01*
G37*
G36*
X675457Y-42093D02*
X685710Y-52346D01*
X680996Y-57060D01*
X670743Y-46807D01*
X675457Y-42093D01*
G37*
G54D22*
G36*
X943793Y-586557D02*
X933540Y-576304D01*
X938254Y-571590D01*
X948507Y-581843D01*
X943793Y-586557D01*
G37*
G36*
X943793Y-581843D02*
X954046Y-571590D01*
X958760Y-576304D01*
X948507Y-586557D01*
X943793Y-581843D01*
G37*
G36*
X948507Y-581843D02*
X958760Y-592096D01*
X954046Y-596810D01*
X943793Y-586557D01*
X948507Y-581843D01*
G37*
G36*
X948507Y-586557D02*
X938254Y-596810D01*
X933540Y-592096D01*
X943793Y-581843D01*
X948507Y-586557D01*
G37*
G54D22*
G36*
X735782Y-535757D02*
X725529Y-546010D01*
X720815Y-541296D01*
X731068Y-531043D01*
X735782Y-535757D01*
G37*
G36*
X731068Y-535757D02*
X720815Y-525504D01*
X725529Y-520790D01*
X735782Y-531043D01*
X731068Y-535757D01*
G37*
G36*
X731068Y-531043D02*
X741321Y-520790D01*
X746035Y-525504D01*
X735782Y-535757D01*
X731068Y-531043D01*
G37*
G36*
X735782Y-531043D02*
X746035Y-541296D01*
X741321Y-546010D01*
X731068Y-535757D01*
X735782Y-531043D01*
G37*
X952500Y-95250D02*
G54D27*
D03*
X952500Y-273050D02*
G54D27*
D03*
X927100Y-95250D02*
G54D27*
D03*
X927100Y-273050D02*
G54D27*
D03*
X901700Y-95250D02*
G54D27*
D03*
X901700Y-273050D02*
G54D27*
D03*
X876300Y-95250D02*
G54D27*
D03*
X876300Y-273050D02*
G54D27*
D03*
X850900Y-95250D02*
G54D27*
D03*
X850900Y-273050D02*
G54D27*
D03*
X825500Y-95250D02*
G54D27*
D03*
X825500Y-273050D02*
G54D27*
D03*
X800100Y-95250D02*
G54D27*
D03*
X800100Y-273050D02*
G54D27*
D03*
X774700Y-95250D02*
G54D27*
D03*
X774700Y-273050D02*
G54D27*
D03*
X749300Y-95250D02*
G54D27*
D03*
X749300Y-273050D02*
G54D27*
D03*
X723900Y-95250D02*
G54D27*
D03*
X723900Y-273050D02*
G54D27*
D03*
X698500Y-95250D02*
G54D27*
D03*
X698500Y-273050D02*
G54D27*
D03*
X673100Y-95250D02*
G54D27*
D03*
X673100Y-273050D02*
G54D27*
D03*
X647700Y-95250D02*
G54D27*
D03*
X647700Y-273050D02*
G54D27*
D03*
X622300Y-95250D02*
G54D27*
D03*
X622300Y-273050D02*
G54D27*
D03*
X596900Y-95250D02*
G54D27*
D03*
X596900Y-273050D02*
G54D27*
D03*
X571500Y-95250D02*
G54D27*
D03*
X571500Y-273050D02*
G54D27*
D03*
X546100Y-95250D02*
G54D27*
D03*
X546100Y-273050D02*
G54D27*
D03*
X520700Y-95250D02*
G54D27*
D03*
X520700Y-273050D02*
G54D27*
D03*
X495300Y-95250D02*
G54D27*
D03*
X495300Y-273050D02*
G54D27*
D03*
X469900Y-95250D02*
G54D27*
D03*
X469900Y-273050D02*
G54D27*
D03*
X323850Y-279400D02*
G54D27*
D03*
X323850Y-95250D02*
G54D27*
D03*
X298450Y-279400D02*
G54D27*
D03*
X298450Y-95250D02*
G54D27*
D03*
X273050Y-279400D02*
G54D27*
D03*
X273050Y-95250D02*
G54D27*
D03*
X247650Y-279400D02*
G54D27*
D03*
X247650Y-95250D02*
G54D27*
D03*
X222250Y-279400D02*
G54D27*
D03*
X222250Y-95250D02*
G54D27*
D03*
X196850Y-279400D02*
G54D27*
D03*
X196850Y-95250D02*
G54D27*
D03*
X171450Y-279400D02*
G54D27*
D03*
X171450Y-95250D02*
G54D27*
D03*
X146050Y-279400D02*
G54D27*
D03*
X146050Y-95250D02*
G54D27*
D03*
X146050Y-527050D02*
G54D27*
D03*
X171450Y-527050D02*
G54D27*
D03*
X196850Y-527050D02*
G54D27*
D03*
X222250Y-527050D02*
G54D27*
D03*
X247650Y-527050D02*
G54D27*
D03*
X273050Y-527050D02*
G54D27*
D03*
X298450Y-527050D02*
G54D27*
D03*
X323850Y-527050D02*
G54D27*
D03*
X146050Y-374650D02*
G54D27*
D03*
X171450Y-374650D02*
G54D27*
D03*
X196850Y-374650D02*
G54D27*
D03*
X222250Y-374650D02*
G54D27*
D03*
X247650Y-374650D02*
G54D27*
D03*
X273050Y-374650D02*
G54D27*
D03*
X298450Y-374650D02*
G54D27*
D03*
X323850Y-374650D02*
G54D27*
D03*
X50800Y-409575D02*
G54D27*
D03*
X50800Y-434975D02*
G54D27*
D03*
X50800Y-492125D02*
G54D27*
D03*
X50800Y-466725D02*
G54D27*
D03*
X101600Y-492125D02*
G54D27*
D03*
X101600Y-466725D02*
G54D27*
D03*
X101600Y-409575D02*
G54D27*
D03*
X101600Y-434975D02*
G54D27*
D03*
X31750Y-768350D02*
G54D28*
D03*
X31750Y-658350D02*
G54D28*
D03*
X131750Y-688350D02*
G54D29*
D03*
X131750Y-738350D02*
G54D29*
D03*
G54D14*
X882650Y-666275D02*
X882650Y-686275D01*
G54D24*
X903650Y-670275D02*
X903650Y-682275D01*
G54D24*
X923650Y-670275D02*
X923650Y-682275D01*
G54D24*
X943650Y-670275D02*
X943650Y-682275D01*
G54D14*
X964650Y-666275D02*
X964650Y-686275D01*
X184150Y-57150D02*
G54D27*
D03*
X158750Y-57150D02*
G54D27*
D03*
X528828Y-434975D02*
G54D27*
D03*
X554228Y-434975D02*
G54D27*
D03*
X579628Y-434975D02*
G54D27*
D03*
X528828Y-485775D02*
G54D27*
D03*
X554228Y-485775D02*
G54D27*
D03*
X579628Y-485775D02*
G54D27*
D03*
X228600Y-736600D02*
G54D30*
D03*
X308600Y-736600D02*
G54D30*
D03*
X425450Y-752475D02*
G54D27*
D03*
X450850Y-752475D02*
G54D27*
D03*
X476250Y-752475D02*
G54D27*
D03*
X501650Y-752475D02*
G54D27*
D03*
X527050Y-752475D02*
G54D27*
D03*
X423828Y-723265D02*
G54D31*
D03*
X458828Y-723265D02*
G54D31*
D03*
X493828Y-723265D02*
G54D31*
D03*
X528828Y-723265D02*
G54D31*
D03*
X30000Y-580000D02*
G54D32*
D03*
X30000Y-30000D02*
G54D32*
D03*
X970000Y-770000D02*
G54D32*
D03*
X911225Y-44450D02*
G54D27*
D03*
X885825Y-44450D02*
G54D27*
D03*
X860425Y-44450D02*
G54D27*
D03*
X835025Y-44450D02*
G54D27*
D03*
X895350Y-609600D02*
G54D27*
D03*
X895350Y-584200D02*
G54D27*
D03*
X895350Y-558800D02*
G54D27*
D03*
X895350Y-533400D02*
G54D27*
D03*
X946150Y-463550D02*
G54D27*
D03*
X946150Y-438150D02*
G54D27*
D03*
X946150Y-412750D02*
G54D27*
D03*
X946150Y-387350D02*
G54D27*
D03*
X895350Y-463550D02*
G54D27*
D03*
X895350Y-438150D02*
G54D27*
D03*
X895350Y-412750D02*
G54D27*
D03*
X895350Y-387350D02*
G54D27*
D03*
X800100Y-333375D02*
G54D27*
D03*
X774700Y-333375D02*
G54D27*
D03*
X749300Y-333375D02*
G54D27*
D03*
X723900Y-333375D02*
G54D27*
D03*
X970000Y-30000D02*
G54D32*
D03*
X698500Y-44450D02*
G54D27*
D03*
X673100Y-44450D02*
G54D27*
D03*
X647700Y-44450D02*
G54D27*
D03*
X622300Y-44450D02*
G54D27*
D03*
X596900Y-44450D02*
G54D27*
D03*
X571500Y-44450D02*
G54D27*
D03*
X546100Y-44450D02*
G54D27*
D03*
X946150Y-609600D02*
G54D27*
D03*
X946150Y-584200D02*
G54D27*
D03*
X946150Y-558800D02*
G54D27*
D03*
X946150Y-533400D02*
G54D27*
D03*
G54D33*
X647700Y-44450D02*
X647700Y-63500D01*
X654050Y-69850D01*
X717550Y-69850D01*
X723900Y-76200D01*
X723900Y-95250D01*
X784225Y-34925D02*
G54D34*
D03*
G54D17*
X698500Y-44450D02*
X755650Y-44450D01*
X781050Y-69850D01*
X869950Y-69850D01*
X869950Y-69850D02*
G54D35*
D03*
X109175Y-561975D02*
G54D35*
D03*
X95250Y-577850D02*
G54D35*
D03*
X95250Y-606425D02*
G54D35*
D03*
X109175Y-622300D02*
G54D35*
D03*
X784225Y-742950D02*
G54D34*
D03*
X869950Y-742950D02*
G54D34*
D03*
G54D33*
X511175Y-774700D02*
X542925Y-774700D01*
X542925Y-774700D02*
G54D34*
D03*
X511175Y-774700D02*
G54D34*
D03*
G54D33*
X508000Y-692150D02*
X568325Y-692150D01*
X508000Y-692150D02*
G54D34*
D03*
X568325Y-692150D02*
G54D34*
D03*
G54D33*
X903650Y-711200D02*
X903650Y-676275D01*
X903650Y-711200D02*
G54D34*
D03*
X274650Y-644475D02*
G54D34*
D03*
X266700Y-590550D02*
G54D34*
D03*
G54D33*
X508000Y-663575D02*
X549275Y-663575D01*
X508000Y-663575D02*
G54D34*
D03*
X549275Y-663575D02*
G54D34*
D03*
G54D33*
X352425Y-279400D02*
X428625Y-279400D01*
X428625Y-279400D02*
G54D34*
D03*
X352425Y-279400D02*
G54D34*
D03*
G54D33*
X469900Y-273050D02*
X469900Y-234950D01*
X371475Y-136525D01*
G54D33*
X495300Y-273050D02*
X495300Y-231775D01*
X381000Y-117475D01*
X400050Y-466725D02*
G54D34*
D03*
X425450Y-431800D02*
G54D34*
D03*
X92075Y-127000D02*
G54D35*
D03*
X109175Y-142875D02*
G54D35*
D03*
X41275Y-98425D02*
G54D35*
D03*
X474300Y-53975D02*
G54D34*
D03*
X290875Y-146050D02*
G54D35*
D03*
X304850Y-130175D02*
G54D35*
D03*
X193625Y-168275D02*
G54D34*
D03*
X381000Y-117475D02*
G54D34*
D03*
X371475Y-136525D02*
G54D34*
D03*
X111125Y-111125D02*
G54D34*
D03*
X819150Y-514350D02*
G54D34*
D03*
X815975Y-457200D02*
G54D34*
D03*
X733425Y-533400D02*
G54D27*
D03*
X708025Y-533400D02*
G54D27*
D03*
X688975Y-612775D02*
G54D34*
D03*
X666750Y-555625D02*
G54D34*
D03*
X786950Y-422725D02*
G54D34*
D03*
G54D33*
X786950Y-422725D02*
X768800Y-422725D01*
X768800Y-422725D02*
G54D34*
D03*
M02*
