; Drill file
; Format: 3.3 (000.000)
M48
M71
T01C0.3
T02C0.5
T03C0.8
T04C1.0
T05C1.3
T06C1.5
T07C1.8
T08C2.2
%
G05
G90
T01
X027460Y-064450
X026670Y-059060
X038740Y-047620
X042390Y-045080
X042230Y-041590
X029840Y-024130
X028580Y-022220
X021590Y-019050
X019050Y-013970
X016510Y-013970
X023810Y-011110
X025400Y-012380
X026990Y-011110
X015560Y-003490
X065090Y-033020
X065090Y-035560
X073660Y-050800
X074300Y-053340
X067630Y-053020
X063980Y-054920
X065720Y-059690
X065090Y-062230
X066360Y-063180
X068900Y-062230
X069530Y-063180
X078420Y-074300
X087000Y-074300
X090360Y-071120
X082230Y-050800
X054930Y-066360
X056200Y-068580
X050800Y-068580
X050800Y-066360
X051120Y-077470
X054290Y-077470
X079380Y-003490
T02
X010920Y-062230
X009520Y-060640
X009520Y-057780
X010920Y-056200
X087000Y-006980
T03
X090360Y-067630
X092360Y-067630
X094360Y-067630
T04
X003180Y-076840
X003180Y-065840
X005080Y-049210
X005080Y-046670
X005080Y-043500
X005080Y-040960
X010160Y-040960
X010160Y-043500
X010160Y-046670
X010160Y-049210
X014600Y-052700
X017140Y-052700
X019680Y-052700
X022220Y-052700
X024760Y-052700
X027300Y-052700
X029840Y-052700
X032380Y-052700
X032380Y-037460
X029840Y-037460
X027300Y-037460
X024760Y-037460
X022220Y-037460
X019680Y-037460
X017140Y-037460
X014600Y-037460
X013970Y-025400
X016510Y-025400
X019050Y-025400
X021590Y-025400
X011430Y-025400
X008890Y-025400
X006350Y-025400
X003810Y-025400
X003810Y-006980
X006350Y-006980
X008890Y-006980
X011430Y-006980
X013970Y-006980
X016510Y-006980
X019050Y-006980
X021590Y-006980
X009840Y-003490
X007300Y-003490
X046990Y-009520
X049530Y-009520
X052070Y-009520
X054610Y-009520
X057150Y-009520
X059690Y-009520
X062230Y-009520
X064770Y-009520
X067310Y-009520
X069850Y-009520
X072390Y-009520
X074930Y-009520
X077470Y-009520
X080010Y-009520
X082550Y-009520
X085090Y-009520
X087630Y-009520
X090170Y-009520
X092710Y-009520
X095250Y-009520
X091120Y-004440
X088580Y-004440
X086040Y-004440
X083500Y-004440
X069850Y-004440
X067310Y-004440
X064770Y-004440
X062230Y-004440
X059690Y-004440
X057150Y-004440
X054610Y-004440
X054610Y-027300
X057150Y-027300
X059690Y-027300
X062230Y-027300
X064770Y-027300
X067310Y-027300
X069850Y-027300
X072390Y-027300
X074930Y-027300
X077470Y-027300
X080010Y-027300
X082550Y-027300
X085090Y-027300
X087630Y-027300
X090170Y-027300
X092710Y-027300
X095250Y-027300
X094620Y-038740
X094620Y-041280
X094620Y-043820
X094620Y-046360
X089540Y-046360
X089540Y-043820
X089540Y-041280
X089540Y-038740
X080010Y-033340
X077470Y-033340
X074930Y-033340
X072390Y-033340
X056520Y-044450
X053980Y-044450
X051440Y-044450
X051440Y-049530
X053980Y-049530
X056520Y-049530
X052070Y-027300
X049530Y-027300
X046990Y-027300
X047620Y-075250
X045080Y-075250
X042540Y-075250
X050160Y-075250
X052700Y-075250
X089540Y-060960
X089540Y-058420
X089540Y-055880
X089540Y-053340
X094620Y-053340
X094620Y-055880
X094620Y-058420
X094620Y-060960
T05
X042380Y-072330
X045880Y-072330
X049380Y-072330
X052880Y-072330
T06
X022860Y-073660
X030860Y-073660
X088260Y-067630
X096460Y-067630
T07
X013180Y-073840
X013180Y-068840
T08
X003000Y-058000
X003000Y-003000
X097000Y-003000
X097000Y-077000
M30
