%FSLAX34Y34*%
%MOMM*%
%LNCOPPER_TOP*%
G71*
G01*
%ADD10R,0.350X1.200*%
%ADD11R,1.100X0.650*%
%ADD12R,1.300X1.600*%
%ADD13R,1.600X1.300*%
%ADD14R,1.400X1.300*%
%ADD15C,2.000*%
%ADD16R,0.650X1.000*%
%ADD17C,2.500*%
%ADD18C,3.600*%
%ADD19C,2.000*%
%ADD20C,1.200*%
%ADD21C,3.000*%
%ADD22C,2.700*%
%ADD23C,4.000*%
%ADD24R,1.300X1.400*%
%ADD25R,1.000X0.650*%
%ADD26R,0.800X2.400*%
%ADD27R,2.500X1.700*%
%ADD28C,3.000*%
%ADD29C,2.850*%
%ADD30C,0.300*%
%ADD31C,1.700*%
%ADD32C,0.800*%
%ADD33C,0.700*%
%ADD34C,1.000*%
%ADD35R,1.100X1.600*%
%ADD36C,1.000*%
%ADD37C,0.600*%
%LPD*%
X786950Y-496200D02*
G54D10*
D03*
X786950Y-457200D02*
G54D10*
D03*
X793450Y-496200D02*
G54D10*
D03*
X793450Y-457200D02*
G54D10*
D03*
X799950Y-496200D02*
G54D10*
D03*
X799950Y-457200D02*
G54D10*
D03*
X806450Y-496200D02*
G54D10*
D03*
X806450Y-457200D02*
G54D10*
D03*
X466725Y-457200D02*
G54D11*
D03*
X466725Y-476200D02*
G54D11*
D03*
X439725Y-457200D02*
G54D11*
D03*
X439725Y-476200D02*
G54D11*
D03*
X439725Y-466700D02*
G54D11*
D03*
X466725Y-466700D02*
G54D11*
D03*
X438150Y-431800D02*
G54D12*
D03*
X457150Y-431800D02*
G54D12*
D03*
X833629Y-431848D02*
G54D13*
D03*
X833629Y-450848D02*
G54D13*
D03*
X833629Y-514348D02*
G54D13*
D03*
X833629Y-495348D02*
G54D13*
D03*
X860425Y-533400D02*
G54D14*
D03*
X860425Y-514400D02*
G54D14*
D03*
X860425Y-558800D02*
G54D14*
D03*
X860425Y-577800D02*
G54D14*
D03*
X860425Y-387350D02*
G54D14*
D03*
X860425Y-368350D02*
G54D14*
D03*
X860425Y-412750D02*
G54D14*
D03*
X860425Y-431750D02*
G54D14*
D03*
X614553Y-438150D02*
G54D14*
D03*
X614553Y-457150D02*
G54D14*
D03*
X614553Y-488950D02*
G54D14*
D03*
X614553Y-507950D02*
G54D14*
D03*
X952500Y-95250D02*
G54D15*
D03*
X952500Y-273050D02*
G54D15*
D03*
X927100Y-95250D02*
G54D15*
D03*
X927100Y-273050D02*
G54D15*
D03*
X901700Y-95250D02*
G54D15*
D03*
X901700Y-273050D02*
G54D15*
D03*
X876300Y-95250D02*
G54D15*
D03*
X876300Y-273050D02*
G54D15*
D03*
X850900Y-95250D02*
G54D15*
D03*
X850900Y-273050D02*
G54D15*
D03*
X825500Y-95250D02*
G54D15*
D03*
X825500Y-273050D02*
G54D15*
D03*
X800100Y-95250D02*
G54D15*
D03*
X800100Y-273050D02*
G54D15*
D03*
X774700Y-95250D02*
G54D15*
D03*
X774700Y-273050D02*
G54D15*
D03*
X749300Y-95250D02*
G54D15*
D03*
X749300Y-273050D02*
G54D15*
D03*
X723900Y-95250D02*
G54D15*
D03*
X723900Y-273050D02*
G54D15*
D03*
X698500Y-95250D02*
G54D15*
D03*
X698500Y-273050D02*
G54D15*
D03*
X673100Y-95250D02*
G54D15*
D03*
X673100Y-273050D02*
G54D15*
D03*
X647700Y-95250D02*
G54D15*
D03*
X647700Y-273050D02*
G54D15*
D03*
X622300Y-95250D02*
G54D15*
D03*
X622300Y-273050D02*
G54D15*
D03*
X596900Y-95250D02*
G54D15*
D03*
X596900Y-273050D02*
G54D15*
D03*
X571500Y-95250D02*
G54D15*
D03*
X571500Y-273050D02*
G54D15*
D03*
X546100Y-95250D02*
G54D15*
D03*
X546100Y-273050D02*
G54D15*
D03*
X520700Y-95250D02*
G54D15*
D03*
X520700Y-273050D02*
G54D15*
D03*
X495300Y-95250D02*
G54D15*
D03*
X495300Y-273050D02*
G54D15*
D03*
X469900Y-95250D02*
G54D15*
D03*
X469900Y-273050D02*
G54D15*
D03*
X676275Y-590550D02*
G54D16*
D03*
X657275Y-590550D02*
G54D16*
D03*
X676275Y-566750D02*
G54D16*
D03*
X657275Y-566750D02*
G54D16*
D03*
X666775Y-566750D02*
G54D16*
D03*
X676275Y-612775D02*
G54D12*
D03*
X657275Y-612775D02*
G54D12*
D03*
X323850Y-279400D02*
G54D15*
D03*
X323850Y-95250D02*
G54D15*
D03*
X298450Y-279400D02*
G54D15*
D03*
X298450Y-95250D02*
G54D15*
D03*
X273050Y-279400D02*
G54D15*
D03*
X273050Y-95250D02*
G54D15*
D03*
X247650Y-279400D02*
G54D15*
D03*
X247650Y-95250D02*
G54D15*
D03*
X222250Y-279400D02*
G54D15*
D03*
X222250Y-95250D02*
G54D15*
D03*
X196850Y-279400D02*
G54D15*
D03*
X196850Y-95250D02*
G54D15*
D03*
X171450Y-279400D02*
G54D15*
D03*
X171450Y-95250D02*
G54D15*
D03*
X146050Y-279400D02*
G54D15*
D03*
X146050Y-95250D02*
G54D15*
D03*
X146050Y-527050D02*
G54D15*
D03*
X171450Y-527050D02*
G54D15*
D03*
X196850Y-527050D02*
G54D15*
D03*
X222250Y-527050D02*
G54D15*
D03*
X247650Y-527050D02*
G54D15*
D03*
X273050Y-527050D02*
G54D15*
D03*
X298450Y-527050D02*
G54D15*
D03*
X323850Y-527050D02*
G54D15*
D03*
X146050Y-374650D02*
G54D15*
D03*
X171450Y-374650D02*
G54D15*
D03*
X196850Y-374650D02*
G54D15*
D03*
X222250Y-374650D02*
G54D15*
D03*
X247650Y-374650D02*
G54D15*
D03*
X273050Y-374650D02*
G54D15*
D03*
X298450Y-374650D02*
G54D15*
D03*
X323850Y-374650D02*
G54D15*
D03*
X50800Y-409575D02*
G54D15*
D03*
X50800Y-434975D02*
G54D15*
D03*
X50800Y-492125D02*
G54D15*
D03*
X50800Y-466725D02*
G54D15*
D03*
X101600Y-492125D02*
G54D15*
D03*
X101600Y-466725D02*
G54D15*
D03*
X101600Y-409575D02*
G54D15*
D03*
X101600Y-434975D02*
G54D15*
D03*
X31750Y-768350D02*
G54D17*
D03*
X31750Y-658350D02*
G54D17*
D03*
X131750Y-688350D02*
G54D18*
D03*
X131750Y-738350D02*
G54D18*
D03*
G54D19*
X882650Y-666275D02*
X882650Y-686275D01*
G54D20*
X903650Y-670275D02*
X903650Y-682275D01*
G54D20*
X923650Y-670275D02*
X923650Y-682275D01*
G54D20*
X943650Y-670275D02*
X943650Y-682275D01*
G54D19*
X964650Y-666275D02*
X964650Y-686275D01*
X184150Y-57150D02*
G54D15*
D03*
X158750Y-57150D02*
G54D15*
D03*
X528828Y-434975D02*
G54D15*
D03*
X554228Y-434975D02*
G54D15*
D03*
X579628Y-434975D02*
G54D15*
D03*
X528828Y-485775D02*
G54D15*
D03*
X554228Y-485775D02*
G54D15*
D03*
X579628Y-485775D02*
G54D15*
D03*
X228600Y-736600D02*
G54D21*
D03*
X308600Y-736600D02*
G54D21*
D03*
X425450Y-752475D02*
G54D15*
D03*
X450850Y-752475D02*
G54D15*
D03*
X476250Y-752475D02*
G54D15*
D03*
X501650Y-752475D02*
G54D15*
D03*
X527050Y-752475D02*
G54D15*
D03*
X423828Y-723265D02*
G54D22*
D03*
X458828Y-723265D02*
G54D22*
D03*
X493828Y-723265D02*
G54D22*
D03*
X528828Y-723265D02*
G54D22*
D03*
X30000Y-580000D02*
G54D23*
D03*
X30000Y-30000D02*
G54D23*
D03*
X970000Y-770000D02*
G54D23*
D03*
X911225Y-44450D02*
G54D15*
D03*
X885825Y-44450D02*
G54D15*
D03*
X860425Y-44450D02*
G54D15*
D03*
X835025Y-44450D02*
G54D15*
D03*
X219075Y-625475D02*
G54D24*
D03*
X238075Y-625475D02*
G54D24*
D03*
X219075Y-600075D02*
G54D24*
D03*
X238075Y-600075D02*
G54D24*
D03*
X895350Y-609600D02*
G54D15*
D03*
X895350Y-584200D02*
G54D15*
D03*
X895350Y-558800D02*
G54D15*
D03*
X895350Y-533400D02*
G54D15*
D03*
X946150Y-463550D02*
G54D15*
D03*
X946150Y-438150D02*
G54D15*
D03*
X946150Y-412750D02*
G54D15*
D03*
X946150Y-387350D02*
G54D15*
D03*
X895350Y-463550D02*
G54D15*
D03*
X895350Y-438150D02*
G54D15*
D03*
X895350Y-412750D02*
G54D15*
D03*
X895350Y-387350D02*
G54D15*
D03*
X400050Y-454025D02*
G54D14*
D03*
X400050Y-435025D02*
G54D14*
D03*
X400050Y-476250D02*
G54D14*
D03*
X400050Y-495250D02*
G54D14*
D03*
X800100Y-333375D02*
G54D15*
D03*
X774700Y-333375D02*
G54D15*
D03*
X749300Y-333375D02*
G54D15*
D03*
X723900Y-333375D02*
G54D15*
D03*
X298450Y-615950D02*
G54D25*
D03*
X298450Y-634950D02*
G54D25*
D03*
X274650Y-615950D02*
G54D25*
D03*
X274650Y-634950D02*
G54D25*
D03*
X274650Y-625450D02*
G54D25*
D03*
X279400Y-590550D02*
G54D12*
D03*
X298400Y-590550D02*
G54D12*
D03*
X970000Y-30000D02*
G54D23*
D03*
X749300Y-365125D02*
G54D24*
D03*
X768300Y-365125D02*
G54D24*
D03*
X228600Y-168275D02*
G54D24*
D03*
X209600Y-168275D02*
G54D24*
D03*
X269850Y-168300D02*
G54D24*
D03*
X250850Y-168300D02*
G54D24*
D03*
X698500Y-44450D02*
G54D15*
D03*
X673100Y-44450D02*
G54D15*
D03*
X647700Y-44450D02*
G54D15*
D03*
X622300Y-44450D02*
G54D15*
D03*
X596900Y-44450D02*
G54D15*
D03*
X571500Y-44450D02*
G54D15*
D03*
X546100Y-44450D02*
G54D15*
D03*
X66675Y-117475D02*
G54D26*
D03*
X53975Y-117475D02*
G54D26*
D03*
X41275Y-117475D02*
G54D26*
D03*
X28575Y-117475D02*
G54D26*
D03*
X28575Y-167475D02*
G54D26*
D03*
X41275Y-167475D02*
G54D26*
D03*
X53975Y-167475D02*
G54D26*
D03*
X66675Y-167475D02*
G54D26*
D03*
X92075Y-142875D02*
G54D13*
D03*
X92075Y-161875D02*
G54D13*
D03*
X111125Y-95250D02*
G54D24*
D03*
X92125Y-95250D02*
G54D24*
D03*
X752475Y-34925D02*
G54D24*
D03*
X771475Y-34925D02*
G54D24*
D03*
X771475Y-57150D02*
G54D24*
D03*
X752475Y-57150D02*
G54D24*
D03*
X967100Y-320675D02*
G54D27*
D03*
X927100Y-320675D02*
G54D27*
D03*
X434975Y-53975D02*
G54D24*
D03*
X453975Y-53975D02*
G54D24*
D03*
X434975Y-31750D02*
G54D24*
D03*
X453975Y-31750D02*
G54D24*
D03*
X831850Y-717550D02*
G54D24*
D03*
X850850Y-717550D02*
G54D24*
D03*
X831850Y-742950D02*
G54D24*
D03*
X850850Y-742950D02*
G54D24*
D03*
X746125Y-717550D02*
G54D24*
D03*
X765125Y-717550D02*
G54D24*
D03*
X746125Y-742950D02*
G54D24*
D03*
X765125Y-742950D02*
G54D24*
D03*
X660400Y-717550D02*
G54D24*
D03*
X679400Y-717550D02*
G54D24*
D03*
X660400Y-742950D02*
G54D24*
D03*
X679400Y-742950D02*
G54D24*
D03*
X946150Y-609600D02*
G54D15*
D03*
X946150Y-584200D02*
G54D15*
D03*
X946150Y-558800D02*
G54D15*
D03*
X946150Y-533400D02*
G54D15*
D03*
G54D28*
X308600Y-720725D02*
X421288Y-720725D01*
X423828Y-723265D01*
G54D20*
X450850Y-752475D02*
X446088Y-742950D01*
X426402Y-723265D01*
X423828Y-723265D01*
G54D29*
X423828Y-723265D02*
X405413Y-704850D01*
G36*
X111125Y-717550D02*
X244475Y-717550D01*
X257175Y-730250D01*
X257175Y-758825D01*
X244475Y-771525D01*
X111125Y-771525D01*
X98425Y-758825D01*
X98425Y-730250D01*
X111125Y-717550D01*
G37*
G54D30*
X111125Y-717550D02*
X244475Y-717550D01*
X257175Y-730250D01*
X257175Y-758825D01*
X244475Y-771525D01*
X111125Y-771525D01*
X98425Y-758825D01*
X98425Y-730250D01*
X111125Y-717550D01*
G36*
X292100Y-762000D02*
X279400Y-749300D01*
X279400Y-704850D01*
X292100Y-692150D01*
X403225Y-692150D01*
X425450Y-714375D01*
X425450Y-730250D01*
X406400Y-742950D01*
X393700Y-762000D01*
X292100Y-762000D01*
X279400Y-749300D01*
X292100Y-762000D01*
G37*
G54D30*
X292100Y-762000D02*
X279400Y-749300D01*
X279400Y-704850D01*
X292100Y-692150D01*
X403225Y-692150D01*
X425450Y-714375D01*
X425450Y-730250D01*
X406400Y-742950D01*
X393700Y-762000D01*
X292100Y-762000D01*
X279400Y-749300D01*
X292100Y-762000D01*
G54D30*
X546100Y-50800D02*
X546100Y-95250D01*
G54D30*
X571500Y-50800D02*
X571500Y-95250D01*
G54D30*
X596900Y-50800D02*
X596900Y-95250D01*
G54D30*
X622300Y-50800D02*
X622300Y-95250D01*
G54D31*
X50800Y-466725D02*
X101600Y-466725D01*
X225425Y-466725D01*
X247650Y-488950D01*
X247650Y-527050D01*
G54D31*
X50800Y-492125D02*
X101600Y-492125D01*
X209550Y-492125D01*
X222250Y-504825D01*
X222250Y-527050D01*
G54D31*
X50800Y-434975D02*
X101600Y-434975D01*
X241300Y-434975D01*
X273050Y-466725D01*
X273050Y-527050D01*
G54D31*
X50800Y-409575D02*
X101600Y-409575D01*
X257175Y-409575D01*
X298450Y-450850D01*
X298450Y-527050D01*
G54D19*
X292100Y-704850D02*
X260350Y-673100D01*
X200025Y-673100D01*
X144462Y-617538D01*
X144462Y-528638D01*
G54D28*
X144462Y-544512D02*
X144462Y-617538D01*
X200025Y-673100D01*
X260350Y-673100D01*
X292100Y-704850D01*
G54D28*
X142875Y-571500D02*
X142875Y-530225D01*
G54D30*
X895350Y-387350D02*
X946150Y-387350D01*
G54D30*
X946150Y-412750D02*
X895350Y-412750D01*
G54D30*
X895350Y-533400D02*
X946150Y-533400D01*
G54D30*
X946150Y-558800D02*
X895350Y-558800D01*
G54D31*
X527050Y-752475D02*
X527050Y-725043D01*
X528828Y-723265D01*
G54D30*
X673100Y-95250D02*
X673100Y-73025D01*
X682625Y-63500D01*
X723900Y-63500D01*
X730250Y-57150D01*
X752475Y-57150D01*
G54D30*
X698500Y-95250D02*
X698500Y-79375D01*
X704850Y-73025D01*
X850900Y-73025D01*
X860425Y-63500D01*
X860425Y-44450D01*
G54D30*
X752475Y-57150D02*
X752475Y-34925D01*
G54D30*
X771475Y-57150D02*
X822325Y-57150D01*
X835025Y-44450D01*
G54D20*
X895350Y-609600D02*
X946150Y-609600D01*
X990600Y-609600D01*
G54D32*
X895350Y-463550D02*
X946150Y-463550D01*
G54D32*
X946150Y-463550D02*
X962025Y-463550D01*
X971550Y-454025D01*
X971550Y-365125D01*
X962025Y-355600D01*
X901700Y-355600D01*
X850900Y-304800D01*
X850900Y-273050D01*
G54D20*
X927100Y-320675D02*
X927100Y-273050D01*
X784225Y-34925D02*
G54D33*
D03*
G54D30*
X771475Y-34925D02*
X784225Y-34925D01*
X869950Y-69850D02*
G54D34*
D03*
X323850Y-146050D02*
G54D12*
D03*
X304850Y-146050D02*
G54D12*
D03*
X130175Y-577850D02*
G54D35*
D03*
X109175Y-577850D02*
G54D35*
D03*
X130175Y-606425D02*
G54D35*
D03*
X109175Y-606425D02*
G54D35*
D03*
X109175Y-561975D02*
G54D34*
D03*
X95250Y-577850D02*
G54D34*
D03*
X95250Y-606425D02*
G54D34*
D03*
X109175Y-622300D02*
G54D34*
D03*
G54D36*
X95250Y-606425D02*
X109175Y-606425D01*
G54D36*
X95250Y-577850D02*
X109175Y-577850D01*
G54D36*
X109175Y-561975D02*
X109175Y-577850D01*
G54D36*
X109175Y-606425D02*
X109175Y-622300D01*
G54D36*
X109175Y-606425D02*
X109175Y-577850D01*
X784225Y-742950D02*
G54D33*
D03*
X869950Y-742950D02*
G54D33*
D03*
G54D30*
X850850Y-742950D02*
X869950Y-742950D01*
G54D30*
X765125Y-742950D02*
X784225Y-742950D01*
G54D30*
X831850Y-717550D02*
X831850Y-742950D01*
G54D30*
X746125Y-717550D02*
X746125Y-742950D01*
G54D30*
X660400Y-717550D02*
X660400Y-742950D01*
X542925Y-774700D02*
G54D33*
D03*
X511175Y-774700D02*
G54D33*
D03*
G54D30*
X425450Y-752475D02*
X425450Y-768350D01*
X431800Y-774700D01*
X511175Y-774700D01*
G54D30*
X542925Y-774700D02*
X879475Y-774700D01*
X903650Y-750525D01*
X903650Y-711200D01*
G54D30*
X423828Y-723265D02*
X454943Y-692150D01*
X508000Y-692150D01*
G54D31*
X528828Y-723265D02*
X528828Y-544322D01*
X508000Y-692150D02*
G54D33*
D03*
X568325Y-692150D02*
G54D33*
D03*
G54D30*
X679400Y-742950D02*
X679400Y-758775D01*
X685800Y-765175D01*
X873125Y-765175D01*
X892175Y-746125D01*
X903650Y-711200D02*
G54D33*
D03*
G54D30*
X892175Y-746125D02*
X892175Y-704850D01*
X898525Y-698500D01*
X936625Y-698500D01*
X943650Y-691475D01*
X943650Y-676275D01*
G54D37*
X850900Y-273050D02*
X850900Y-215900D01*
X425450Y-215900D01*
X406400Y-234950D01*
X406400Y-317500D01*
X349250Y-374650D01*
X349250Y-546100D01*
X339725Y-555625D01*
X184150Y-555625D01*
X171450Y-542925D01*
X171450Y-527050D01*
G54D37*
X850900Y-215900D02*
X889000Y-215900D01*
X981075Y-123825D01*
X981075Y-85725D01*
X965200Y-69850D01*
X869950Y-69850D01*
X274650Y-644475D02*
G54D33*
D03*
X266700Y-590550D02*
G54D33*
D03*
G54D30*
X266700Y-590550D02*
X279400Y-590550D01*
G54D30*
X298400Y-590550D02*
X298400Y-615900D01*
X298450Y-615950D01*
G54D30*
X274650Y-615950D02*
X298450Y-615950D01*
G54D30*
X274650Y-634950D02*
X274650Y-644475D01*
G54D30*
X238075Y-625475D02*
X274625Y-625475D01*
X274650Y-625450D01*
G54D30*
X219075Y-625475D02*
X219075Y-600075D01*
G54D30*
X238075Y-600075D02*
X238075Y-581075D01*
X250825Y-568325D01*
X342900Y-568325D01*
X361950Y-549275D01*
X361950Y-381000D01*
X419100Y-323850D01*
X419100Y-244475D01*
X431800Y-231775D01*
X784225Y-231775D01*
X800100Y-247650D01*
X800100Y-273050D01*
X508000Y-663575D02*
G54D33*
D03*
X549275Y-663575D02*
G54D33*
D03*
G54D30*
X549275Y-663575D02*
X549275Y-695325D01*
X565150Y-711200D01*
X565150Y-774700D01*
G54D30*
X280194Y-676275D02*
X286544Y-669925D01*
X286544Y-615950D01*
G54D30*
X508000Y-663575D02*
X311150Y-663575D01*
X298450Y-650875D01*
X298450Y-634950D01*
G54D30*
X530225Y-644525D02*
X558800Y-644525D01*
X584200Y-669925D01*
X755650Y-669925D01*
X765175Y-679450D01*
X765125Y-717550D01*
G54D30*
X723900Y-333375D02*
X723900Y-273050D01*
G54D30*
X749300Y-333375D02*
X749300Y-273050D01*
G54D32*
X800100Y-333375D02*
X850900Y-333375D01*
X863600Y-320675D01*
G54D30*
X952500Y-95250D02*
X952500Y-120650D01*
X876300Y-196850D01*
X422275Y-196850D01*
X390525Y-228600D01*
X390525Y-314325D01*
X365125Y-339725D01*
X311150Y-339725D01*
X298450Y-352425D01*
X298450Y-374650D01*
G54D30*
X273050Y-374650D02*
X273050Y-346075D01*
X288925Y-330200D01*
X358775Y-330200D01*
X381000Y-307975D01*
X381000Y-222250D01*
X419100Y-184150D01*
X860425Y-184150D01*
X927100Y-117475D01*
X927100Y-95250D01*
G54D30*
X247650Y-374650D02*
X247650Y-346075D01*
X273050Y-320675D01*
X352425Y-320675D01*
X371475Y-301625D01*
X371475Y-215900D01*
X415925Y-171450D01*
X844550Y-171450D01*
X876300Y-139700D01*
X876300Y-95250D01*
G54D30*
X850900Y-95250D02*
X850900Y-136525D01*
X828675Y-158750D01*
X412750Y-158750D01*
X361950Y-209550D01*
X361950Y-298450D01*
X349250Y-311150D01*
X254000Y-311150D01*
X222250Y-342900D01*
X222250Y-374650D01*
G54D30*
X825500Y-95250D02*
X825500Y-130175D01*
X809625Y-146050D01*
X409575Y-146050D01*
X311150Y-244475D01*
X133350Y-244475D01*
X114300Y-263525D01*
X114300Y-295275D01*
X127000Y-307975D01*
X158750Y-307975D01*
X196850Y-346075D01*
X196850Y-374650D01*
G54D30*
X800100Y-95250D02*
X800100Y-123825D01*
X790575Y-133350D01*
X406400Y-133350D01*
X307975Y-231775D01*
X123825Y-231775D01*
X98425Y-257175D01*
X98425Y-301625D01*
X117475Y-320675D01*
X146050Y-320675D01*
X171450Y-346075D01*
X171450Y-374650D01*
G54D30*
X749300Y-95250D02*
X749300Y-114300D01*
X742950Y-120650D01*
X403225Y-120650D01*
X304800Y-219075D01*
X117475Y-219075D01*
X85725Y-250825D01*
X85725Y-307975D01*
X111125Y-333375D01*
X133350Y-333375D01*
X146050Y-346075D01*
X146050Y-374650D01*
X428625Y-279400D02*
G54D33*
D03*
X352425Y-279400D02*
G54D33*
D03*
G54D30*
X323850Y-279400D02*
X352425Y-279400D01*
G54D30*
X428625Y-279400D02*
X428625Y-250825D01*
X434975Y-244475D01*
X666750Y-244475D01*
X673100Y-250825D01*
X673100Y-273050D01*
G54D31*
X528828Y-544322D02*
X528828Y-434975D01*
G54D30*
X554228Y-485775D02*
X554228Y-500253D01*
X561975Y-508000D01*
X614503Y-508000D01*
X614553Y-507950D01*
G54D30*
X614553Y-457150D02*
X614553Y-488950D01*
G54D30*
X533400Y-466725D02*
X596900Y-466725D01*
X603250Y-473075D01*
X614362Y-473075D01*
G54D32*
X66675Y-167475D02*
X66675Y-146050D01*
X63500Y-142875D01*
X41275Y-142875D01*
X41275Y-167475D01*
G54D32*
X41275Y-142875D02*
X19050Y-142875D01*
X9525Y-133350D01*
X9525Y-76200D01*
X22225Y-63500D01*
X44450Y-63500D01*
X63500Y-44450D01*
X63500Y-25400D01*
X79375Y-9525D01*
X901700Y-9525D01*
X911225Y-19050D01*
X911225Y-44450D01*
G54D20*
X527050Y-790575D02*
X917575Y-790575D01*
X933450Y-774700D01*
X933450Y-752475D01*
X955675Y-730250D01*
X977900Y-730250D01*
X990600Y-717550D01*
X990600Y-327025D01*
X984250Y-320675D01*
X967100Y-320675D01*
G54D20*
X323850Y-95250D02*
X323850Y-158750D01*
X288925Y-193675D01*
X92075Y-193675D01*
G54D20*
X527050Y-752475D02*
X527050Y-790575D01*
X88900Y-790575D01*
X73025Y-774700D01*
X73025Y-542925D01*
X57150Y-527050D01*
X31750Y-527050D01*
X12700Y-508000D01*
X12700Y-234950D01*
X53975Y-193675D01*
X53975Y-187325D01*
G54D32*
X53975Y-167475D02*
X53975Y-187325D01*
G54D20*
X53975Y-193675D02*
X92075Y-193675D01*
X92075Y-161875D01*
G54D30*
X400050Y-476250D02*
X400050Y-454025D01*
G54D30*
X439725Y-466700D02*
X403250Y-466700D01*
X403225Y-466725D01*
G54D30*
X439725Y-457200D02*
X425400Y-457250D01*
X419050Y-450900D01*
X419050Y-441375D01*
X412700Y-435025D01*
X400050Y-435025D01*
X400000Y-435075D01*
G54D30*
X439725Y-476200D02*
X425450Y-476150D01*
X419050Y-482550D01*
X419050Y-488900D01*
X412700Y-495250D01*
X400050Y-495250D01*
X400000Y-495200D01*
X400050Y-466725D02*
G54D33*
D03*
G54D30*
X466725Y-466700D02*
X457175Y-466700D01*
X450850Y-460375D01*
X450850Y-450850D01*
X457200Y-444500D01*
X457200Y-431850D01*
X457150Y-431800D01*
X425450Y-431800D02*
G54D33*
D03*
G54D30*
X425450Y-431800D02*
X438150Y-431800D01*
G54D30*
X466725Y-476200D02*
X495350Y-476200D01*
X501650Y-469900D01*
X501650Y-419100D01*
X511175Y-409575D01*
X606425Y-409575D01*
X614553Y-417703D01*
X614553Y-438150D01*
G54D30*
X466725Y-457200D02*
X485775Y-457200D01*
X492125Y-450850D01*
X492125Y-412750D01*
X504825Y-400050D01*
X612775Y-400050D01*
X631825Y-419100D01*
X631825Y-501650D01*
X625475Y-508000D01*
X614603Y-508000D01*
X614553Y-507950D01*
G54D30*
X554228Y-434975D02*
X554228Y-449453D01*
X561975Y-457200D01*
X590550Y-457200D01*
X596900Y-450850D01*
X596900Y-444500D01*
X603250Y-438150D01*
X614553Y-438150D01*
G54D30*
X400050Y-435025D02*
X400050Y-409575D01*
X422275Y-387350D01*
X536575Y-387350D01*
X571500Y-352425D01*
X571500Y-273050D01*
G54D30*
X400050Y-495250D02*
X380950Y-495250D01*
X374650Y-488950D01*
X374650Y-415925D01*
X412750Y-377825D01*
X530225Y-377825D01*
X546100Y-361950D01*
X546100Y-273050D01*
X92075Y-127000D02*
G54D34*
D03*
X109175Y-142875D02*
G54D34*
D03*
G54D36*
X92075Y-142875D02*
X92075Y-127000D01*
G54D36*
X92075Y-142875D02*
X109175Y-142875D01*
X41275Y-98425D02*
G54D34*
D03*
G54D32*
X41275Y-98425D02*
X41275Y-117475D01*
X474300Y-53975D02*
G54D34*
D03*
G54D30*
X453975Y-53975D02*
X474300Y-53975D01*
G54D30*
X434975Y-53975D02*
X434975Y-31750D01*
X290875Y-146050D02*
G54D34*
D03*
X304850Y-130175D02*
G54D34*
D03*
G54D36*
X304850Y-146050D02*
X304850Y-130175D01*
G54D36*
X304850Y-146050D02*
X290875Y-146050D01*
X193625Y-168275D02*
G54D34*
D03*
G54D30*
X193625Y-168275D02*
X209600Y-168275D01*
X381000Y-117475D02*
G54D33*
D03*
X371475Y-136525D02*
G54D33*
D03*
G54D30*
X228600Y-168275D02*
X228625Y-168300D01*
X250850Y-168300D01*
G54D30*
X269850Y-168300D02*
X269875Y-168325D01*
X269875Y-193675D01*
G54D30*
X250850Y-168300D02*
X250850Y-146025D01*
X263525Y-133350D01*
X279400Y-133350D01*
X298450Y-114300D01*
X298450Y-95250D01*
G54D30*
X298450Y-95250D02*
X298450Y-79375D01*
X307975Y-69850D01*
X361950Y-69850D01*
X371475Y-79375D01*
X371475Y-136525D01*
G54D30*
X273050Y-95250D02*
X273050Y-73025D01*
X285750Y-60325D01*
X368300Y-60325D01*
X381000Y-73025D01*
X381000Y-117475D01*
G54D30*
X53975Y-117475D02*
X53975Y-79375D01*
X107950Y-25400D01*
X365125Y-25400D01*
X412750Y-73025D01*
X485775Y-73025D01*
X495300Y-82550D01*
X495300Y-95250D01*
X111125Y-111125D02*
G54D34*
D03*
G54D30*
X111125Y-95250D02*
X111125Y-111125D01*
G54D30*
X66675Y-117475D02*
X82550Y-117475D01*
X92075Y-107950D01*
X92075Y-95300D01*
X92125Y-95250D01*
G54D32*
X146050Y-95250D02*
X146050Y-85725D01*
X158750Y-73025D01*
X158750Y-57150D01*
G54D32*
X196850Y-95250D02*
X196850Y-88900D01*
X184150Y-76200D01*
X184150Y-57150D01*
G54D30*
X66675Y-117475D02*
X66675Y-82550D01*
X114300Y-34925D01*
X358775Y-34925D01*
X419100Y-95250D01*
X469900Y-95250D01*
G54D30*
X860425Y-387350D02*
X895350Y-387350D01*
G54D30*
X860425Y-412750D02*
X895350Y-412750D01*
G54D30*
X860425Y-368350D02*
X873075Y-368350D01*
X892175Y-349250D01*
G54D30*
X860425Y-558800D02*
X895350Y-558800D01*
G54D30*
X860425Y-533400D02*
X895350Y-533400D01*
G54D30*
X860425Y-577800D02*
X860425Y-600075D01*
X869950Y-609600D01*
X895350Y-609600D01*
G54D30*
X860425Y-514400D02*
X990550Y-514400D01*
X990600Y-514350D01*
G54D30*
X786950Y-457200D02*
X786950Y-422725D01*
X796925Y-412750D01*
X860425Y-412750D01*
G54D30*
X793450Y-496200D02*
X793450Y-526750D01*
X800100Y-533400D01*
X860425Y-533400D01*
G54D30*
X786950Y-496200D02*
X786950Y-548825D01*
X796925Y-558800D01*
X860425Y-558800D01*
G54D30*
X806450Y-496200D02*
X799950Y-496200D01*
G54D30*
X806450Y-496200D02*
X854975Y-496200D01*
X860425Y-501650D01*
X860425Y-514400D01*
X819150Y-514350D02*
G54D33*
D03*
G54D30*
X819150Y-514350D02*
X833629Y-514348D01*
X815975Y-457200D02*
G54D33*
D03*
G54D30*
X799950Y-457200D02*
X799950Y-438300D01*
X806450Y-431800D01*
X860375Y-431800D01*
X860425Y-431750D01*
G54D30*
X860425Y-387350D02*
X800100Y-387350D01*
X777875Y-409575D01*
X777875Y-469900D01*
X790575Y-469900D01*
X793450Y-467025D01*
X793450Y-457200D01*
G54D30*
X806450Y-457200D02*
X815975Y-457200D01*
X822327Y-450848D01*
X833629Y-450848D01*
G54D30*
X749300Y-333375D02*
X749300Y-365125D01*
G54D30*
X768300Y-365125D02*
X790575Y-365125D01*
X800100Y-355600D01*
X800100Y-333375D01*
X733425Y-533400D02*
G54D15*
D03*
X708025Y-533400D02*
G54D15*
D03*
X708025Y-590550D02*
G54D24*
D03*
X727025Y-590550D02*
G54D24*
D03*
X660400Y-692150D02*
G54D24*
D03*
X679400Y-692150D02*
G54D24*
D03*
G54D30*
X679400Y-717550D02*
X679400Y-692150D01*
G54D30*
X660400Y-692150D02*
X568325Y-692150D01*
G54D30*
X860425Y-431750D02*
X860425Y-450850D01*
X873125Y-463550D01*
X895350Y-463550D01*
G54D30*
X657275Y-612775D02*
X657275Y-590550D01*
X688975Y-612775D02*
G54D33*
D03*
G54D30*
X676275Y-612775D02*
X688975Y-612775D01*
X666750Y-555625D02*
G54D33*
D03*
G54D30*
X666775Y-566750D02*
X666775Y-555650D01*
X666750Y-555625D01*
G54D30*
X676275Y-590550D02*
X708025Y-590550D01*
G54D30*
X657275Y-612775D02*
X657275Y-625525D01*
X663575Y-631825D01*
X720725Y-631825D01*
X727075Y-625475D01*
X727075Y-590600D01*
X727025Y-590550D01*
G54D30*
X708025Y-590550D02*
X708025Y-533400D01*
G54D30*
X676275Y-566750D02*
X676275Y-479425D01*
X685800Y-469900D01*
X777875Y-469900D01*
G54D30*
X657275Y-566750D02*
X657275Y-476200D01*
X676275Y-457200D01*
X762000Y-457200D01*
X768800Y-450400D01*
X768800Y-422725D01*
X786950Y-422725D02*
G54D33*
D03*
X768800Y-422725D02*
G54D33*
D03*
G54D30*
X727025Y-590550D02*
X730200Y-587375D01*
X774700Y-587375D01*
G54D30*
X799950Y-457200D02*
X799950Y-476400D01*
X793750Y-482600D01*
X781050Y-482600D01*
X774700Y-488950D01*
X774700Y-587375D01*
X835025Y-587375D01*
X850850Y-603200D01*
X850850Y-717550D01*
G54D30*
X596900Y-273050D02*
X596900Y-365125D01*
X654050Y-422275D01*
X768350Y-422275D01*
X768800Y-422725D01*
G54D30*
X622300Y-273050D02*
X622300Y-374650D01*
X657225Y-409575D01*
X777875Y-409575D01*
G54D30*
X453975Y-31750D02*
X453975Y-9575D01*
X454025Y-9525D01*
M02*
